<ttFont>
    <TTGlyph name="A" xMin="54" yMin="0" xMax="1439" yMax="1452">
      <contour>
        <pt x="741" y="1179" on="1"/>
        <pt x="521" y="536" on="1"/>
        <pt x="965" y="536" on="1"/>
        <pt x="746" y="1179" on="1"/>
      </contour>
      <contour>
        <pt x="1393" y="303" on="1"/>
        <pt x="1400" y="285" on="0"/>
        <pt x="1416" y="246" on="0"/>
        <pt x="1430" y="206" on="0"/>
        <pt x="1439" y="169" on="0"/>
        <pt x="1439" y="154" on="1"/>
        <pt x="1439" y="117" on="0"/>
        <pt x="1412" y="60" on="0"/>
        <pt x="1366" y="21" on="0"/>
        <pt x="1305" y="0" on="0"/>
        <pt x="1271" y="0" on="1"/>
        <pt x="1232" y="0" on="0"/>
        <pt x="1176" y="22" on="0"/>
        <pt x="1132" y="70" on="0"/>
        <pt x="1095" y="147" on="0"/>
        <pt x="1074" y="203" on="1"/>
        <pt x="1026" y="330" on="1"/>
        <pt x="460" y="330" on="1"/>
        <pt x="419" y="203" on="1"/>
        <pt x="401" y="146" on="0"/>
        <pt x="364" y="68" on="0"/>
        <pt x="319" y="21" on="0"/>
        <pt x="261" y="0" on="0"/>
        <pt x="222" y="0" on="1"/>
        <pt x="188" y="0" on="0"/>
        <pt x="127" y="21" on="0"/>
        <pt x="81" y="60" on="0"/>
        <pt x="54" y="117" on="0"/>
        <pt x="54" y="154" on="1"/>
        <pt x="54" y="169" on="0"/>
        <pt x="63" y="206" on="0"/>
        <pt x="77" y="246" on="0"/>
        <pt x="93" y="285" on="0"/>
        <pt x="100" y="303" on="1"/>
        <pt x="369" y="1030" on="1"/>
        <pt x="407" y="1132" on="0"/>
        <pt x="476" y="1289" on="0"/>
        <pt x="559" y="1397" on="0"/>
        <pt x="667" y="1452" on="0"/>
        <pt x="744" y="1452" on="1"/>
        <pt x="816" y="1452" on="0"/>
        <pt x="918" y="1409" on="0"/>
        <pt x="1000" y="1310" on="0"/>
        <pt x="1074" y="1148" on="0"/>
        <pt x="1119" y="1030" on="1"/>
      </contour>
    </TTGlyph>
    <TTGlyph name="AE" xMin="64" yMin="0" xMax="1954" yMax="1451">
      <contour>
        <pt x="1274" y="0" on="1"/>
        <pt x="1228" y="0" on="0"/>
        <pt x="1165" y="23" on="0"/>
        <pt x="1121" y="74" on="0"/>
        <pt x="1095" y="156" on="0"/>
        <pt x="1086" y="215" on="1"/>
        <pt x="1069" y="330" on="1"/>
        <pt x="508" y="330" on="1"/>
        <pt x="462" y="244" on="1"/>
        <pt x="436" y="192" on="0"/>
        <pt x="374" y="104" on="0"/>
        <pt x="307" y="40" on="0"/>
        <pt x="236" y="4" on="0"/>
        <pt x="200" y="4" on="1"/>
        <pt x="172" y="4" on="0"/>
        <pt x="123" y="20" on="0"/>
        <pt x="86" y="50" on="0"/>
        <pt x="64" y="95" on="0"/>
        <pt x="64" y="124" on="1"/>
        <pt x="65" y="158" on="0"/>
        <pt x="100" y="240" on="0"/>
        <pt x="121" y="279" on="1"/>
        <pt x="539" y="1043" on="1"/>
        <pt x="594" y="1149" on="0"/>
        <pt x="689" y="1303" on="0"/>
        <pt x="789" y="1403" on="0"/>
        <pt x="904" y="1450" on="0"/>
        <pt x="979" y="1450" on="1"/>
        <pt x="1175" y="1450" on="0"/>
        <pt x="1564" y="1451" on="0"/>
        <pt x="1761" y="1451" on="1"/>
        <pt x="1797" y="1451" on="0"/>
        <pt x="1865" y="1437" on="0"/>
        <pt x="1916" y="1406" on="0"/>
        <pt x="1947" y="1354" on="0"/>
        <pt x="1947" y="1316" on="1"/>
        <pt x="1947" y="1279" on="0"/>
        <pt x="1917" y="1231" on="0"/>
        <pt x="1858" y="1203" on="0"/>
        <pt x="1772" y="1192" on="0"/>
        <pt x="1717" y="1192" on="1"/>
        <pt x="1300" y="1192" on="1"/>
        <pt x="1348" y="868" on="1"/>
        <pt x="1726" y="868" on="1"/>
        <pt x="1761" y="868" on="0"/>
        <pt x="1828" y="856" on="0"/>
        <pt x="1879" y="825" on="0"/>
        <pt x="1910" y="773" on="0"/>
        <pt x="1910" y="733" on="1"/>
        <pt x="1910" y="696" on="0"/>
        <pt x="1881" y="648" on="0"/>
        <pt x="1824" y="620" on="0"/>
        <pt x="1741" y="609" on="0"/>
        <pt x="1687" y="609" on="1"/>
        <pt x="1379" y="609" on="1"/>
        <pt x="1432" y="259" on="1"/>
        <pt x="1674" y="259" on="1"/>
        <pt x="1727" y="259" on="0"/>
        <pt x="1828" y="246" on="0"/>
        <pt x="1906" y="213" on="0"/>
        <pt x="1954" y="158" on="0"/>
        <pt x="1954" y="115" on="1"/>
        <pt x="1954" y="82" on="0"/>
        <pt x="1930" y="38" on="0"/>
        <pt x="1886" y="11" on="0"/>
        <pt x="1823" y="0" on="0"/>
        <pt x="1783" y="0" on="1"/>
      </contour>
      <contour>
        <pt x="599" y="536" on="1"/>
        <pt x="1045" y="536" on="1"/>
        <pt x="957" y="1253" on="1"/>
        <pt x="953" y="1253" on="1"/>
      </contour>
    </TTGlyph>
    <TTGlyph name="Aacute" xMin="54" yMin="0" xMax="1439" yMax="2053">
      <component glyphName="A" x="0" y="0" flags="0x1204"/>
      <component glyphName="acute" x="455" y="450" flags="0x1004"/>
    </TTGlyph>
    <TTGlyph name="Acircumflex" xMin="54" yMin="0" xMax="1439" yMax="2041">
      <component glyphName="A" x="0" y="0" flags="0x1204"/>
      <component glyphName="circumflex" x="472" y="450" flags="0x1004"/>
    </TTGlyph>
    <TTGlyph name="Adieresis" xMin="54" yMin="0" xMax="1439" yMax="1908">
      <component glyphName="A" x="0" y="0" flags="0x1204"/>
      <component glyphName="dieresis" x="468" y="450" flags="0x1004"/>
    </TTGlyph>
    <TTGlyph name="Agrave" xMin="54" yMin="0" xMax="1439" yMax="2051">
      <component glyphName="A" x="0" y="0" flags="0x1204"/>
      <component glyphName="grave" x="484" y="450" flags="0x1004"/>
    </TTGlyph>
    <TTGlyph name="Aring" xMin="54" yMin="0" xMax="1439" yMax="2012">
      <component glyphName="A" x="0" y="0" flags="0x1204"/>
      <component glyphName="ring" x="468" y="450" flags="0x1004"/>
    </TTGlyph>
    <TTGlyph name="Atilde" xMin="54" yMin="0" xMax="1439" yMax="1871">
      <component glyphName="A" x="0" y="0" flags="0x1204"/>
      <component glyphName="tilde" x="477" y="450" flags="0x1004"/>
    </TTGlyph>
    <TTGlyph name="B" xMin="152" yMin="0" xMax="1360" yMax="1452">
      <contour>
        <pt x="152" y="1276" on="1"/>
        <pt x="152" y="1323" on="0"/>
        <pt x="190" y="1390" on="0"/>
        <pt x="253" y="1432" on="0"/>
        <pt x="337" y="1452" on="0"/>
        <pt x="384" y="1452" on="1"/>
        <pt x="694" y="1452" on="1"/>
        <pt x="762" y="1452" on="0"/>
        <pt x="906" y="1447" on="0"/>
        <pt x="1044" y="1424" on="0"/>
        <pt x="1166" y="1379" on="0"/>
        <pt x="1258" y="1298" on="0"/>
        <pt x="1312" y="1175" on="0"/>
        <pt x="1312" y="1087" on="1"/>
        <pt x="1312" y="1028" on="0"/>
        <pt x="1272" y="919" on="0"/>
        <pt x="1198" y="831" on="0"/>
        <pt x="1096" y="770" on="0"/>
        <pt x="1034" y="759" on="1"/>
        <pt x="1034" y="755" on="1"/>
        <pt x="1109" y="744" on="0"/>
        <pt x="1230" y="683" on="0"/>
        <pt x="1314" y="591" on="0"/>
        <pt x="1360" y="471" on="0"/>
        <pt x="1360" y="402" on="1"/>
        <pt x="1360" y="326" on="0"/>
        <pt x="1300" y="181" on="0"/>
        <pt x="1176" y="69" on="0"/>
        <pt x="985" y="0" on="0"/>
        <pt x="854" y="0" on="1"/>
        <pt x="384" y="0" on="1"/>
        <pt x="327" y="0" on="0"/>
        <pt x="241" y="18" on="0"/>
        <pt x="182" y="73" on="0"/>
        <pt x="152" y="174" on="0"/>
        <pt x="152" y="257" on="1"/>
      </contour>
      <contour>
        <pt x="505" y="224" on="1"/>
        <pt x="671" y="224" on="1"/>
        <pt x="751" y="224" on="0"/>
        <pt x="873" y="240" on="0"/>
        <pt x="955" y="288" on="0"/>
        <pt x="997" y="373" on="0"/>
        <pt x="997" y="441" on="1"/>
        <pt x="997" y="504" on="0"/>
        <pt x="949" y="584" on="0"/>
        <pt x="861" y="631" on="0"/>
        <pt x="737" y="649" on="0"/>
        <pt x="661" y="649" on="1"/>
        <pt x="505" y="649" on="1"/>
      </contour>
      <contour>
        <pt x="505" y="1228" on="1"/>
        <pt x="505" y="831" on="1"/>
        <pt x="648" y="831" on="1"/>
        <pt x="714" y="831" on="0"/>
        <pt x="827" y="849" on="0"/>
        <pt x="908" y="895" on="0"/>
        <pt x="954" y="974" on="0"/>
        <pt x="954" y="1035" on="1"/>
        <pt x="954" y="1096" on="0"/>
        <pt x="909" y="1171" on="0"/>
        <pt x="831" y="1213" on="0"/>
        <pt x="727" y="1228" on="0"/>
        <pt x="669" y="1228" on="1"/>
      </contour>
    </TTGlyph>
    <TTGlyph name="C" xMin="86" yMin="-35" xMax="1310" yMax="1486">
      <contour>
        <pt x="86" y="714" on="1"/>
        <pt x="86" y="896" on="0"/>
        <pt x="193" y="1183" on="0"/>
        <pt x="385" y="1381" on="0"/>
        <pt x="650" y="1486" on="0"/>
        <pt x="808" y="1486" on="1"/>
        <pt x="933" y="1486" on="0"/>
        <pt x="1118" y="1455" on="0"/>
        <pt x="1240" y="1401" on="0"/>
        <pt x="1300" y="1327" on="0"/>
        <pt x="1300" y="1284" on="1"/>
        <pt x="1300" y="1255" on="0"/>
        <pt x="1276" y="1212" on="0"/>
        <pt x="1237" y="1184" on="0"/>
        <pt x="1189" y="1171" on="0"/>
        <pt x="1165" y="1171" on="1"/>
        <pt x="1151" y="1171" on="0"/>
        <pt x="1123" y="1172" on="0"/>
        <pt x="1110" y="1176" on="1"/>
        <pt x="1072" y="1186" on="0"/>
        <pt x="1003" y="1205" on="0"/>
        <pt x="936" y="1219" on="0"/>
        <pt x="869" y="1228" on="0"/>
        <pt x="833" y="1228" on="1"/>
        <pt x="758" y="1228" on="0"/>
        <pt x="625" y="1183" on="0"/>
        <pt x="527" y="1069" on="0"/>
        <pt x="470" y="874" on="0"/>
        <pt x="470" y="723" on="1"/>
        <pt x="470" y="607" on="0"/>
        <pt x="516" y="422" on="0"/>
        <pt x="607" y="293" on="0"/>
        <pt x="744" y="224" on="0"/>
        <pt x="835" y="224" on="1"/>
        <pt x="872" y="224" on="0"/>
        <pt x="952" y="240" on="0"/>
        <pt x="1036" y="265" on="0"/>
        <pt x="1123" y="297" on="0"/>
        <pt x="1166" y="313" on="1"/>
        <pt x="1179" y="317" on="0"/>
        <pt x="1198" y="317" on="1"/>
        <pt x="1223" y="317" on="0"/>
        <pt x="1264" y="298" on="0"/>
        <pt x="1294" y="266" on="0"/>
        <pt x="1310" y="223" on="0"/>
        <pt x="1310" y="199" on="1"/>
        <pt x="1310" y="160" on="0"/>
        <pt x="1259" y="95" on="0"/>
        <pt x="1175" y="43" on="0"/>
        <pt x="1066" y="4" on="0"/>
        <pt x="950" y="-22" on="0"/>
        <pt x="835" y="-35" on="0"/>
        <pt x="786" y="-35" on="1"/>
        <pt x="638" y="-35" on="0"/>
        <pt x="382" y="64" on="0"/>
        <pt x="194" y="255" on="0"/>
        <pt x="86" y="534" on="0"/>
      </contour>
    </TTGlyph>
    <TTGlyph name="Ccedilla" xMin="86" yMin="-443" xMax="1310" yMax="1486">
      <component glyphName="C" x="0" y="0" flags="0x1204"/>
      <component glyphName="cedilla" x="460" y="0" flags="0x1004"/>
    </TTGlyph>
    <TTGlyph name="D" xMin="143" yMin="0" xMax="1470" yMax="1452">
      <contour>
        <pt x="326" y="0" on="1"/>
        <pt x="272" y="0" on="0"/>
        <pt x="201" y="44" on="0"/>
        <pt x="159" y="116" on="0"/>
        <pt x="143" y="207" on="0"/>
        <pt x="143" y="255" on="1"/>
        <pt x="143" y="1195" on="1"/>
        <pt x="143" y="1262" on="0"/>
        <pt x="169" y="1360" on="0"/>
        <pt x="229" y="1422" on="0"/>
        <pt x="326" y="1452" on="0"/>
        <pt x="397" y="1452" on="1"/>
        <pt x="645" y="1452" on="1"/>
        <pt x="1054" y="1452" on="0"/>
        <pt x="1470" y="1091" on="0"/>
        <pt x="1470" y="716" on="1"/>
        <pt x="1470" y="533" on="0"/>
        <pt x="1356" y="263" on="0"/>
        <pt x="1147" y="86" on="0"/>
        <pt x="853" y="0" on="0"/>
        <pt x="674" y="0" on="1"/>
      </contour>
      <contour>
        <pt x="509" y="224" on="1"/>
        <pt x="646" y="224" on="1"/>
        <pt x="760" y="224" on="0"/>
        <pt x="924" y="276" on="0"/>
        <pt x="1031" y="402" on="0"/>
        <pt x="1082" y="589" on="0"/>
        <pt x="1082" y="725" on="1"/>
        <pt x="1082" y="978" on="0"/>
        <pt x="872" y="1226" on="0"/>
        <pt x="655" y="1226" on="1"/>
        <pt x="509" y="1226" on="1"/>
      </contour>
    </TTGlyph>
    <TTGlyph name="Delta" xMin="106" yMin="183" xMax="1247" yMax="1587">
      <contour>
        <pt x="1247" y="183" on="1"/>
        <pt x="106" y="183" on="1"/>
        <pt x="542" y="1449" on="1"/>
        <pt x="552" y="1477" on="0"/>
        <pt x="575" y="1528" on="0"/>
        <pt x="607" y="1565" on="0"/>
        <pt x="650" y="1587" on="0"/>
        <pt x="680" y="1587" on="1"/>
        <pt x="706" y="1587" on="0"/>
        <pt x="746" y="1565" on="0"/>
        <pt x="778" y="1528" on="0"/>
        <pt x="802" y="1477" on="0"/>
        <pt x="813" y="1449" on="1"/>
      </contour>
      <contour>
        <pt x="677" y="1285" on="1"/>
        <pt x="670" y="1285" on="1"/>
        <pt x="356" y="334" on="1"/>
        <pt x="993" y="334" on="1"/>
      </contour>
    </TTGlyph>
    <TTGlyph name="E" xMin="154" yMin="0" xMax="1183" yMax="1452">
      <contour>
        <pt x="334" y="0" on="1"/>
        <pt x="283" y="0" on="0"/>
        <pt x="214" y="42" on="0"/>
        <pt x="172" y="109" on="0"/>
        <pt x="154" y="193" on="0"/>
        <pt x="154" y="235" on="1"/>
        <pt x="154" y="1188" on="1"/>
        <pt x="154" y="1245" on="0"/>
        <pt x="168" y="1342" on="0"/>
        <pt x="216" y="1412" on="0"/>
        <pt x="308" y="1452" on="0"/>
        <pt x="386" y="1452" on="1"/>
        <pt x="1028" y="1452" on="1"/>
        <pt x="1057" y="1452" on="0"/>
        <pt x="1108" y="1431" on="0"/>
        <pt x="1146" y="1396" on="0"/>
        <pt x="1168" y="1348" on="0"/>
        <pt x="1168" y="1321" on="1"/>
        <pt x="1168" y="1294" on="0"/>
        <pt x="1146" y="1247" on="0"/>
        <pt x="1108" y="1212" on="0"/>
        <pt x="1057" y="1192" on="0"/>
        <pt x="1028" y="1192" on="1"/>
        <pt x="513" y="1192" on="1"/>
        <pt x="513" y="868" on="1"/>
        <pt x="983" y="868" on="1"/>
        <pt x="1012" y="868" on="0"/>
        <pt x="1063" y="848" on="0"/>
        <pt x="1101" y="812" on="0"/>
        <pt x="1123" y="765" on="0"/>
        <pt x="1123" y="738" on="1"/>
        <pt x="1123" y="711" on="0"/>
        <pt x="1101" y="664" on="0"/>
        <pt x="1063" y="629" on="0"/>
        <pt x="1012" y="609" on="0"/>
        <pt x="983" y="609" on="1"/>
        <pt x="513" y="609" on="1"/>
        <pt x="513" y="259" on="1"/>
        <pt x="1053" y="259" on="1"/>
        <pt x="1080" y="259" on="0"/>
        <pt x="1127" y="239" on="0"/>
        <pt x="1163" y="203" on="0"/>
        <pt x="1183" y="156" on="0"/>
        <pt x="1183" y="129" on="1"/>
        <pt x="1183" y="102" on="0"/>
        <pt x="1163" y="55" on="0"/>
        <pt x="1127" y="20" on="0"/>
        <pt x="1080" y="0" on="0"/>
        <pt x="1053" y="0" on="1"/>
      </contour>
    </TTGlyph>
    <TTGlyph name="Eacute" xMin="154" yMin="0" xMax="1183" yMax="2053">
      <component glyphName="E" x="0" y="0" flags="0x1204"/>
      <component glyphName="acute" x="339" y="450" flags="0x1004"/>
    </TTGlyph>
    <TTGlyph name="Ecircumflex" xMin="154" yMin="0" xMax="1183" yMax="2041">
      <component glyphName="E" x="0" y="0" flags="0x1204"/>
      <component glyphName="circumflex" x="355" y="450" flags="0x1004"/>
    </TTGlyph>
    <TTGlyph name="Edieresis" xMin="154" yMin="0" xMax="1183" yMax="1908">
      <component glyphName="E" x="0" y="0" flags="0x1204"/>
      <component glyphName="dieresis" x="350" y="450" flags="0x1004"/>
    </TTGlyph>
    <TTGlyph name="Egrave" xMin="154" yMin="0" xMax="1183" yMax="2051">
      <component glyphName="E" x="0" y="0" flags="0x1204"/>
      <component glyphName="grave" x="367" y="450" flags="0x1004"/>
    </TTGlyph>
    <TTGlyph name="Eth" xMin="-15" yMin="0" xMax="1470" yMax="1451">
      <contour>
        <pt x="545" y="0" on="1"/>
        <pt x="485" y="0" on="1"/>
        <pt x="428" y="0" on="0"/>
        <pt x="313" y="7" on="0"/>
        <pt x="219" y="34" on="0"/>
        <pt x="156" y="90" on="0"/>
        <pt x="151" y="140" on="1"/>
        <pt x="146" y="169" on="0"/>
        <pt x="143" y="228" on="0"/>
        <pt x="143" y="258" on="1"/>
        <pt x="143" y="648" on="1"/>
        <pt x="88" y="648" on="1"/>
        <pt x="68" y="648" on="0"/>
        <pt x="30" y="656" on="0"/>
        <pt x="2" y="676" on="0"/>
        <pt x="-15" y="708" on="0"/>
        <pt x="-15" y="732" on="1"/>
        <pt x="-15" y="770" on="0"/>
        <pt x="36" y="815" on="0"/>
        <pt x="88" y="815" on="1"/>
        <pt x="143" y="815" on="1"/>
        <pt x="143" y="1193" on="1"/>
        <pt x="143" y="1240" on="0"/>
        <pt x="155" y="1332" on="0"/>
        <pt x="199" y="1406" on="0"/>
        <pt x="282" y="1451" on="0"/>
        <pt x="353" y="1451" on="1"/>
        <pt x="658" y="1451" on="1"/>
        <pt x="787" y="1451" on="0"/>
        <pt x="992" y="1422" on="0"/>
        <pt x="1078" y="1388" on="1"/>
        <pt x="1280" y="1308" on="0"/>
        <pt x="1470" y="965" on="0"/>
        <pt x="1470" y="716" on="1"/>
        <pt x="1470" y="552" on="0"/>
        <pt x="1374" y="294" on="0"/>
        <pt x="1195" y="112" on="0"/>
        <pt x="939" y="9" on="0"/>
        <pt x="779" y="2" on="1"/>
        <pt x="721" y="1" on="0"/>
        <pt x="604" y="0" on="0"/>
      </contour>
      <contour>
        <pt x="509" y="648" on="1"/>
        <pt x="509" y="233" on="1"/>
        <pt x="635" y="233" on="1"/>
        <pt x="747" y="233" on="0"/>
        <pt x="914" y="280" on="0"/>
        <pt x="1026" y="393" on="0"/>
        <pt x="1082" y="582" on="0"/>
        <pt x="1082" y="725" on="1"/>
        <pt x="1082" y="972" on="0"/>
        <pt x="876" y="1218" on="0"/>
        <pt x="655" y="1218" on="1"/>
        <pt x="509" y="1218" on="1"/>
        <pt x="509" y="815" on="1"/>
        <pt x="582" y="815" on="1"/>
        <pt x="633" y="815" on="0"/>
        <pt x="688" y="775" on="0"/>
        <pt x="688" y="731" on="1"/>
        <pt x="688" y="698" on="0"/>
        <pt x="643" y="648" on="0"/>
        <pt x="605" y="648" on="1"/>
      </contour>
    </TTGlyph>
    <TTGlyph name="Euro" xMin="9" yMin="-20" xMax="1247" yMax="1464">
      <contour>
        <pt x="137" y="810" on="1"/>
        <pt x="83" y="810" on="1"/>
        <pt x="50" y="810" on="0"/>
        <pt x="18" y="852" on="0"/>
        <pt x="18" y="877" on="1"/>
        <pt x="18" y="901" on="0"/>
        <pt x="49" y="943" on="0"/>
        <pt x="83" y="943" on="1"/>
        <pt x="155" y="943" on="1"/>
        <pt x="181" y="1071" on="0"/>
        <pt x="303" y="1266" on="0"/>
        <pt x="479" y="1397" on="0"/>
        <pt x="703" y="1464" on="0"/>
        <pt x="831" y="1464" on="1"/>
        <pt x="870" y="1462" on="1"/>
        <pt x="947" y="1458" on="0"/>
        <pt x="1093" y="1425" on="0"/>
        <pt x="1165" y="1402" on="1"/>
        <pt x="1207" y="1383" on="0"/>
        <pt x="1247" y="1317" on="0"/>
        <pt x="1247" y="1278" on="1"/>
        <pt x="1247" y="1250" on="0"/>
        <pt x="1227" y="1206" on="0"/>
        <pt x="1193" y="1175" on="0"/>
        <pt x="1148" y="1158" on="0"/>
        <pt x="1122" y="1158" on="1"/>
        <pt x="1094" y="1158" on="0"/>
        <pt x="1028" y="1168" on="0"/>
        <pt x="959" y="1181" on="0"/>
        <pt x="891" y="1191" on="0"/>
        <pt x="861" y="1191" on="1"/>
        <pt x="798" y="1191" on="0"/>
        <pt x="696" y="1154" on="0"/>
        <pt x="619" y="1088" on="0"/>
        <pt x="566" y="997" on="0"/>
        <pt x="550" y="943" on="1"/>
        <pt x="906" y="943" on="1"/>
        <pt x="930" y="943" on="0"/>
        <pt x="979" y="940" on="0"/>
        <pt x="1017" y="927" on="0"/>
        <pt x="1041" y="901" on="0"/>
        <pt x="1041" y="878" on="1"/>
        <pt x="1041" y="851" on="0"/>
        <pt x="1008" y="810" on="0"/>
        <pt x="976" y="810" on="1"/>
        <pt x="525" y="810" on="1"/>
        <pt x="522" y="787" on="0"/>
        <pt x="520" y="744" on="0"/>
        <pt x="520" y="722" on="1"/>
        <pt x="520" y="697" on="0"/>
        <pt x="522" y="648" on="0"/>
        <pt x="525" y="623" on="1"/>
        <pt x="895" y="623" on="1"/>
        <pt x="920" y="623" on="0"/>
        <pt x="970" y="620" on="0"/>
        <pt x="1008" y="607" on="0"/>
        <pt x="1032" y="580" on="0"/>
        <pt x="1032" y="557" on="1"/>
        <pt x="1032" y="531" on="0"/>
        <pt x="999" y="490" on="0"/>
        <pt x="967" y="490" on="1"/>
        <pt x="553" y="490" on="1"/>
        <pt x="570" y="437" on="0"/>
        <pt x="625" y="349" on="0"/>
        <pt x="703" y="285" on="0"/>
        <pt x="805" y="250" on="0"/>
        <pt x="868" y="250" on="1"/>
        <pt x="919" y="250" on="0"/>
        <pt x="1029" y="273" on="0"/>
        <pt x="1086" y="283" on="1"/>
        <pt x="1095" y="285" on="0"/>
        <pt x="1114" y="285" on="0"/>
        <pt x="1123" y="285" on="1"/>
        <pt x="1181" y="285" on="0"/>
        <pt x="1245" y="216" on="0"/>
        <pt x="1245" y="161" on="1"/>
        <pt x="1245" y="110" on="0"/>
        <pt x="1179" y="48" on="0"/>
        <pt x="1122" y="31" on="1"/>
        <pt x="1041" y="5" on="0"/>
        <pt x="868" y="-20" on="0"/>
        <pt x="781" y="-20" on="1"/>
        <pt x="665" y="-17" on="0"/>
        <pt x="462" y="50" on="0"/>
        <pt x="300" y="179" on="0"/>
        <pt x="186" y="367" on="0"/>
        <pt x="159" y="490" on="1"/>
        <pt x="75" y="490" on="1"/>
        <pt x="41" y="490" on="0"/>
        <pt x="9" y="531" on="0"/>
        <pt x="9" y="557" on="1"/>
        <pt x="9" y="581" on="0"/>
        <pt x="41" y="623" on="0"/>
        <pt x="75" y="623" on="1"/>
        <pt x="138" y="623" on="1"/>
        <pt x="135" y="647" on="0"/>
        <pt x="134" y="696" on="0"/>
        <pt x="134" y="725" on="1"/>
        <pt x="134" y="763" on="0"/>
      </contour>
    </TTGlyph>
    <TTGlyph name="F" xMin="147" yMin="0" xMax="1132" yMax="1452">
      <contour>
        <pt x="971" y="872" on="1"/>
        <pt x="998" y="872" on="0"/>
        <pt x="1045" y="852" on="0"/>
        <pt x="1081" y="816" on="0"/>
        <pt x="1101" y="769" on="0"/>
        <pt x="1101" y="742" on="1"/>
        <pt x="1101" y="715" on="0"/>
        <pt x="1081" y="668" on="0"/>
        <pt x="1045" y="633" on="0"/>
        <pt x="998" y="613" on="0"/>
        <pt x="971" y="613" on="1"/>
        <pt x="519" y="613" on="1"/>
        <pt x="518" y="195" on="1"/>
        <pt x="518" y="154" on="0"/>
        <pt x="489" y="83" on="0"/>
        <pt x="438" y="30" on="0"/>
        <pt x="371" y="0" on="0"/>
        <pt x="332" y="0" on="1"/>
        <pt x="293" y="0" on="0"/>
        <pt x="226" y="30" on="0"/>
        <pt x="176" y="83" on="0"/>
        <pt x="147" y="154" on="0"/>
        <pt x="147" y="195" on="1"/>
        <pt x="147" y="1267" on="1"/>
        <pt x="147" y="1315" on="0"/>
        <pt x="185" y="1385" on="0"/>
        <pt x="249" y="1430" on="0"/>
        <pt x="335" y="1452" on="0"/>
        <pt x="382" y="1452" on="1"/>
        <pt x="1002" y="1452" on="1"/>
        <pt x="1029" y="1452" on="0"/>
        <pt x="1076" y="1431" on="0"/>
        <pt x="1112" y="1396" on="0"/>
        <pt x="1132" y="1348" on="0"/>
        <pt x="1132" y="1321" on="1"/>
        <pt x="1132" y="1294" on="0"/>
        <pt x="1112" y="1247" on="0"/>
        <pt x="1076" y="1212" on="0"/>
        <pt x="1029" y="1192" on="0"/>
        <pt x="1002" y="1192" on="1"/>
        <pt x="519" y="1192" on="1"/>
        <pt x="519" y="872" on="1"/>
      </contour>
    </TTGlyph>
    <TTGlyph name="G" xMin="89" yMin="-35" xMax="1445" yMax="1486">
      <contour>
        <pt x="1322" y="782" on="1"/>
        <pt x="1361" y="782" on="0"/>
        <pt x="1410" y="761" on="0"/>
        <pt x="1436" y="718" on="0"/>
        <pt x="1445" y="654" on="0"/>
        <pt x="1445" y="612" on="1"/>
        <pt x="1445" y="314" on="1"/>
        <pt x="1445" y="236" on="0"/>
        <pt x="1424" y="129" on="0"/>
        <pt x="1366" y="57" on="0"/>
        <pt x="1261" y="14" on="0"/>
        <pt x="1177" y="1" on="1"/>
        <pt x="1141" y="-5" on="0"/>
        <pt x="1059" y="-18" on="0"/>
        <pt x="974" y="-28" on="0"/>
        <pt x="891" y="-35" on="0"/>
        <pt x="855" y="-35" on="1"/>
        <pt x="679" y="-35" on="0"/>
        <pt x="396" y="56" on="0"/>
        <pt x="196" y="243" on="0"/>
        <pt x="89" y="530" on="0"/>
        <pt x="89" y="725" on="1"/>
        <pt x="89" y="882" on="0"/>
        <pt x="180" y="1159" on="0"/>
        <pt x="367" y="1366" on="0"/>
        <pt x="655" y="1486" on="0"/>
        <pt x="852" y="1486" on="1"/>
        <pt x="916" y="1486" on="0"/>
        <pt x="1042" y="1473" on="0"/>
        <pt x="1159" y="1451" on="0"/>
        <pt x="1266" y="1419" on="0"/>
        <pt x="1311" y="1400" on="1"/>
        <pt x="1356" y="1381" on="0"/>
        <pt x="1400" y="1316" on="0"/>
        <pt x="1400" y="1278" on="1"/>
        <pt x="1400" y="1216" on="0"/>
        <pt x="1324" y="1152" on="0"/>
        <pt x="1268" y="1152" on="1"/>
        <pt x="1240" y="1152" on="0"/>
        <pt x="1148" y="1175" on="0"/>
        <pt x="1043" y="1204" on="0"/>
        <pt x="934" y="1227" on="0"/>
        <pt x="889" y="1227" on="1"/>
        <pt x="779" y="1227" on="0"/>
        <pt x="622" y="1156" on="0"/>
        <pt x="522" y="1022" on="0"/>
        <pt x="476" y="830" on="0"/>
        <pt x="476" y="710" on="1"/>
        <pt x="476" y="577" on="0"/>
        <pt x="517" y="392" on="0"/>
        <pt x="607" y="276" on="0"/>
        <pt x="748" y="224" on="0"/>
        <pt x="847" y="224" on="1"/>
        <pt x="907" y="224" on="0"/>
        <pt x="1028" y="231" on="0"/>
        <pt x="1085" y="245" on="1"/>
        <pt x="1085" y="572" on="1"/>
        <pt x="951" y="572" on="1"/>
        <pt x="920" y="572" on="0"/>
        <pt x="868" y="583" on="0"/>
        <pt x="829" y="608" on="0"/>
        <pt x="807" y="649" on="0"/>
        <pt x="807" y="679" on="1"/>
        <pt x="807" y="725" on="0"/>
        <pt x="868" y="783" on="0"/>
        <pt x="931" y="783" on="1"/>
        <pt x="1030" y="783" on="0"/>
        <pt x="1222" y="782" on="0"/>
      </contour>
    </TTGlyph>
    <TTGlyph name="H" xMin="151" yMin="0" xMax="1409" yMax="1453">
      <contour>
        <pt x="1037" y="1258" on="1"/>
        <pt x="1037" y="1299" on="0"/>
        <pt x="1067" y="1370" on="0"/>
        <pt x="1117" y="1423" on="0"/>
        <pt x="1184" y="1453" on="0"/>
        <pt x="1223" y="1453" on="1"/>
        <pt x="1262" y="1453" on="0"/>
        <pt x="1329" y="1423" on="0"/>
        <pt x="1380" y="1370" on="0"/>
        <pt x="1409" y="1299" on="0"/>
        <pt x="1409" y="1258" on="1"/>
        <pt x="1409" y="195" on="1"/>
        <pt x="1409" y="154" on="0"/>
        <pt x="1380" y="83" on="0"/>
        <pt x="1329" y="30" on="0"/>
        <pt x="1262" y="0" on="0"/>
        <pt x="1223" y="0" on="1"/>
        <pt x="1184" y="0" on="0"/>
        <pt x="1117" y="30" on="0"/>
        <pt x="1067" y="83" on="0"/>
        <pt x="1038" y="154" on="0"/>
        <pt x="1038" y="195" on="1"/>
        <pt x="1037" y="608" on="1"/>
        <pt x="522" y="608" on="1"/>
        <pt x="522" y="195" on="1"/>
        <pt x="522" y="154" on="0"/>
        <pt x="493" y="83" on="0"/>
        <pt x="442" y="30" on="0"/>
        <pt x="375" y="0" on="0"/>
        <pt x="336" y="0" on="1"/>
        <pt x="297" y="0" on="0"/>
        <pt x="230" y="30" on="0"/>
        <pt x="180" y="83" on="0"/>
        <pt x="151" y="154" on="0"/>
        <pt x="151" y="195" on="1"/>
        <pt x="151" y="1258" on="1"/>
        <pt x="151" y="1299" on="0"/>
        <pt x="180" y="1370" on="0"/>
        <pt x="230" y="1423" on="0"/>
        <pt x="297" y="1453" on="0"/>
        <pt x="336" y="1453" on="1"/>
        <pt x="375" y="1453" on="0"/>
        <pt x="442" y="1423" on="0"/>
        <pt x="493" y="1370" on="0"/>
        <pt x="522" y="1299" on="0"/>
        <pt x="522" y="1258" on="1"/>
        <pt x="522" y="893" on="1"/>
        <pt x="1037" y="893" on="1"/>
      </contour>
    </TTGlyph>
    <TTGlyph name="I" xMin="159" yMin="0" xMax="530" yMax="1453">
      <contour>
        <pt x="530" y="195" on="1"/>
        <pt x="530" y="154" on="0"/>
        <pt x="501" y="83" on="0"/>
        <pt x="450" y="30" on="0"/>
        <pt x="383" y="0" on="0"/>
        <pt x="344" y="0" on="1"/>
        <pt x="305" y="0" on="0"/>
        <pt x="238" y="30" on="0"/>
        <pt x="188" y="83" on="0"/>
        <pt x="159" y="154" on="0"/>
        <pt x="159" y="195" on="1"/>
        <pt x="159" y="1258" on="1"/>
        <pt x="159" y="1299" on="0"/>
        <pt x="188" y="1370" on="0"/>
        <pt x="238" y="1423" on="0"/>
        <pt x="305" y="1453" on="0"/>
        <pt x="344" y="1453" on="1"/>
        <pt x="383" y="1453" on="0"/>
        <pt x="450" y="1423" on="0"/>
        <pt x="501" y="1370" on="0"/>
        <pt x="530" y="1299" on="0"/>
        <pt x="530" y="1258" on="1"/>
      </contour>
    </TTGlyph>
    <TTGlyph name="Iacute" xMin="105" yMin="0" xMax="570" yMax="2053">
      <component glyphName="I" x="0" y="0" flags="0x1204"/>
      <component glyphName="acute" x="48" y="450" flags="0x1004"/>
    </TTGlyph>
    <TTGlyph name="Icircumflex" xMin="4" yMin="0" xMax="684" yMax="2041">
      <component glyphName="I" x="0" y="0" flags="0x1204"/>
      <component glyphName="circumflex" x="65" y="450" flags="0x1004"/>
    </TTGlyph>
    <TTGlyph name="Idieresis" xMin="-34" yMin="0" xMax="723" yMax="1908">
      <component glyphName="I" x="0" y="0" flags="0x1204"/>
      <component glyphName="dieresis" x="60" y="450" flags="0x1004"/>
    </TTGlyph>
    <TTGlyph name="Igrave" xMin="115" yMin="0" xMax="583" yMax="2051">
      <component glyphName="I" x="0" y="0" flags="0x1204"/>
      <component glyphName="grave" x="76" y="450" flags="0x1004"/>
    </TTGlyph>
    <TTGlyph name="J" xMin="74" yMin="-34" xMax="1070" yMax="1453">
      <contour>
        <pt x="699" y="1258" on="1"/>
        <pt x="699" y="1299" on="0"/>
        <pt x="728" y="1370" on="0"/>
        <pt x="778" y="1423" on="0"/>
        <pt x="845" y="1453" on="0"/>
        <pt x="884" y="1453" on="1"/>
        <pt x="923" y="1453" on="0"/>
        <pt x="990" y="1423" on="0"/>
        <pt x="1041" y="1370" on="0"/>
        <pt x="1070" y="1299" on="0"/>
        <pt x="1070" y="1258" on="1"/>
        <pt x="1069" y="474" on="1"/>
        <pt x="1069" y="348" on="0"/>
        <pt x="998" y="158" on="0"/>
        <pt x="864" y="31" on="0"/>
        <pt x="669" y="-34" on="0"/>
        <pt x="544" y="-34" on="1"/>
        <pt x="433" y="-34" on="0"/>
        <pt x="232" y="33" on="0"/>
        <pt x="157" y="107" on="1"/>
        <pt x="121" y="142" on="0"/>
        <pt x="74" y="227" on="0"/>
        <pt x="74" y="263" on="1"/>
        <pt x="74" y="287" on="0"/>
        <pt x="96" y="333" on="0"/>
        <pt x="132" y="368" on="0"/>
        <pt x="179" y="389" on="0"/>
        <pt x="203" y="389" on="1"/>
        <pt x="224" y="389" on="0"/>
        <pt x="260" y="367" on="0"/>
        <pt x="295" y="336" on="0"/>
        <pt x="328" y="300" on="0"/>
        <pt x="346" y="286" on="1"/>
        <pt x="382" y="257" on="0"/>
        <pt x="462" y="224" on="0"/>
        <pt x="510" y="224" on="1"/>
        <pt x="608" y="224" on="0"/>
        <pt x="699" y="344" on="0"/>
        <pt x="699" y="472" on="1"/>
      </contour>
    </TTGlyph>
    <TTGlyph name="K" xMin="157" yMin="0" xMax="1315" yMax="1453">
      <contour>
        <pt x="526" y="815" on="1"/>
        <pt x="913" y="1322" on="1"/>
        <pt x="957" y="1380" on="0"/>
        <pt x="1041" y="1452" on="0"/>
        <pt x="1096" y="1452" on="1"/>
        <pt x="1127" y="1452" on="0"/>
        <pt x="1187" y="1429" on="0"/>
        <pt x="1235" y="1387" on="0"/>
        <pt x="1265" y="1331" on="0"/>
        <pt x="1265" y="1298" on="1"/>
        <pt x="1265" y="1278" on="0"/>
        <pt x="1247" y="1235" on="0"/>
        <pt x="1220" y="1192" on="0"/>
        <pt x="1185" y="1149" on="0"/>
        <pt x="1169" y="1130" on="1"/>
        <pt x="870" y="781" on="1"/>
        <pt x="1218" y="344" on="1"/>
        <pt x="1235" y="323" on="0"/>
        <pt x="1269" y="276" on="0"/>
        <pt x="1297" y="229" on="0"/>
        <pt x="1315" y="184" on="0"/>
        <pt x="1315" y="163" on="1"/>
        <pt x="1315" y="130" on="0"/>
        <pt x="1284" y="71" on="0"/>
        <pt x="1234" y="26" on="0"/>
        <pt x="1171" y="0" on="0"/>
        <pt x="1140" y="0" on="1"/>
        <pt x="1104" y="0" on="0"/>
        <pt x="1042" y="32" on="0"/>
        <pt x="987" y="82" on="0"/>
        <pt x="940" y="142" on="0"/>
        <pt x="919" y="171" on="1"/>
        <pt x="526" y="704" on="1"/>
        <pt x="528" y="195" on="1"/>
        <pt x="528" y="154" on="0"/>
        <pt x="499" y="83" on="0"/>
        <pt x="448" y="30" on="0"/>
        <pt x="381" y="0" on="0"/>
        <pt x="342" y="0" on="1"/>
        <pt x="303" y="0" on="0"/>
        <pt x="236" y="30" on="0"/>
        <pt x="186" y="83" on="0"/>
        <pt x="157" y="154" on="0"/>
        <pt x="157" y="195" on="1"/>
        <pt x="157" y="1258" on="1"/>
        <pt x="157" y="1299" on="0"/>
        <pt x="186" y="1370" on="0"/>
        <pt x="236" y="1423" on="0"/>
        <pt x="303" y="1453" on="0"/>
        <pt x="342" y="1453" on="1"/>
        <pt x="379" y="1453" on="0"/>
        <pt x="447" y="1423" on="0"/>
        <pt x="498" y="1370" on="0"/>
        <pt x="528" y="1299" on="0"/>
        <pt x="528" y="1258" on="1"/>
      </contour>
    </TTGlyph>
    <TTGlyph name="L" xMin="152" yMin="0" xMax="1156" yMax="1453">
      <contour>
        <pt x="1023" y="266" on="1"/>
        <pt x="1050" y="266" on="0"/>
        <pt x="1099" y="245" on="0"/>
        <pt x="1135" y="209" on="0"/>
        <pt x="1156" y="160" on="0"/>
        <pt x="1156" y="133" on="1"/>
        <pt x="1156" y="106" on="0"/>
        <pt x="1135" y="57" on="0"/>
        <pt x="1099" y="21" on="0"/>
        <pt x="1050" y="0" on="0"/>
        <pt x="1023" y="0" on="1"/>
        <pt x="338" y="0" on="1"/>
        <pt x="284" y="0" on="0"/>
        <pt x="212" y="47" on="0"/>
        <pt x="169" y="124" on="0"/>
        <pt x="152" y="222" on="0"/>
        <pt x="152" y="273" on="1"/>
        <pt x="152" y="1258" on="1"/>
        <pt x="152" y="1299" on="0"/>
        <pt x="181" y="1370" on="0"/>
        <pt x="231" y="1423" on="0"/>
        <pt x="298" y="1453" on="0"/>
        <pt x="337" y="1453" on="1"/>
        <pt x="376" y="1453" on="0"/>
        <pt x="443" y="1423" on="0"/>
        <pt x="494" y="1370" on="0"/>
        <pt x="523" y="1299" on="0"/>
        <pt x="523" y="1258" on="1"/>
        <pt x="524" y="266" on="1"/>
      </contour>
    </TTGlyph>
    <TTGlyph name="Lslash" xMin="-55" yMin="0" xMax="1156" yMax="1453">
      <contour>
        <pt x="1023" y="266" on="1"/>
        <pt x="1050" y="266" on="0"/>
        <pt x="1099" y="245" on="0"/>
        <pt x="1135" y="209" on="0"/>
        <pt x="1156" y="160" on="0"/>
        <pt x="1156" y="133" on="1"/>
        <pt x="1156" y="106" on="0"/>
        <pt x="1135" y="57" on="0"/>
        <pt x="1099" y="21" on="0"/>
        <pt x="1050" y="0" on="0"/>
        <pt x="1023" y="0" on="1"/>
        <pt x="338" y="0" on="1"/>
        <pt x="284" y="0" on="0"/>
        <pt x="212" y="47" on="0"/>
        <pt x="169" y="124" on="0"/>
        <pt x="152" y="222" on="0"/>
        <pt x="152" y="273" on="1"/>
        <pt x="152" y="657" on="1"/>
        <pt x="67" y="630" on="1"/>
        <pt x="55" y="626" on="0"/>
        <pt x="43" y="626" on="1"/>
        <pt x="22" y="626" on="0"/>
        <pt x="-14" y="644" on="0"/>
        <pt x="-40" y="675" on="0"/>
        <pt x="-55" y="715" on="0"/>
        <pt x="-55" y="737" on="1"/>
        <pt x="-55" y="764" on="0"/>
        <pt x="-23" y="815" on="0"/>
        <pt x="10" y="826" on="1"/>
        <pt x="152" y="872" on="1"/>
        <pt x="152" y="1258" on="1"/>
        <pt x="152" y="1299" on="0"/>
        <pt x="181" y="1370" on="0"/>
        <pt x="231" y="1423" on="0"/>
        <pt x="298" y="1453" on="0"/>
        <pt x="337" y="1453" on="1"/>
        <pt x="376" y="1453" on="0"/>
        <pt x="443" y="1423" on="0"/>
        <pt x="494" y="1370" on="0"/>
        <pt x="523" y="1299" on="0"/>
        <pt x="523" y="1258" on="1"/>
        <pt x="523" y="994" on="1"/>
        <pt x="712" y="1056" on="1"/>
        <pt x="727" y="1061" on="0"/>
        <pt x="743" y="1061" on="1"/>
        <pt x="764" y="1061" on="0"/>
        <pt x="800" y="1042" on="0"/>
        <pt x="826" y="1010" on="0"/>
        <pt x="840" y="971" on="0"/>
        <pt x="840" y="951" on="1"/>
        <pt x="840" y="919" on="0"/>
        <pt x="808" y="872" on="0"/>
        <pt x="775" y="861" on="1"/>
        <pt x="523" y="778" on="1"/>
        <pt x="523" y="266" on="1"/>
      </contour>
    </TTGlyph>
    <TTGlyph name="M" xMin="170" yMin="-1" xMax="1885" yMax="1453">
      <contour>
        <pt x="1592" y="1103" on="1"/>
        <pt x="1503" y="883" on="0"/>
        <pt x="1433" y="711" on="1"/>
        <pt x="1403" y="637" on="0"/>
        <pt x="1347" y="497" on="0"/>
        <pt x="1302" y="387" on="0"/>
        <pt x="1288" y="353" on="1"/>
        <pt x="1275" y="320" on="1"/>
        <pt x="1254" y="269" on="0"/>
        <pt x="1207" y="177" on="0"/>
        <pt x="1147" y="108" on="0"/>
        <pt x="1072" y="67" on="0"/>
        <pt x="1023" y="67" on="1"/>
        <pt x="978" y="67" on="0"/>
        <pt x="910" y="98" on="0"/>
        <pt x="853" y="161" on="0"/>
        <pt x="803" y="256" on="0"/>
        <pt x="778" y="319" on="1"/>
        <pt x="463" y="1099" on="1"/>
        <pt x="463" y="145" on="1"/>
        <pt x="463" y="115" on="0"/>
        <pt x="440" y="61" on="0"/>
        <pt x="400" y="22" on="0"/>
        <pt x="346" y="-1" on="0"/>
        <pt x="316" y="-1" on="1"/>
        <pt x="286" y="-1" on="0"/>
        <pt x="232" y="22" on="0"/>
        <pt x="193" y="61" on="0"/>
        <pt x="170" y="115" on="0"/>
        <pt x="170" y="145" on="1"/>
        <pt x="170" y="1068" on="1"/>
        <pt x="170" y="1155" on="0"/>
        <pt x="188" y="1298" on="0"/>
        <pt x="243" y="1398" on="0"/>
        <pt x="342" y="1453" on="0"/>
        <pt x="423" y="1453" on="1"/>
        <pt x="481" y="1453" on="0"/>
        <pt x="568" y="1413" on="0"/>
        <pt x="643" y="1324" on="0"/>
        <pt x="714" y="1182" on="0"/>
        <pt x="756" y="1081" on="1"/>
        <pt x="1023" y="436" on="1"/>
        <pt x="1031" y="436" on="1"/>
        <pt x="1301" y="1081" on="1"/>
        <pt x="1337" y="1167" on="0"/>
        <pt x="1406" y="1305" on="0"/>
        <pt x="1484" y="1401" on="0"/>
        <pt x="1576" y="1453" on="0"/>
        <pt x="1635" y="1453" on="1"/>
        <pt x="1699" y="1453" on="0"/>
        <pt x="1794" y="1415" on="0"/>
        <pt x="1855" y="1331" on="0"/>
        <pt x="1885" y="1198" on="0"/>
        <pt x="1885" y="1104" on="1"/>
        <pt x="1885" y="145" on="1"/>
        <pt x="1885" y="115" on="0"/>
        <pt x="1862" y="61" on="0"/>
        <pt x="1822" y="22" on="0"/>
        <pt x="1768" y="-1" on="0"/>
        <pt x="1738" y="-1" on="1"/>
        <pt x="1708" y="-1" on="0"/>
        <pt x="1654" y="22" on="0"/>
        <pt x="1615" y="61" on="0"/>
        <pt x="1592" y="115" on="0"/>
        <pt x="1592" y="145" on="1"/>
      </contour>
    </TTGlyph>
    <TTGlyph name="N" xMin="144" yMin="0" xMax="1454" yMax="1453">
      <contour>
        <pt x="458" y="157" on="1"/>
        <pt x="458" y="124" on="0"/>
        <pt x="433" y="67" on="0"/>
        <pt x="390" y="25" on="0"/>
        <pt x="333" y="0" on="0"/>
        <pt x="300" y="0" on="1"/>
        <pt x="267" y="0" on="0"/>
        <pt x="210" y="25" on="0"/>
        <pt x="168" y="67" on="0"/>
        <pt x="144" y="124" on="0"/>
        <pt x="144" y="157" on="1"/>
        <pt x="144" y="1249" on="1"/>
        <pt x="144" y="1298" on="0"/>
        <pt x="173" y="1374" on="0"/>
        <pt x="222" y="1426" on="0"/>
        <pt x="288" y="1453" on="0"/>
        <pt x="326" y="1453" on="1"/>
        <pt x="358" y="1453" on="0"/>
        <pt x="419" y="1428" on="0"/>
        <pt x="475" y="1386" on="0"/>
        <pt x="527" y="1329" on="0"/>
        <pt x="551" y="1297" on="1"/>
        <pt x="1141" y="497" on="1"/>
        <pt x="1141" y="1296" on="1"/>
        <pt x="1141" y="1329" on="0"/>
        <pt x="1165" y="1386" on="0"/>
        <pt x="1207" y="1428" on="0"/>
        <pt x="1264" y="1453" on="0"/>
        <pt x="1297" y="1453" on="1"/>
        <pt x="1330" y="1453" on="0"/>
        <pt x="1387" y="1428" on="0"/>
        <pt x="1429" y="1386" on="0"/>
        <pt x="1454" y="1329" on="0"/>
        <pt x="1454" y="1296" on="1"/>
        <pt x="1454" y="278" on="1"/>
        <pt x="1454" y="223" on="0"/>
        <pt x="1442" y="122" on="0"/>
        <pt x="1404" y="46" on="0"/>
        <pt x="1334" y="0" on="0"/>
        <pt x="1276" y="0" on="1"/>
        <pt x="1245" y="0" on="0"/>
        <pt x="1186" y="24" on="0"/>
        <pt x="1131" y="66" on="0"/>
        <pt x="1079" y="123" on="0"/>
        <pt x="1054" y="156" on="1"/>
        <pt x="458" y="966" on="1"/>
      </contour>
    </TTGlyph>
    <TTGlyph name="Ntilde" xMin="144" yMin="0" xMax="1454" yMax="1871">
      <component glyphName="N" x="0" y="0" flags="0x1204"/>
      <component glyphName="tilde" x="524" y="450" flags="0x1004"/>
    </TTGlyph>
    <TTGlyph name="O" xMin="91" yMin="-35" xMax="1521" yMax="1486">
      <contour>
        <pt x="480" y="725" on="1"/>
        <pt x="480" y="477" on="0"/>
        <pt x="638" y="224" on="0"/>
        <pt x="806" y="224" on="1"/>
        <pt x="971" y="224" on="0"/>
        <pt x="1133" y="476" on="0"/>
        <pt x="1133" y="725" on="1"/>
        <pt x="1133" y="845" on="0"/>
        <pt x="1094" y="1032" on="0"/>
        <pt x="1014" y="1160" on="0"/>
        <pt x="891" y="1227" on="0"/>
        <pt x="806" y="1227" on="1"/>
        <pt x="722" y="1227" on="0"/>
        <pt x="599" y="1160" on="0"/>
        <pt x="519" y="1032" on="0"/>
        <pt x="480" y="845" on="0"/>
      </contour>
      <contour>
        <pt x="91" y="725" on="1"/>
        <pt x="91" y="890" on="0"/>
        <pt x="180" y="1170" on="0"/>
        <pt x="358" y="1372" on="0"/>
        <pt x="626" y="1486" on="0"/>
        <pt x="806" y="1486" on="1"/>
        <pt x="981" y="1486" on="0"/>
        <pt x="1249" y="1376" on="0"/>
        <pt x="1429" y="1175" on="0"/>
        <pt x="1521" y="895" on="0"/>
        <pt x="1521" y="725" on="1"/>
        <pt x="1521" y="558" on="0"/>
        <pt x="1431" y="278" on="0"/>
        <pt x="1251" y="77" on="0"/>
        <pt x="983" y="-35" on="0"/>
        <pt x="806" y="-35" on="1"/>
        <pt x="633" y="-35" on="0"/>
        <pt x="366" y="73" on="0"/>
        <pt x="184" y="272" on="0"/>
        <pt x="91" y="552" on="0"/>
      </contour>
    </TTGlyph>
    <TTGlyph name="OE" xMin="86" yMin="-18" xMax="1910" yMax="1469">
      <contour>
        <pt x="996" y="1209" on="1"/>
        <pt x="983" y="1214" on="0"/>
        <pt x="864" y="1231" on="0"/>
        <pt x="763" y="1231" on="1"/>
        <pt x="683" y="1231" on="0"/>
        <pt x="566" y="1161" on="0"/>
        <pt x="489" y="1031" on="0"/>
        <pt x="450" y="846" on="0"/>
        <pt x="450" y="731" on="1"/>
        <pt x="450" y="617" on="0"/>
        <pt x="484" y="429" on="0"/>
        <pt x="557" y="294" on="0"/>
        <pt x="675" y="220" on="0"/>
        <pt x="761" y="220" on="1"/>
        <pt x="808" y="220" on="0"/>
        <pt x="890" y="226" on="0"/>
        <pt x="952" y="234" on="0"/>
        <pt x="992" y="243" on="0"/>
        <pt x="996" y="246" on="1"/>
      </contour>
      <contour>
        <pt x="1351" y="1195" on="1"/>
        <pt x="1351" y="868" on="1"/>
        <pt x="1645" y="868" on="1"/>
        <pt x="1681" y="868" on="0"/>
        <pt x="1753" y="860" on="0"/>
        <pt x="1810" y="833" on="0"/>
        <pt x="1846" y="781" on="0"/>
        <pt x="1846" y="739" on="1"/>
        <pt x="1846" y="700" on="0"/>
        <pt x="1814" y="650" on="0"/>
        <pt x="1755" y="622" on="0"/>
        <pt x="1670" y="612" on="0"/>
        <pt x="1618" y="612" on="1"/>
        <pt x="1351" y="612" on="1"/>
        <pt x="1351" y="257" on="1"/>
        <pt x="1677" y="257" on="1"/>
        <pt x="1718" y="257" on="0"/>
        <pt x="1802" y="249" on="0"/>
        <pt x="1869" y="223" on="0"/>
        <pt x="1910" y="172" on="0"/>
        <pt x="1910" y="128" on="1"/>
        <pt x="1910" y="93" on="0"/>
        <pt x="1885" y="44" on="0"/>
        <pt x="1839" y="13" on="0"/>
        <pt x="1773" y="0" on="0"/>
        <pt x="1733" y="0" on="1"/>
        <pt x="1061" y="0" on="1"/>
        <pt x="1050" y="0" on="0"/>
        <pt x="1014" y="-2" on="0"/>
        <pt x="968" y="-6" on="0"/>
        <pt x="914" y="-10" on="0"/>
        <pt x="887" y="-11" on="1"/>
        <pt x="824" y="-15" on="1"/>
        <pt x="774" y="-18" on="0"/>
        <pt x="732" y="-18" on="1"/>
        <pt x="587" y="-18" on="0"/>
        <pt x="349" y="82" on="0"/>
        <pt x="179" y="272" on="0"/>
        <pt x="86" y="549" on="0"/>
        <pt x="86" y="725" on="1"/>
        <pt x="86" y="899" on="0"/>
        <pt x="176" y="1175" on="0"/>
        <pt x="350" y="1367" on="0"/>
        <pt x="604" y="1469" on="0"/>
        <pt x="768" y="1469" on="1"/>
        <pt x="812" y="1469" on="0"/>
        <pt x="914" y="1464" on="0"/>
        <pt x="1009" y="1457" on="0"/>
        <pt x="1088" y="1452" on="0"/>
        <pt x="1107" y="1452" on="1"/>
        <pt x="1716" y="1452" on="1"/>
        <pt x="1751" y="1452" on="0"/>
        <pt x="1816" y="1440" on="0"/>
        <pt x="1866" y="1412" on="0"/>
        <pt x="1895" y="1362" on="0"/>
        <pt x="1895" y="1324" on="1"/>
        <pt x="1895" y="1284" on="0"/>
        <pt x="1864" y="1234" on="0"/>
        <pt x="1805" y="1206" on="0"/>
        <pt x="1719" y="1195" on="0"/>
        <pt x="1666" y="1195" on="1"/>
      </contour>
    </TTGlyph>
    <TTGlyph name="Oacute" xMin="91" yMin="-35" xMax="1521" yMax="2053">
      <component glyphName="O" x="0" y="0" flags="0x1204"/>
      <component glyphName="acute" x="509" y="450" flags="0x1004"/>
    </TTGlyph>
    <TTGlyph name="Ocircumflex" xMin="91" yMin="-35" xMax="1521" yMax="2041">
      <component glyphName="O" x="0" y="0" flags="0x1204"/>
      <component glyphName="circumflex" x="525" y="450" flags="0x1004"/>
    </TTGlyph>
    <TTGlyph name="Odieresis" xMin="91" yMin="-35" xMax="1521" yMax="1908">
      <component glyphName="O" x="0" y="0" flags="0x1204"/>
      <component glyphName="dieresis" x="521" y="450" flags="0x1004"/>
    </TTGlyph>
    <TTGlyph name="Ograve" xMin="91" yMin="-35" xMax="1521" yMax="2051">
      <component glyphName="O" x="0" y="0" flags="0x1204"/>
      <component glyphName="grave" x="538" y="450" flags="0x1004"/>
    </TTGlyph>
    <TTGlyph name="Oslash" xMin="91" yMin="-159" xMax="1521" yMax="1604">
      <contour>
        <pt x="1251" y="1345" on="1"/>
        <pt x="1385" y="1248" on="0"/>
        <pt x="1521" y="932" on="0"/>
        <pt x="1521" y="725" on="1"/>
        <pt x="1521" y="556" on="0"/>
        <pt x="1430" y="276" on="0"/>
        <pt x="1250" y="76" on="0"/>
        <pt x="982" y="-35" on="0"/>
        <pt x="806" y="-35" on="1"/>
        <pt x="727" y="-35" on="0"/>
        <pt x="590" y="-11" on="0"/>
        <pt x="528" y="12" on="1"/>
        <pt x="473" y="-78" on="1"/>
        <pt x="453" y="-111" on="0"/>
        <pt x="412" y="-159" on="0"/>
        <pt x="380" y="-159" on="1"/>
        <pt x="343" y="-159" on="0"/>
        <pt x="287" y="-113" on="0"/>
        <pt x="287" y="-72" on="1"/>
        <pt x="287" y="-52" on="0"/>
        <pt x="304" y="-7" on="0"/>
        <pt x="316" y="13" on="1"/>
        <pt x="369" y="102" on="1"/>
        <pt x="230" y="196" on="0"/>
        <pt x="91" y="518" on="0"/>
        <pt x="91" y="725" on="1"/>
        <pt x="91" y="891" on="0"/>
        <pt x="181" y="1170" on="0"/>
        <pt x="359" y="1373" on="0"/>
        <pt x="627" y="1486" on="0"/>
        <pt x="806" y="1486" on="1"/>
        <pt x="888" y="1486" on="0"/>
        <pt x="1027" y="1461" on="0"/>
        <pt x="1090" y="1438" on="1"/>
        <pt x="1159" y="1556" on="1"/>
        <pt x="1173" y="1580" on="0"/>
        <pt x="1215" y="1604" on="0"/>
        <pt x="1240" y="1604" on="1"/>
        <pt x="1258" y="1604" on="0"/>
        <pt x="1292" y="1591" on="0"/>
        <pt x="1317" y="1568" on="0"/>
        <pt x="1333" y="1536" on="0"/>
        <pt x="1333" y="1517" on="1"/>
        <pt x="1333" y="1496" on="0"/>
        <pt x="1315" y="1451" on="0"/>
        <pt x="1303" y="1431" on="1"/>
      </contour>
      <contour>
        <pt x="1149" y="725" on="1"/>
        <pt x="1149" y="767" on="0"/>
        <pt x="1136" y="849" on="0"/>
        <pt x="1108" y="925" on="0"/>
        <pt x="1064" y="989" on="0"/>
        <pt x="1033" y="1013" on="1"/>
        <pt x="681" y="251" on="1"/>
        <pt x="710" y="234" on="0"/>
        <pt x="776" y="224" on="0"/>
        <pt x="815" y="224" on="1"/>
        <pt x="982" y="224" on="0"/>
        <pt x="1149" y="483" on="0"/>
      </contour>
      <contour>
        <pt x="464" y="725" on="1"/>
        <pt x="464" y="686" on="0"/>
        <pt x="478" y="599" on="0"/>
        <pt x="507" y="519" on="0"/>
        <pt x="553" y="452" on="0"/>
        <pt x="586" y="434" on="1"/>
        <pt x="937" y="1197" on="1"/>
        <pt x="911" y="1211" on="0"/>
        <pt x="851" y="1226" on="0"/>
        <pt x="819" y="1226" on="1"/>
        <pt x="636" y="1226" on="0"/>
        <pt x="464" y="977" on="0"/>
      </contour>
    </TTGlyph>
    <TTGlyph name="Otilde" xMin="91" yMin="-35" xMax="1521" yMax="1871">
      <component glyphName="O" x="0" y="0" flags="0x1204"/>
      <component glyphName="tilde" x="531" y="450" flags="0x1004"/>
    </TTGlyph>
    <TTGlyph name="P" xMin="152" yMin="0" xMax="1343" yMax="1453">
      <contour>
        <pt x="524" y="195" on="1"/>
        <pt x="524" y="154" on="0"/>
        <pt x="494" y="83" on="0"/>
        <pt x="443" y="30" on="0"/>
        <pt x="376" y="0" on="0"/>
        <pt x="337" y="0" on="1"/>
        <pt x="298" y="0" on="0"/>
        <pt x="231" y="30" on="0"/>
        <pt x="181" y="83" on="0"/>
        <pt x="152" y="154" on="0"/>
        <pt x="152" y="195" on="1"/>
        <pt x="152" y="1178" on="1"/>
        <pt x="152" y="1235" on="0"/>
        <pt x="167" y="1336" on="0"/>
        <pt x="216" y="1410" on="0"/>
        <pt x="311" y="1453" on="0"/>
        <pt x="392" y="1453" on="1"/>
        <pt x="753" y="1453" on="1"/>
        <pt x="868" y="1453" on="0"/>
        <pt x="1081" y="1413" on="0"/>
        <pt x="1245" y="1312" on="0"/>
        <pt x="1343" y="1138" on="0"/>
        <pt x="1343" y="1005" on="1"/>
        <pt x="1343" y="890" on="0"/>
        <pt x="1258" y="721" on="0"/>
        <pt x="1103" y="609" on="0"/>
        <pt x="885" y="554" on="0"/>
        <pt x="753" y="554" on="1"/>
        <pt x="524" y="554" on="1"/>
      </contour>
      <contour>
        <pt x="692" y="777" on="1"/>
        <pt x="756" y="777" on="0"/>
        <pt x="862" y="799" on="0"/>
        <pt x="937" y="850" on="0"/>
        <pt x="979" y="934" on="0"/>
        <pt x="979" y="1005" on="1"/>
        <pt x="979" y="1075" on="0"/>
        <pt x="939" y="1156" on="0"/>
        <pt x="868" y="1206" on="0"/>
        <pt x="769" y="1228" on="0"/>
        <pt x="709" y="1228" on="1"/>
        <pt x="524" y="1228" on="1"/>
        <pt x="524" y="777" on="1"/>
      </contour>
    </TTGlyph>
    <TTGlyph name="Q" xMin="91" yMin="-35" xMax="1570" yMax="1486">
      <contour>
        <pt x="91" y="725" on="1"/>
        <pt x="91" y="891" on="0"/>
        <pt x="180" y="1170" on="0"/>
        <pt x="359" y="1372" on="0"/>
        <pt x="627" y="1486" on="0"/>
        <pt x="806" y="1486" on="1"/>
        <pt x="979" y="1486" on="0"/>
        <pt x="1244" y="1381" on="0"/>
        <pt x="1423" y="1186" on="0"/>
        <pt x="1515" y="908" on="0"/>
        <pt x="1515" y="735" on="1"/>
        <pt x="1515" y="661" on="0"/>
        <pt x="1486" y="524" on="0"/>
        <pt x="1433" y="401" on="0"/>
        <pt x="1359" y="292" on="0"/>
        <pt x="1314" y="246" on="1"/>
        <pt x="1392" y="246" on="1"/>
        <pt x="1425" y="246" on="0"/>
        <pt x="1489" y="236" on="0"/>
        <pt x="1539" y="209" on="0"/>
        <pt x="1570" y="162" on="0"/>
        <pt x="1570" y="125" on="1"/>
        <pt x="1570" y="63" on="0"/>
        <pt x="1486" y="2" on="0"/>
        <pt x="1401" y="-1" on="1"/>
        <pt x="1042" y="-15" on="1"/>
        <pt x="1015" y="-17" on="0"/>
        <pt x="974" y="-17" on="0"/>
        <pt x="966" y="-17" on="1"/>
        <pt x="920" y="-24" on="1"/>
        <pt x="882" y="-30" on="0"/>
        <pt x="832" y="-35" on="0"/>
        <pt x="811" y="-35" on="1"/>
        <pt x="636" y="-35" on="0"/>
        <pt x="367" y="73" on="0"/>
        <pt x="185" y="272" on="0"/>
        <pt x="91" y="553" on="0"/>
      </contour>
      <contour>
        <pt x="480" y="725" on="1"/>
        <pt x="480" y="477" on="0"/>
        <pt x="638" y="224" on="0"/>
        <pt x="806" y="224" on="1"/>
        <pt x="971" y="224" on="0"/>
        <pt x="1133" y="476" on="0"/>
        <pt x="1133" y="725" on="1"/>
        <pt x="1133" y="845" on="0"/>
        <pt x="1094" y="1032" on="0"/>
        <pt x="1014" y="1160" on="0"/>
        <pt x="891" y="1227" on="0"/>
        <pt x="806" y="1227" on="1"/>
        <pt x="722" y="1227" on="0"/>
        <pt x="599" y="1160" on="0"/>
        <pt x="519" y="1032" on="0"/>
        <pt x="480" y="845" on="0"/>
      </contour>
    </TTGlyph>
    <TTGlyph name="R" xMin="155" yMin="0" xMax="1347" yMax="1453">
      <contour>
        <pt x="526" y="195" on="1"/>
        <pt x="526" y="154" on="0"/>
        <pt x="497" y="83" on="0"/>
        <pt x="446" y="30" on="0"/>
        <pt x="379" y="0" on="0"/>
        <pt x="340" y="0" on="1"/>
        <pt x="301" y="0" on="0"/>
        <pt x="234" y="30" on="0"/>
        <pt x="184" y="83" on="0"/>
        <pt x="155" y="154" on="0"/>
        <pt x="155" y="195" on="1"/>
        <pt x="155" y="1269" on="1"/>
        <pt x="155" y="1315" on="0"/>
        <pt x="192" y="1384" on="0"/>
        <pt x="254" y="1430" on="0"/>
        <pt x="337" y="1453" on="0"/>
        <pt x="383" y="1453" on="1"/>
        <pt x="784" y="1453" on="1"/>
        <pt x="895" y="1453" on="0"/>
        <pt x="1099" y="1424" on="0"/>
        <pt x="1254" y="1344" on="0"/>
        <pt x="1347" y="1202" on="0"/>
        <pt x="1347" y="1088" on="1"/>
        <pt x="1347" y="1026" on="0"/>
        <pt x="1313" y="915" on="0"/>
        <pt x="1237" y="826" on="0"/>
        <pt x="1114" y="763" on="0"/>
        <pt x="1025" y="748" on="1"/>
        <pt x="1025" y="744" on="1"/>
        <pt x="1089" y="736" on="0"/>
        <pt x="1180" y="705" on="0"/>
        <pt x="1244" y="654" on="0"/>
        <pt x="1284" y="582" on="0"/>
        <pt x="1310" y="484" on="0"/>
        <pt x="1326" y="359" on="0"/>
        <pt x="1333" y="280" on="1"/>
        <pt x="1335" y="258" on="0"/>
        <pt x="1337" y="217" on="0"/>
        <pt x="1337" y="197" on="1"/>
        <pt x="1337" y="154" on="0"/>
        <pt x="1321" y="82" on="0"/>
        <pt x="1281" y="30" on="0"/>
        <pt x="1211" y="1" on="0"/>
        <pt x="1156" y="1" on="1"/>
        <pt x="1106" y="1" on="0"/>
        <pt x="1039" y="47" on="0"/>
        <pt x="995" y="127" on="0"/>
        <pt x="972" y="232" on="0"/>
        <pt x="965" y="292" on="1"/>
        <pt x="955" y="379" on="0"/>
        <pt x="934" y="496" on="0"/>
        <pt x="888" y="568" on="0"/>
        <pt x="803" y="598" on="0"/>
        <pt x="729" y="598" on="1"/>
        <pt x="526" y="598" on="1"/>
      </contour>
      <contour>
        <pt x="680" y="830" on="1"/>
        <pt x="734" y="830" on="0"/>
        <pt x="842" y="843" on="0"/>
        <pt x="929" y="884" on="0"/>
        <pt x="983" y="963" on="0"/>
        <pt x="983" y="1029" on="1"/>
        <pt x="983" y="1105" on="0"/>
        <pt x="931" y="1181" on="0"/>
        <pt x="845" y="1219" on="0"/>
        <pt x="732" y="1228" on="0"/>
        <pt x="671" y="1228" on="1"/>
        <pt x="520" y="1228" on="1"/>
        <pt x="520" y="830" on="1"/>
      </contour>
    </TTGlyph>
    <TTGlyph name="S" xMin="90" yMin="-35" xMax="1293" yMax="1486">
      <contour>
        <pt x="461" y="1073" on="1"/>
        <pt x="461" y="1025" on="0"/>
        <pt x="525" y="959" on="0"/>
        <pt x="628" y="911" on="0"/>
        <pt x="758" y="875" on="0"/>
        <pt x="824" y="856" on="1"/>
        <pt x="930" y="824" on="0"/>
        <pt x="1103" y="752" on="0"/>
        <pt x="1226" y="652" on="0"/>
        <pt x="1293" y="515" on="0"/>
        <pt x="1293" y="419" on="1"/>
        <pt x="1293" y="314" on="0"/>
        <pt x="1210" y="146" on="0"/>
        <pt x="1054" y="28" on="0"/>
        <pt x="833" y="-35" on="0"/>
        <pt x="695" y="-35" on="1"/>
        <pt x="624" y="-35" on="0"/>
        <pt x="480" y="-18" on="0"/>
        <pt x="346" y="14" on="0"/>
        <pt x="228" y="60" on="0"/>
        <pt x="140" y="118" on="0"/>
        <pt x="90" y="187" on="0"/>
        <pt x="90" y="226" on="1"/>
        <pt x="90" y="251" on="0"/>
        <pt x="111" y="299" on="0"/>
        <pt x="144" y="338" on="0"/>
        <pt x="185" y="362" on="0"/>
        <pt x="205" y="362" on="1"/>
        <pt x="223" y="362" on="0"/>
        <pt x="257" y="350" on="0"/>
        <pt x="292" y="333" on="0"/>
        <pt x="329" y="313" on="0"/>
        <pt x="350" y="305" on="1"/>
        <pt x="419" y="274" on="0"/>
        <pt x="591" y="224" on="0"/>
        <pt x="685" y="224" on="1"/>
        <pt x="736" y="224" on="0"/>
        <pt x="827" y="243" on="0"/>
        <pt x="896" y="282" on="0"/>
        <pt x="936" y="344" on="0"/>
        <pt x="936" y="388" on="1"/>
        <pt x="936" y="421" on="0"/>
        <pt x="912" y="473" on="0"/>
        <pt x="870" y="512" on="0"/>
        <pt x="814" y="541" on="0"/>
        <pt x="783" y="552" on="1"/>
        <pt x="738" y="568" on="1"/>
        <pt x="725" y="572" on="0"/>
        <pt x="701" y="581" on="0"/>
        <pt x="687" y="585" on="1"/>
        <pt x="635" y="600" on="1"/>
        <pt x="618" y="604" on="0"/>
        <pt x="594" y="611" on="0"/>
        <pt x="575" y="618" on="0"/>
        <pt x="557" y="625" on="0"/>
        <pt x="545" y="629" on="1"/>
        <pt x="451" y="662" on="1"/>
        <pt x="360" y="695" on="0"/>
        <pt x="230" y="767" on="0"/>
        <pt x="148" y="857" on="0"/>
        <pt x="109" y="972" on="0"/>
        <pt x="109" y="1048" on="1"/>
        <pt x="109" y="1148" on="0"/>
        <pt x="192" y="1310" on="0"/>
        <pt x="347" y="1424" on="0"/>
        <pt x="568" y="1486" on="0"/>
        <pt x="706" y="1486" on="1"/>
        <pt x="756" y="1486" on="0"/>
        <pt x="874" y="1473" on="0"/>
        <pt x="992" y="1447" on="0"/>
        <pt x="1101" y="1406" on="0"/>
        <pt x="1185" y="1351" on="0"/>
        <pt x="1236" y="1281" on="0"/>
        <pt x="1236" y="1238" on="1"/>
        <pt x="1236" y="1213" on="0"/>
        <pt x="1217" y="1171" on="0"/>
        <pt x="1185" y="1141" on="0"/>
        <pt x="1142" y="1124" on="0"/>
        <pt x="1119" y="1124" on="1"/>
        <pt x="1089" y="1124" on="0"/>
        <pt x="1064" y="1137" on="1"/>
        <pt x="1017" y="1161" on="0"/>
        <pt x="936" y="1195" on="0"/>
        <pt x="856" y="1217" on="0"/>
        <pt x="771" y="1227" on="0"/>
        <pt x="720" y="1227" on="1"/>
        <pt x="672" y="1227" on="0"/>
        <pt x="579" y="1210" on="0"/>
        <pt x="506" y="1173" on="0"/>
        <pt x="461" y="1115" on="0"/>
      </contour>
    </TTGlyph>
    <TTGlyph name="Scaron" xMin="90" yMin="-35" xMax="1293" yMax="2016">
      <component glyphName="S" x="0" y="0" flags="0x1204"/>
      <component glyphName="caron" x="408" y="441" flags="0x1004"/>
    </TTGlyph>
    <TTGlyph name="T" xMin="18" yMin="0" xMax="1217" yMax="1453">
      <contour>
        <pt x="161" y="1188" on="1"/>
        <pt x="132" y="1188" on="0"/>
        <pt x="80" y="1209" on="0"/>
        <pt x="41" y="1245" on="0"/>
        <pt x="18" y="1293" on="0"/>
        <pt x="18" y="1320" on="1"/>
        <pt x="18" y="1347" on="0"/>
        <pt x="41" y="1396" on="0"/>
        <pt x="80" y="1432" on="0"/>
        <pt x="132" y="1453" on="0"/>
        <pt x="161" y="1453" on="1"/>
        <pt x="1074" y="1453" on="1"/>
        <pt x="1103" y="1453" on="0"/>
        <pt x="1155" y="1432" on="0"/>
        <pt x="1194" y="1396" on="0"/>
        <pt x="1217" y="1347" on="0"/>
        <pt x="1217" y="1320" on="1"/>
        <pt x="1217" y="1293" on="0"/>
        <pt x="1194" y="1245" on="0"/>
        <pt x="1155" y="1209" on="0"/>
        <pt x="1103" y="1188" on="0"/>
        <pt x="1074" y="1188" on="1"/>
        <pt x="806" y="1188" on="1"/>
        <pt x="806" y="195" on="1"/>
        <pt x="806" y="154" on="0"/>
        <pt x="777" y="83" on="0"/>
        <pt x="726" y="30" on="0"/>
        <pt x="659" y="0" on="0"/>
        <pt x="620" y="0" on="1"/>
        <pt x="581" y="0" on="0"/>
        <pt x="514" y="30" on="0"/>
        <pt x="464" y="83" on="0"/>
        <pt x="435" y="154" on="0"/>
        <pt x="435" y="195" on="1"/>
        <pt x="435" y="1188" on="1"/>
      </contour>
    </TTGlyph>
    <TTGlyph name="Thorn" xMin="152" yMin="4" xMax="1343" yMax="1481">
      <contour>
        <pt x="524" y="322" on="1"/>
        <pt x="524" y="281" on="1"/>
        <pt x="524" y="222" on="0"/>
        <pt x="501" y="120" on="0"/>
        <pt x="453" y="46" on="0"/>
        <pt x="379" y="4" on="0"/>
        <pt x="328" y="4" on="1"/>
        <pt x="232" y="4" on="0"/>
        <pt x="152" y="122" on="0"/>
        <pt x="152" y="231" on="1"/>
        <pt x="152" y="1228" on="1"/>
        <pt x="152" y="1275" on="0"/>
        <pt x="163" y="1366" on="0"/>
        <pt x="199" y="1437" on="0"/>
        <pt x="268" y="1481" on="0"/>
        <pt x="327" y="1481" on="1"/>
        <pt x="417" y="1481" on="0"/>
        <pt x="524" y="1373" on="0"/>
        <pt x="524" y="1264" on="1"/>
        <pt x="524" y="1218" on="1"/>
        <pt x="723" y="1218" on="1"/>
        <pt x="817" y="1218" on="0"/>
        <pt x="996" y="1201" on="0"/>
        <pt x="1070" y="1174" on="1"/>
        <pt x="1198" y="1126" on="0"/>
        <pt x="1343" y="925" on="0"/>
        <pt x="1343" y="773" on="1"/>
        <pt x="1343" y="661" on="0"/>
        <pt x="1261" y="492" on="0"/>
        <pt x="1108" y="379" on="0"/>
        <pt x="889" y="322" on="0"/>
        <pt x="753" y="322" on="1"/>
      </contour>
      <contour>
        <pt x="692" y="555" on="1"/>
        <pt x="756" y="555" on="0"/>
        <pt x="862" y="577" on="0"/>
        <pt x="937" y="628" on="0"/>
        <pt x="979" y="712" on="0"/>
        <pt x="979" y="773" on="1"/>
        <pt x="979" y="833" on="0"/>
        <pt x="939" y="914" on="0"/>
        <pt x="868" y="963" on="0"/>
        <pt x="769" y="985" on="0"/>
        <pt x="709" y="985" on="1"/>
        <pt x="524" y="985" on="1"/>
        <pt x="524" y="555" on="1"/>
      </contour>
    </TTGlyph>
    <TTGlyph name="U" xMin="144" yMin="-35" xMax="1396" yMax="1453">
      <contour>
        <pt x="1025" y="1258" on="1"/>
        <pt x="1025" y="1299" on="0"/>
        <pt x="1054" y="1370" on="0"/>
        <pt x="1104" y="1423" on="0"/>
        <pt x="1171" y="1453" on="0"/>
        <pt x="1210" y="1453" on="1"/>
        <pt x="1249" y="1453" on="0"/>
        <pt x="1316" y="1423" on="0"/>
        <pt x="1367" y="1370" on="0"/>
        <pt x="1396" y="1299" on="0"/>
        <pt x="1396" y="1258" on="1"/>
        <pt x="1396" y="492" on="1"/>
        <pt x="1396" y="360" on="0"/>
        <pt x="1303" y="163" on="0"/>
        <pt x="1136" y="31" on="0"/>
        <pt x="906" y="-35" on="0"/>
        <pt x="769" y="-35" on="1"/>
        <pt x="634" y="-35" on="0"/>
        <pt x="405" y="30" on="0"/>
        <pt x="238" y="160" on="0"/>
        <pt x="144" y="358" on="0"/>
        <pt x="144" y="492" on="1"/>
        <pt x="144" y="1258" on="1"/>
        <pt x="144" y="1299" on="0"/>
        <pt x="173" y="1370" on="0"/>
        <pt x="223" y="1423" on="0"/>
        <pt x="290" y="1453" on="0"/>
        <pt x="329" y="1453" on="1"/>
        <pt x="368" y="1453" on="0"/>
        <pt x="435" y="1423" on="0"/>
        <pt x="486" y="1370" on="0"/>
        <pt x="515" y="1299" on="0"/>
        <pt x="515" y="1258" on="1"/>
        <pt x="516" y="498" on="1"/>
        <pt x="516" y="426" on="0"/>
        <pt x="560" y="322" on="0"/>
        <pt x="631" y="256" on="0"/>
        <pt x="722" y="224" on="0"/>
        <pt x="769" y="224" on="1"/>
        <pt x="817" y="224" on="0"/>
        <pt x="908" y="256" on="0"/>
        <pt x="980" y="322" on="0"/>
        <pt x="1025" y="426" on="0"/>
        <pt x="1025" y="498" on="1"/>
      </contour>
    </TTGlyph>
    <TTGlyph name="Uacute" xMin="144" yMin="-35" xMax="1396" yMax="2053">
      <component glyphName="U" x="0" y="0" flags="0x1204"/>
      <component glyphName="acute" x="473" y="450" flags="0x1004"/>
    </TTGlyph>
    <TTGlyph name="Ucircumflex" xMin="144" yMin="-35" xMax="1396" yMax="2041">
      <component glyphName="U" x="0" y="0" flags="0x1204"/>
      <component glyphName="circumflex" x="489" y="450" flags="0x1004"/>
    </TTGlyph>
    <TTGlyph name="Udieresis" xMin="144" yMin="-35" xMax="1396" yMax="1908">
      <component glyphName="U" x="0" y="0" flags="0x1204"/>
      <component glyphName="dieresis" x="484" y="450" flags="0x1004"/>
    </TTGlyph>
    <TTGlyph name="Ugrave" xMin="144" yMin="-35" xMax="1396" yMax="2051">
      <component glyphName="U" x="0" y="0" flags="0x1204"/>
      <component glyphName="grave" x="501" y="450" flags="0x1004"/>
    </TTGlyph>
    <TTGlyph name="V" xMin="66" yMin="0" xMax="1360" yMax="1452">
      <contour>
        <pt x="715" y="271" on="1"/>
        <pt x="720" y="271" on="1"/>
        <pt x="1023" y="1289" on="1"/>
        <pt x="1035" y="1331" on="0"/>
        <pt x="1077" y="1392" on="0"/>
        <pt x="1128" y="1432" on="0"/>
        <pt x="1185" y="1452" on="0"/>
        <pt x="1213" y="1452" on="1"/>
        <pt x="1242" y="1452" on="0"/>
        <pt x="1295" y="1431" on="0"/>
        <pt x="1336" y="1391" on="0"/>
        <pt x="1360" y="1331" on="0"/>
        <pt x="1360" y="1292" on="1"/>
        <pt x="1360" y="1247" on="0"/>
        <pt x="1344" y="1196" on="1"/>
        <pt x="1084" y="393" on="1"/>
        <pt x="1051" y="292" on="0"/>
        <pt x="990" y="145" on="0"/>
        <pt x="910" y="47" on="0"/>
        <pt x="798" y="0" on="0"/>
        <pt x="715" y="0" on="1"/>
        <pt x="639" y="0" on="0"/>
        <pt x="535" y="34" on="0"/>
        <pt x="456" y="118" on="0"/>
        <pt x="392" y="258" on="0"/>
        <pt x="357" y="364" on="1"/>
        <pt x="78" y="1209" on="1"/>
        <pt x="71" y="1229" on="0"/>
        <pt x="66" y="1265" on="0"/>
        <pt x="66" y="1282" on="1"/>
        <pt x="66" y="1321" on="0"/>
        <pt x="93" y="1383" on="0"/>
        <pt x="139" y="1428" on="0"/>
        <pt x="197" y="1452" on="0"/>
        <pt x="229" y="1452" on="1"/>
        <pt x="256" y="1452" on="0"/>
        <pt x="311" y="1433" on="0"/>
        <pt x="360" y="1393" on="0"/>
        <pt x="400" y="1330" on="0"/>
        <pt x="413" y="1286" on="1"/>
      </contour>
    </TTGlyph>
    <TTGlyph name="W" xMin="37" yMin="0" xMax="2051" yMax="1454">
      <contour>
        <pt x="1043" y="1118" on="1"/>
        <pt x="831" y="291" on="1"/>
        <pt x="814" y="224" on="0"/>
        <pt x="769" y="116" on="0"/>
        <pt x="703" y="41" on="0"/>
        <pt x="608" y="0" on="0"/>
        <pt x="541" y="0" on="1"/>
        <pt x="437" y="0" on="0"/>
        <pt x="316" y="127" on="0"/>
        <pt x="283" y="261" on="1"/>
        <pt x="44" y="1226" on="1"/>
        <pt x="37" y="1253" on="0"/>
        <pt x="37" y="1280" on="1"/>
        <pt x="37" y="1319" on="0"/>
        <pt x="64" y="1383" on="0"/>
        <pt x="109" y="1428" on="0"/>
        <pt x="167" y="1453" on="0"/>
        <pt x="198" y="1453" on="1"/>
        <pt x="224" y="1453" on="0"/>
        <pt x="276" y="1433" on="0"/>
        <pt x="321" y="1391" on="0"/>
        <pt x="356" y="1325" on="0"/>
        <pt x="366" y="1279" on="1"/>
        <pt x="567" y="329" on="1"/>
        <pt x="783" y="1163" on="1"/>
        <pt x="797" y="1218" on="0"/>
        <pt x="835" y="1323" on="0"/>
        <pt x="893" y="1404" on="0"/>
        <pt x="979" y="1453" on="0"/>
        <pt x="1042" y="1453" on="1"/>
        <pt x="1096" y="1453" on="0"/>
        <pt x="1178" y="1414" on="0"/>
        <pt x="1241" y="1340" on="0"/>
        <pt x="1287" y="1232" on="0"/>
        <pt x="1306" y="1163" on="1"/>
        <pt x="1363" y="954" on="0"/>
        <pt x="1472" y="539" on="0"/>
        <pt x="1528" y="330" on="1"/>
        <pt x="1728" y="1291" on="1"/>
        <pt x="1737" y="1332" on="0"/>
        <pt x="1773" y="1393" on="0"/>
        <pt x="1821" y="1434" on="0"/>
        <pt x="1877" y="1454" on="0"/>
        <pt x="1905" y="1454" on="1"/>
        <pt x="1933" y="1454" on="0"/>
        <pt x="1986" y="1434" on="0"/>
        <pt x="2026" y="1393" on="0"/>
        <pt x="2051" y="1334" on="0"/>
        <pt x="2051" y="1295" on="1"/>
        <pt x="2051" y="1264" on="0"/>
        <pt x="2042" y="1228" on="1"/>
        <pt x="1813" y="296" on="1"/>
        <pt x="1797" y="232" on="0"/>
        <pt x="1754" y="123" on="0"/>
        <pt x="1690" y="44" on="0"/>
        <pt x="1601" y="0" on="0"/>
        <pt x="1538" y="0" on="1"/>
        <pt x="1476" y="0" on="0"/>
        <pt x="1386" y="40" on="0"/>
        <pt x="1318" y="121" on="0"/>
        <pt x="1268" y="245" on="0"/>
        <pt x="1246" y="329" on="1"/>
      </contour>
    </TTGlyph>
    <TTGlyph name="X" xMin="77" yMin="-1" xMax="1297" yMax="1452">
      <contour>
        <pt x="369" y="89" on="1"/>
        <pt x="337" y="42" on="0"/>
        <pt x="257" y="0" on="0"/>
        <pt x="218" y="0" on="1"/>
        <pt x="189" y="0" on="0"/>
        <pt x="138" y="21" on="0"/>
        <pt x="100" y="59" on="0"/>
        <pt x="77" y="112" on="0"/>
        <pt x="77" y="144" on="1"/>
        <pt x="77" y="176" on="0"/>
        <pt x="102" y="248" on="0"/>
        <pt x="131" y="287" on="1"/>
        <pt x="470" y="745" on="1"/>
        <pt x="150" y="1175" on="1"/>
        <pt x="128" y="1204" on="0"/>
        <pt x="109" y="1262" on="0"/>
        <pt x="109" y="1289" on="1"/>
        <pt x="109" y="1324" on="0"/>
        <pt x="136" y="1384" on="0"/>
        <pt x="181" y="1427" on="0"/>
        <pt x="241" y="1452" on="0"/>
        <pt x="273" y="1452" on="1"/>
        <pt x="312" y="1452" on="0"/>
        <pt x="390" y="1408" on="0"/>
        <pt x="422" y="1360" on="1"/>
        <pt x="705" y="940" on="1"/>
        <pt x="987" y="1350" on="1"/>
        <pt x="1025" y="1405" on="0"/>
        <pt x="1110" y="1452" on="0"/>
        <pt x="1150" y="1452" on="1"/>
        <pt x="1180" y="1452" on="0"/>
        <pt x="1234" y="1429" on="0"/>
        <pt x="1274" y="1390" on="0"/>
        <pt x="1297" y="1338" on="0"/>
        <pt x="1297" y="1309" on="1"/>
        <pt x="1297" y="1259" on="0"/>
        <pt x="1262" y="1211" on="1"/>
        <pt x="915" y="745" on="1"/>
        <pt x="1265" y="263" on="1"/>
        <pt x="1282" y="240" on="0"/>
        <pt x="1297" y="190" on="0"/>
        <pt x="1297" y="167" on="1"/>
        <pt x="1297" y="134" on="0"/>
        <pt x="1270" y="73" on="0"/>
        <pt x="1225" y="27" on="0"/>
        <pt x="1166" y="-1" on="0"/>
        <pt x="1133" y="-1" on="1"/>
        <pt x="1094" y="-1" on="0"/>
        <pt x="1014" y="44" on="0"/>
        <pt x="979" y="97" on="1"/>
        <pt x="681" y="539" on="1"/>
      </contour>
    </TTGlyph>
    <TTGlyph name="Y" xMin="108" yMin="0" xMax="1301" yMax="1453">
      <contour>
        <pt x="883" y="195" on="1"/>
        <pt x="882" y="154" on="0"/>
        <pt x="852" y="83" on="0"/>
        <pt x="801" y="30" on="0"/>
        <pt x="734" y="0" on="0"/>
        <pt x="695" y="0" on="1"/>
        <pt x="656" y="0" on="0"/>
        <pt x="589" y="30" on="0"/>
        <pt x="539" y="83" on="0"/>
        <pt x="510" y="154" on="0"/>
        <pt x="510" y="195" on="1"/>
        <pt x="510" y="556" on="1"/>
        <pt x="143" y="1169" on="1"/>
        <pt x="124" y="1200" on="0"/>
        <pt x="108" y="1259" on="0"/>
        <pt x="108" y="1287" on="1"/>
        <pt x="108" y="1324" on="0"/>
        <pt x="135" y="1385" on="0"/>
        <pt x="180" y="1429" on="0"/>
        <pt x="239" y="1453" on="0"/>
        <pt x="271" y="1453" on="1"/>
        <pt x="319" y="1453" on="0"/>
        <pt x="415" y="1393" on="0"/>
        <pt x="448" y="1324" on="1"/>
        <pt x="711" y="801" on="1"/>
        <pt x="715" y="801" on="1"/>
        <pt x="989" y="1328" on="1"/>
        <pt x="1023" y="1394" on="0"/>
        <pt x="1115" y="1452" on="0"/>
        <pt x="1162" y="1452" on="1"/>
        <pt x="1190" y="1452" on="0"/>
        <pt x="1241" y="1432" on="0"/>
        <pt x="1279" y="1396" on="0"/>
        <pt x="1301" y="1344" on="0"/>
        <pt x="1301" y="1313" on="1"/>
        <pt x="1301" y="1287" on="0"/>
        <pt x="1285" y="1230" on="0"/>
        <pt x="1266" y="1199" on="1"/>
        <pt x="883" y="562" on="1"/>
      </contour>
    </TTGlyph>
    <TTGlyph name="Yacute" xMin="108" yMin="0" xMax="1301" yMax="2044">
      <component glyphName="Y" x="0" y="0" flags="0x1204"/>
      <component glyphName="acute" x="382" y="441" flags="0x1004"/>
    </TTGlyph>
    <TTGlyph name="Ydieresis" xMin="108" yMin="0" xMax="1301" yMax="1908">
      <component glyphName="Y" x="0" y="0" flags="0x1204"/>
      <component glyphName="dieresis" x="410" y="450" flags="0x1004"/>
    </TTGlyph>
    <TTGlyph name="Z" xMin="60" yMin="0" xMax="1213" yMax="1453">
      <contour>
        <pt x="1083" y="259" on="1"/>
        <pt x="1110" y="259" on="0"/>
        <pt x="1157" y="239" on="0"/>
        <pt x="1193" y="203" on="0"/>
        <pt x="1213" y="156" on="0"/>
        <pt x="1213" y="129" on="1"/>
        <pt x="1213" y="102" on="0"/>
        <pt x="1193" y="55" on="0"/>
        <pt x="1157" y="20" on="0"/>
        <pt x="1110" y="0" on="0"/>
        <pt x="1083" y="0" on="1"/>
        <pt x="208" y="0" on="1"/>
        <pt x="172" y="0" on="0"/>
        <pt x="116" y="19" on="0"/>
        <pt x="79" y="52" on="0"/>
        <pt x="60" y="97" on="0"/>
        <pt x="60" y="122" on="1"/>
        <pt x="60" y="155" on="0"/>
        <pt x="97" y="239" on="0"/>
        <pt x="123" y="276" on="1"/>
        <pt x="286" y="506" on="0"/>
        <pt x="607" y="964" on="0"/>
        <pt x="769" y="1194" on="1"/>
        <pt x="204" y="1194" on="1"/>
        <pt x="177" y="1194" on="0"/>
        <pt x="130" y="1214" on="0"/>
        <pt x="95" y="1249" on="0"/>
        <pt x="75" y="1296" on="0"/>
        <pt x="75" y="1323" on="1"/>
        <pt x="75" y="1350" on="0"/>
        <pt x="95" y="1397" on="0"/>
        <pt x="130" y="1433" on="0"/>
        <pt x="177" y="1453" on="0"/>
        <pt x="204" y="1453" on="1"/>
        <pt x="1042" y="1453" on="1"/>
        <pt x="1077" y="1453" on="0"/>
        <pt x="1138" y="1440" on="0"/>
        <pt x="1184" y="1411" on="0"/>
        <pt x="1211" y="1363" on="0"/>
        <pt x="1211" y="1329" on="1"/>
        <pt x="1211" y="1295" on="0"/>
        <pt x="1174" y="1215" on="0"/>
        <pt x="1149" y="1180" on="1"/>
        <pt x="499" y="259" on="1"/>
      </contour>
    </TTGlyph>
    <TTGlyph name="Zcaron" xMin="60" yMin="0" xMax="1213" yMax="2016">
      <component glyphName="Z" x="0" y="0" flags="0x1204"/>
      <component glyphName="caron" x="362" y="441" flags="0x1004"/>
    </TTGlyph>
    <TTGlyph name="a" xMin="52" yMin="-12" xMax="1005" yMax="1023">
      <contour>
        <pt x="712" y="658" on="1"/>
        <pt x="712" y="742" on="0"/>
        <pt x="623" y="812" on="0"/>
        <pt x="548" y="812" on="1"/>
        <pt x="503" y="812" on="0"/>
        <pt x="425" y="802" on="0"/>
        <pt x="356" y="787" on="0"/>
        <pt x="294" y="771" on="0"/>
        <pt x="266" y="764" on="1"/>
        <pt x="243" y="758" on="0"/>
        <pt x="225" y="758" on="1"/>
        <pt x="192" y="758" on="0"/>
        <pt x="139" y="801" on="0"/>
        <pt x="139" y="839" on="1"/>
        <pt x="139" y="876" on="0"/>
        <pt x="177" y="932" on="0"/>
        <pt x="242" y="973" on="0"/>
        <pt x="328" y="1000" on="0"/>
        <pt x="423" y="1016" on="0"/>
        <pt x="523" y="1023" on="0"/>
        <pt x="569" y="1023" on="1"/>
        <pt x="665" y="1023" on="0"/>
        <pt x="825" y="980" on="0"/>
        <pt x="940" y="880" on="0"/>
        <pt x="1005" y="718" on="0"/>
        <pt x="1005" y="600" on="1"/>
        <pt x="1005" y="200" on="1"/>
        <pt x="1005" y="161" on="0"/>
        <pt x="995" y="89" on="0"/>
        <pt x="965" y="33" on="0"/>
        <pt x="909" y="0" on="0"/>
        <pt x="863" y="0" on="1"/>
        <pt x="791" y="0" on="0"/>
        <pt x="722" y="95" on="0"/>
        <pt x="722" y="183" on="1"/>
        <pt x="696" y="132" on="0"/>
        <pt x="621" y="58" on="0"/>
        <pt x="531" y="11" on="0"/>
        <pt x="430" y="-12" on="0"/>
        <pt x="378" y="-12" on="1"/>
        <pt x="308" y="-12" on="0"/>
        <pt x="188" y="29" on="0"/>
        <pt x="101" y="104" on="0"/>
        <pt x="52" y="209" on="0"/>
        <pt x="52" y="274" on="1"/>
        <pt x="52" y="365" on="0"/>
        <pt x="128" y="495" on="0"/>
        <pt x="273" y="577" on="0"/>
        <pt x="482" y="615" on="0"/>
        <pt x="616" y="615" on="1"/>
        <pt x="712" y="615" on="1"/>
      </contour>
      <contour>
        <pt x="711" y="466" on="1"/>
        <pt x="643" y="468" on="0"/>
        <pt x="509" y="460" on="0"/>
        <pt x="403" y="425" on="0"/>
        <pt x="338" y="357" on="0"/>
        <pt x="338" y="299" on="1"/>
        <pt x="338" y="267" on="0"/>
        <pt x="362" y="215" on="0"/>
        <pt x="405" y="177" on="0"/>
        <pt x="464" y="157" on="0"/>
        <pt x="500" y="157" on="1"/>
        <pt x="546" y="157" on="0"/>
        <pt x="623" y="190" on="0"/>
        <pt x="679" y="253" on="0"/>
        <pt x="711" y="344" on="0"/>
        <pt x="711" y="403" on="1"/>
      </contour>
    </TTGlyph>
    <TTGlyph name="aacute" xMin="52" yMin="-12" xMax="1005" yMax="1603">
      <component glyphName="a" x="0" y="0" flags="0x1204"/>
      <component glyphName="acute" x="271" y="0" flags="0x1004"/>
    </TTGlyph>
    <TTGlyph name="acircumflex" xMin="52" yMin="-12" xMax="1005" yMax="1591">
      <component glyphName="a" x="0" y="0" flags="0x1204"/>
      <component glyphName="circumflex" x="276" y="0" flags="0x1004"/>
    </TTGlyph>
    <TTGlyph name="acute" xMin="57" yMin="1119" xMax="522" yMax="1603">
      <contour>
        <pt x="182" y="1139" on="1"/>
        <pt x="159" y="1119" on="0"/>
        <pt x="128" y="1119" on="1"/>
        <pt x="102" y="1119" on="0"/>
        <pt x="57" y="1154" on="0"/>
        <pt x="57" y="1186" on="1"/>
        <pt x="57" y="1201" on="0"/>
        <pt x="72" y="1226" on="0"/>
        <pt x="81" y="1240" on="1"/>
        <pt x="280" y="1528" on="1"/>
        <pt x="302" y="1560" on="0"/>
        <pt x="353" y="1603" on="0"/>
        <pt x="385" y="1603" on="1"/>
        <pt x="409" y="1603" on="0"/>
        <pt x="457" y="1583" on="0"/>
        <pt x="497" y="1549" on="0"/>
        <pt x="522" y="1502" on="0"/>
        <pt x="522" y="1475" on="1"/>
        <pt x="521" y="1429" on="0"/>
        <pt x="476" y="1391" on="1"/>
      </contour>
    </TTGlyph>
    <TTGlyph name="adieresis" xMin="52" yMin="-12" xMax="1005" yMax="1458">
      <component glyphName="a" x="0" y="0" flags="0x1204"/>
      <component glyphName="dieresis" x="277" y="0" flags="0x1004"/>
    </TTGlyph>
    <TTGlyph name="ae" xMin="52" yMin="-20" xMax="1688" yMax="1034">
      <contour>
        <pt x="712" y="666" on="1"/>
        <pt x="712" y="713" on="0"/>
        <pt x="681" y="772" on="0"/>
        <pt x="628" y="805" on="0"/>
        <pt x="560" y="817" on="0"/>
        <pt x="523" y="817" on="1"/>
        <pt x="483" y="817" on="0"/>
        <pt x="414" y="807" on="0"/>
        <pt x="352" y="793" on="0"/>
        <pt x="296" y="776" on="0"/>
        <pt x="269" y="769" on="1"/>
        <pt x="257" y="765" on="0"/>
        <pt x="233" y="763" on="0"/>
        <pt x="222" y="763" on="1"/>
        <pt x="188" y="763" on="0"/>
        <pt x="139" y="807" on="0"/>
        <pt x="139" y="844" on="1"/>
        <pt x="139" y="885" on="0"/>
        <pt x="186" y="944" on="0"/>
        <pt x="263" y="986" on="0"/>
        <pt x="359" y="1013" on="0"/>
        <pt x="459" y="1028" on="0"/>
        <pt x="553" y="1033" on="0"/>
        <pt x="588" y="1033" on="1"/>
        <pt x="691" y="1030" on="0"/>
        <pt x="837" y="962" on="0"/>
        <pt x="882" y="888" on="1"/>
        <pt x="943" y="957" on="0"/>
        <pt x="1114" y="1034" on="0"/>
        <pt x="1219" y="1034" on="1"/>
        <pt x="1334" y="1034" on="0"/>
        <pt x="1509" y="960" on="0"/>
        <pt x="1627" y="828" on="0"/>
        <pt x="1688" y="644" on="0"/>
        <pt x="1688" y="533" on="1"/>
        <pt x="1688" y="486" on="0"/>
        <pt x="1625" y="450" on="0"/>
        <pt x="1574" y="450" on="1"/>
        <pt x="1014" y="450" on="1"/>
        <pt x="1015" y="394" on="0"/>
        <pt x="1037" y="299" on="0"/>
        <pt x="1093" y="230" on="0"/>
        <pt x="1188" y="190" on="0"/>
        <pt x="1261" y="190" on="1"/>
        <pt x="1304" y="190" on="0"/>
        <pt x="1378" y="204" on="0"/>
        <pt x="1447" y="224" on="0"/>
        <pt x="1512" y="248" on="0"/>
        <pt x="1546" y="257" on="1"/>
        <pt x="1558" y="260" on="0"/>
        <pt x="1568" y="260" on="1"/>
        <pt x="1585" y="260" on="0"/>
        <pt x="1613" y="243" on="0"/>
        <pt x="1632" y="216" on="0"/>
        <pt x="1642" y="182" on="0"/>
        <pt x="1642" y="166" on="1"/>
        <pt x="1642" y="124" on="0"/>
        <pt x="1587" y="64" on="0"/>
        <pt x="1501" y="23" on="0"/>
        <pt x="1398" y="-2" on="0"/>
        <pt x="1301" y="-16" on="0"/>
        <pt x="1224" y="-20" on="0"/>
        <pt x="1207" y="-20" on="1"/>
        <pt x="1083" y="-20" on="0"/>
        <pt x="899" y="74" on="0"/>
        <pt x="839" y="158" on="1"/>
        <pt x="782" y="65" on="0"/>
        <pt x="577" y="-20" on="0"/>
        <pt x="434" y="-20" on="1"/>
        <pt x="345" y="-20" on="0"/>
        <pt x="203" y="18" on="0"/>
        <pt x="104" y="93" on="0"/>
        <pt x="52" y="203" on="0"/>
        <pt x="52" y="274" on="1"/>
        <pt x="52" y="367" on="0"/>
        <pt x="132" y="498" on="0"/>
        <pt x="282" y="579" on="0"/>
        <pt x="495" y="616" on="0"/>
        <pt x="629" y="616" on="1"/>
        <pt x="646" y="616" on="0"/>
        <pt x="696" y="614" on="0"/>
        <pt x="712" y="614" on="1"/>
      </contour>
      <contour>
        <pt x="1421" y="599" on="1"/>
        <pt x="1416" y="722" on="0"/>
        <pt x="1314" y="856" on="0"/>
        <pt x="1221" y="856" on="1"/>
        <pt x="1173" y="856" on="0"/>
        <pt x="1098" y="819" on="0"/>
        <pt x="1046" y="751" on="0"/>
        <pt x="1016" y="657" on="0"/>
        <pt x="1013" y="599" on="1"/>
      </contour>
      <contour>
        <pt x="711" y="467" on="1"/>
        <pt x="701" y="467" on="0"/>
        <pt x="671" y="466" on="0"/>
        <pt x="656" y="466" on="1"/>
        <pt x="633" y="466" on="1"/>
        <pt x="573" y="466" on="0"/>
        <pt x="466" y="451" on="0"/>
        <pt x="385" y="413" on="0"/>
        <pt x="338" y="348" on="0"/>
        <pt x="338" y="299" on="1"/>
        <pt x="338" y="262" on="0"/>
        <pt x="362" y="206" on="0"/>
        <pt x="405" y="169" on="0"/>
        <pt x="465" y="150" on="0"/>
        <pt x="500" y="150" on="1"/>
        <pt x="594" y="150" on="0"/>
        <pt x="708" y="282" on="0"/>
        <pt x="711" y="403" on="1"/>
      </contour>
    </TTGlyph>
    <TTGlyph name="agrave" xMin="52" yMin="-12" xMax="1005" yMax="1601">
      <component glyphName="a" x="0" y="0" flags="0x1204"/>
      <component glyphName="grave" x="286" y="0" flags="0x1004"/>
    </TTGlyph>
    <TTGlyph name="ampersand" xMin="72" yMin="-28" xMax="1526" yMax="1511">
      <contour>
        <pt x="1232" y="581" on="1"/>
        <pt x="1244" y="603" on="0"/>
        <pt x="1266" y="661" on="0"/>
        <pt x="1288" y="723" on="0"/>
        <pt x="1309" y="784" on="0"/>
        <pt x="1329" y="835" on="0"/>
        <pt x="1350" y="869" on="0"/>
        <pt x="1361" y="873" on="1"/>
        <pt x="1369" y="876" on="0"/>
        <pt x="1387" y="878" on="0"/>
        <pt x="1396" y="878" on="1"/>
        <pt x="1422" y="878" on="0"/>
        <pt x="1469" y="863" on="0"/>
        <pt x="1505" y="833" on="0"/>
        <pt x="1526" y="788" on="0"/>
        <pt x="1526" y="757" on="1"/>
        <pt x="1526" y="715" on="0"/>
        <pt x="1501" y="600" on="0"/>
        <pt x="1458" y="478" on="0"/>
        <pt x="1399" y="358" on="0"/>
        <pt x="1365" y="312" on="1"/>
        <pt x="1409" y="266" on="1"/>
        <pt x="1427" y="248" on="0"/>
        <pt x="1460" y="207" on="0"/>
        <pt x="1485" y="164" on="0"/>
        <pt x="1501" y="122" on="0"/>
        <pt x="1501" y="102" on="1"/>
        <pt x="1501" y="76" on="0"/>
        <pt x="1479" y="29" on="0"/>
        <pt x="1443" y="-7" on="0"/>
        <pt x="1395" y="-28" on="0"/>
        <pt x="1369" y="-28" on="1"/>
        <pt x="1336" y="-28" on="0"/>
        <pt x="1253" y="24" on="0"/>
        <pt x="1216" y="62" on="1"/>
        <pt x="1142" y="139" on="1"/>
        <pt x="1060" y="64" on="0"/>
        <pt x="821" y="-21" on="0"/>
        <pt x="676" y="-21" on="1"/>
        <pt x="601" y="-21" on="0"/>
        <pt x="453" y="1" on="0"/>
        <pt x="319" y="46" on="0"/>
        <pt x="204" y="115" on="0"/>
        <pt x="120" y="211" on="0"/>
        <pt x="72" y="333" on="0"/>
        <pt x="72" y="408" on="1"/>
        <pt x="72" y="480" on="0"/>
        <pt x="126" y="603" on="0"/>
        <pt x="224" y="707" on="0"/>
        <pt x="362" y="795" on="0"/>
        <pt x="446" y="833" on="1"/>
        <pt x="402" y="869" on="0"/>
        <pt x="323" y="950" on="0"/>
        <pt x="264" y="1039" on="0"/>
        <pt x="229" y="1133" on="0"/>
        <pt x="229" y="1182" on="1"/>
        <pt x="229" y="1264" on="0"/>
        <pt x="305" y="1387" on="0"/>
        <pt x="432" y="1469" on="0"/>
        <pt x="599" y="1511" on="0"/>
        <pt x="691" y="1511" on="1"/>
        <pt x="773" y="1511" on="0"/>
        <pt x="939" y="1474" on="0"/>
        <pt x="1071" y="1396" on="0"/>
        <pt x="1154" y="1275" on="0"/>
        <pt x="1154" y="1191" on="1"/>
        <pt x="1154" y="1138" on="0"/>
        <pt x="1112" y="1035" on="0"/>
        <pt x="1037" y="939" on="0"/>
        <pt x="935" y="849" on="0"/>
        <pt x="874" y="808" on="1"/>
        <pt x="938" y="742" on="0"/>
        <pt x="1064" y="612" on="0"/>
        <pt x="1127" y="546" on="1"/>
        <pt x="1158" y="553" on="0"/>
        <pt x="1209" y="573" on="0"/>
      </contour>
      <contour>
        <pt x="629" y="664" on="1"/>
        <pt x="590" y="646" on="0"/>
        <pt x="509" y="589" on="0"/>
        <pt x="443" y="522" on="0"/>
        <pt x="401" y="450" on="0"/>
        <pt x="401" y="416" on="1"/>
        <pt x="401" y="360" on="0"/>
        <pt x="445" y="274" on="0"/>
        <pt x="522" y="215" on="0"/>
        <pt x="624" y="185" on="0"/>
        <pt x="681" y="185" on="1"/>
        <pt x="766" y="185" on="0"/>
        <pt x="909" y="246" on="0"/>
        <pt x="977" y="300" on="1"/>
      </contour>
      <contour>
        <pt x="537" y="1193" on="1"/>
        <pt x="537" y="1163" on="0"/>
        <pt x="563" y="1101" on="0"/>
        <pt x="605" y="1041" on="0"/>
        <pt x="658" y="987" on="0"/>
        <pt x="684" y="965" on="1"/>
        <pt x="716" y="991" on="0"/>
        <pt x="777" y="1045" on="0"/>
        <pt x="824" y="1102" on="0"/>
        <pt x="853" y="1161" on="0"/>
        <pt x="853" y="1193" on="1"/>
        <pt x="853" y="1224" on="0"/>
        <pt x="826" y="1270" on="0"/>
        <pt x="783" y="1300" on="0"/>
        <pt x="727" y="1315" on="0"/>
        <pt x="697" y="1315" on="1"/>
        <pt x="668" y="1315" on="0"/>
        <pt x="610" y="1302" on="0"/>
        <pt x="565" y="1272" on="0"/>
        <pt x="537" y="1226" on="0"/>
      </contour>
    </TTGlyph>
    <TTGlyph name="aring" xMin="52" yMin="-12" xMax="1005" yMax="1562">
      <component glyphName="a" x="0" y="0" flags="0x1204"/>
      <component glyphName="ring" x="277" y="0" flags="0x1004"/>
    </TTGlyph>
    <TTGlyph name="asciicircum" xMin="195" yMin="607" xMax="1089" yMax="1451">
      <contour>
        <pt x="642" y="1211" on="1"/>
        <pt x="579" y="1083" on="0"/>
        <pt x="455" y="830" on="0"/>
        <pt x="392" y="702" on="1"/>
        <pt x="372" y="661" on="0"/>
        <pt x="323" y="607" on="0"/>
        <pt x="288" y="607" on="1"/>
        <pt x="250" y="607" on="0"/>
        <pt x="195" y="656" on="0"/>
        <pt x="195" y="697" on="1"/>
        <pt x="195" y="713" on="0"/>
        <pt x="215" y="758" on="0"/>
        <pt x="225" y="778" on="1"/>
        <pt x="501" y="1331" on="1"/>
        <pt x="513" y="1355" on="0"/>
        <pt x="540" y="1398" on="0"/>
        <pt x="574" y="1431" on="0"/>
        <pt x="616" y="1451" on="0"/>
        <pt x="643" y="1451" on="1"/>
        <pt x="691" y="1451" on="0"/>
        <pt x="755" y="1388" on="0"/>
        <pt x="784" y="1331" on="1"/>
        <pt x="1060" y="778" on="1"/>
        <pt x="1070" y="758" on="0"/>
        <pt x="1089" y="712" on="0"/>
        <pt x="1089" y="695" on="1"/>
        <pt x="1089" y="656" on="0"/>
        <pt x="1035" y="610" on="0"/>
        <pt x="997" y="610" on="1"/>
        <pt x="962" y="610" on="0"/>
        <pt x="914" y="664" on="0"/>
        <pt x="892" y="702" on="1"/>
      </contour>
    </TTGlyph>
    <TTGlyph name="asciitilde" xMin="284" yMin="1133" xMax="992" yMax="1419">
      <contour>
        <pt x="786" y="1313" on="1"/>
        <pt x="800" y="1313" on="0"/>
        <pt x="817" y="1329" on="0"/>
        <pt x="829" y="1352" on="0"/>
        <pt x="840" y="1380" on="0"/>
        <pt x="859" y="1403" on="0"/>
        <pt x="889" y="1419" on="0"/>
        <pt x="914" y="1419" on="1"/>
        <pt x="928" y="1419" on="0"/>
        <pt x="956" y="1408" on="0"/>
        <pt x="978" y="1389" on="0"/>
        <pt x="992" y="1362" on="0"/>
        <pt x="992" y="1346" on="1"/>
        <pt x="992" y="1294" on="0"/>
        <pt x="960" y="1214" on="0"/>
        <pt x="906" y="1160" on="0"/>
        <pt x="834" y="1133" on="0"/>
        <pt x="794" y="1133" on="1"/>
        <pt x="750" y="1133" on="0"/>
        <pt x="671" y="1165" on="0"/>
        <pt x="600" y="1204" on="0"/>
        <pt x="537" y="1238" on="0"/>
        <pt x="509" y="1240" on="1"/>
        <pt x="488" y="1240" on="0"/>
        <pt x="468" y="1224" on="0"/>
        <pt x="451" y="1198" on="0"/>
        <pt x="429" y="1165" on="0"/>
        <pt x="406" y="1148" on="1"/>
        <pt x="396" y="1140" on="0"/>
        <pt x="370" y="1136" on="0"/>
        <pt x="358" y="1136" on="1"/>
        <pt x="327" y="1136" on="0"/>
        <pt x="284" y="1176" on="0"/>
        <pt x="284" y="1206" on="1"/>
        <pt x="284" y="1264" on="0"/>
        <pt x="325" y="1345" on="0"/>
        <pt x="386" y="1396" on="0"/>
        <pt x="457" y="1419" on="0"/>
        <pt x="487" y="1419" on="1"/>
        <pt x="535" y="1419" on="0"/>
        <pt x="621" y="1386" on="0"/>
        <pt x="696" y="1346" on="0"/>
        <pt x="760" y="1313" on="0"/>
      </contour>
    </TTGlyph>
    <TTGlyph name="asterisk" xMin="109" yMin="792" xMax="848" yMax="1441">
      <contour>
        <pt x="600" y="1183" on="1"/>
        <pt x="645" y="1184" on="0"/>
        <pt x="731" y="1188" on="0"/>
        <pt x="776" y="1188" on="1"/>
        <pt x="805" y="1188" on="0"/>
        <pt x="848" y="1147" on="0"/>
        <pt x="848" y="1116" on="1"/>
        <pt x="848" y="1086" on="0"/>
        <pt x="806" y="1045" on="0"/>
        <pt x="776" y="1045" on="1"/>
        <pt x="731" y="1045" on="0"/>
        <pt x="644" y="1049" on="0"/>
        <pt x="599" y="1049" on="1"/>
        <pt x="666" y="940" on="1"/>
        <pt x="678" y="920" on="0"/>
        <pt x="698" y="878" on="0"/>
        <pt x="698" y="862" on="1"/>
        <pt x="698" y="834" on="0"/>
        <pt x="656" y="792" on="0"/>
        <pt x="626" y="792" on="1"/>
        <pt x="599" y="792" on="0"/>
        <pt x="566" y="825" on="0"/>
        <pt x="553" y="848" on="1"/>
        <pt x="477" y="985" on="1"/>
        <pt x="403" y="848" on="1"/>
        <pt x="391" y="825" on="0"/>
        <pt x="356" y="792" on="0"/>
        <pt x="328" y="792" on="1"/>
        <pt x="299" y="792" on="0"/>
        <pt x="257" y="834" on="0"/>
        <pt x="257" y="863" on="1"/>
        <pt x="256" y="877" on="0"/>
        <pt x="269" y="906" on="0"/>
        <pt x="278" y="920" on="1"/>
        <pt x="357" y="1049" on="1"/>
        <pt x="312" y="1048" on="0"/>
        <pt x="226" y="1045" on="0"/>
        <pt x="182" y="1045" on="1"/>
        <pt x="153" y="1045" on="0"/>
        <pt x="109" y="1087" on="0"/>
        <pt x="109" y="1116" on="1"/>
        <pt x="109" y="1147" on="0"/>
        <pt x="151" y="1188" on="0"/>
        <pt x="182" y="1188" on="1"/>
        <pt x="225" y="1188" on="0"/>
        <pt x="311" y="1183" on="0"/>
        <pt x="355" y="1183" on="1"/>
        <pt x="282" y="1303" on="1"/>
        <pt x="272" y="1318" on="0"/>
        <pt x="254" y="1350" on="0"/>
        <pt x="254" y="1368" on="1"/>
        <pt x="254" y="1396" on="0"/>
        <pt x="294" y="1441" on="0"/>
        <pt x="327" y="1441" on="1"/>
        <pt x="349" y="1441" on="0"/>
        <pt x="384" y="1416" on="0"/>
        <pt x="396" y="1394" on="1"/>
        <pt x="477" y="1243" on="1"/>
        <pt x="554" y="1384" on="1"/>
        <pt x="565" y="1407" on="0"/>
        <pt x="601" y="1440" on="0"/>
        <pt x="630" y="1440" on="1"/>
        <pt x="659" y="1440" on="0"/>
        <pt x="699" y="1398" on="0"/>
        <pt x="699" y="1369" on="1"/>
        <pt x="699" y="1355" on="0"/>
        <pt x="687" y="1325" on="0"/>
        <pt x="679" y="1313" on="1"/>
      </contour>
    </TTGlyph>
    <TTGlyph name="at" xMin="40" yMin="-30" xMax="1572" yMax="1509">
      <contour>
        <pt x="590" y="645" on="1"/>
        <pt x="590" y="609" on="0"/>
        <pt x="611" y="545" on="0"/>
        <pt x="651" y="497" on="0"/>
        <pt x="708" y="470" on="0"/>
        <pt x="743" y="470" on="1"/>
        <pt x="781" y="470" on="0"/>
        <pt x="852" y="490" on="0"/>
        <pt x="912" y="526" on="0"/>
        <pt x="955" y="575" on="0"/>
        <pt x="964" y="604" on="1"/>
        <pt x="1023" y="820" on="1"/>
        <pt x="1025" y="828" on="0"/>
        <pt x="1027" y="842" on="0"/>
        <pt x="1027" y="849" on="1"/>
        <pt x="1027" y="875" on="0"/>
        <pt x="1000" y="922" on="0"/>
        <pt x="955" y="958" on="0"/>
        <pt x="896" y="980" on="0"/>
        <pt x="864" y="980" on="1"/>
        <pt x="805" y="980" on="0"/>
        <pt x="704" y="918" on="0"/>
        <pt x="631" y="820" on="0"/>
        <pt x="590" y="702" on="0"/>
      </contour>
      <contour>
        <pt x="918" y="132" on="1"/>
        <pt x="1003" y="134" on="0"/>
        <pt x="1084" y="157" on="1"/>
        <pt x="1088" y="158" on="0"/>
        <pt x="1096" y="158" on="1"/>
        <pt x="1134" y="158" on="0"/>
        <pt x="1176" y="113" on="0"/>
        <pt x="1176" y="84" on="1"/>
        <pt x="1176" y="52" on="0"/>
        <pt x="1138" y="19" on="0"/>
        <pt x="1100" y="9" on="1"/>
        <pt x="1025" y="-10" on="0"/>
        <pt x="882" y="-30" on="0"/>
        <pt x="811" y="-30" on="1"/>
        <pt x="650" y="-30" on="0"/>
        <pt x="369" y="69" on="0"/>
        <pt x="160" y="261" on="0"/>
        <pt x="40" y="541" on="0"/>
        <pt x="40" y="721" on="1"/>
        <pt x="40" y="843" on="0"/>
        <pt x="105" y="1055" on="0"/>
        <pt x="222" y="1230" on="0"/>
        <pt x="382" y="1367" on="0"/>
        <pt x="572" y="1460" on="0"/>
        <pt x="785" y="1509" on="0"/>
        <pt x="895" y="1509" on="1"/>
        <pt x="1021" y="1509" on="0"/>
        <pt x="1264" y="1436" on="0"/>
        <pt x="1455" y="1283" on="0"/>
        <pt x="1572" y="1046" on="0"/>
        <pt x="1572" y="883" on="1"/>
        <pt x="1572" y="798" on="0"/>
        <pt x="1531" y="647" on="0"/>
        <pt x="1462" y="520" on="0"/>
        <pt x="1371" y="420" on="0"/>
        <pt x="1271" y="349" on="0"/>
        <pt x="1167" y="312" on="0"/>
        <pt x="1120" y="312" on="1"/>
        <pt x="1069" y="312" on="0"/>
        <pt x="979" y="358" on="0"/>
        <pt x="960" y="409" on="1"/>
        <pt x="910" y="354" on="0"/>
        <pt x="772" y="298" on="0"/>
        <pt x="694" y="298" on="1"/>
        <pt x="620" y="298" on="0"/>
        <pt x="503" y="352" on="0"/>
        <pt x="420" y="446" on="0"/>
        <pt x="376" y="573" on="0"/>
        <pt x="376" y="646" on="1"/>
        <pt x="376" y="710" on="0"/>
        <pt x="407" y="838" on="0"/>
        <pt x="464" y="955" on="0"/>
        <pt x="547" y="1056" on="0"/>
        <pt x="650" y="1130" on="0"/>
        <pt x="772" y="1173" on="0"/>
        <pt x="841" y="1173" on="1"/>
        <pt x="916" y="1173" on="0"/>
        <pt x="1042" y="1112" on="0"/>
        <pt x="1081" y="1046" on="1"/>
        <pt x="1089" y="1072" on="1"/>
        <pt x="1099" y="1104" on="0"/>
        <pt x="1145" y="1135" on="0"/>
        <pt x="1174" y="1135" on="1"/>
        <pt x="1203" y="1135" on="0"/>
        <pt x="1251" y="1098" on="0"/>
        <pt x="1251" y="1062" on="1"/>
        <pt x="1251" y="1046" on="0"/>
        <pt x="1240" y="1013" on="0"/>
        <pt x="1236" y="999" on="1"/>
        <pt x="1153" y="677" on="1"/>
        <pt x="1137" y="622" on="0"/>
        <pt x="1114" y="525" on="0"/>
        <pt x="1114" y="498" on="1"/>
        <pt x="1114" y="473" on="0"/>
        <pt x="1131" y="445" on="0"/>
        <pt x="1155" y="445" on="1"/>
        <pt x="1200" y="445" on="0"/>
        <pt x="1288" y="511" on="0"/>
        <pt x="1357" y="623" on="0"/>
        <pt x="1399" y="771" on="0"/>
        <pt x="1399" y="853" on="1"/>
        <pt x="1399" y="981" on="0"/>
        <pt x="1318" y="1172" on="0"/>
        <pt x="1180" y="1299" on="0"/>
        <pt x="997" y="1362" on="0"/>
        <pt x="895" y="1362" on="1"/>
        <pt x="810" y="1362" on="0"/>
        <pt x="645" y="1321" on="0"/>
        <pt x="495" y="1244" on="0"/>
        <pt x="367" y="1131" on="0"/>
        <pt x="273" y="986" on="0"/>
        <pt x="220" y="813" on="0"/>
        <pt x="220" y="713" on="1"/>
        <pt x="220" y="571" on="0"/>
        <pt x="309" y="356" on="0"/>
        <pt x="462" y="209" on="0"/>
        <pt x="666" y="128" on="0"/>
        <pt x="782" y="121" on="1"/>
        <pt x="796" y="121" on="1"/>
        <pt x="854" y="121" on="0"/>
      </contour>
    </TTGlyph>
    <TTGlyph name="atilde" xMin="52" yMin="-12" xMax="1005" yMax="1421">
      <component glyphName="a" x="0" y="0" flags="0x1204"/>
      <component glyphName="tilde" x="287" y="0" flags="0x1004"/>
    </TTGlyph>
    <TTGlyph name="b" xMin="114" yMin="-12" xMax="1185" yMax="1451">
      <contour>
        <pt x="434" y="514" on="1"/>
        <pt x="434" y="433" on="0"/>
        <pt x="455" y="308" on="0"/>
        <pt x="506" y="224" on="0"/>
        <pt x="592" y="180" on="0"/>
        <pt x="658" y="180" on="1"/>
        <pt x="718" y="180" on="0"/>
        <pt x="797" y="236" on="0"/>
        <pt x="842" y="329" on="0"/>
        <pt x="860" y="448" on="0"/>
        <pt x="860" y="511" on="1"/>
        <pt x="860" y="571" on="0"/>
        <pt x="841" y="685" on="0"/>
        <pt x="794" y="775" on="0"/>
        <pt x="713" y="829" on="0"/>
        <pt x="651" y="829" on="1"/>
        <pt x="588" y="829" on="0"/>
        <pt x="505" y="782" on="0"/>
        <pt x="454" y="699" on="0"/>
        <pt x="434" y="583" on="0"/>
      </contour>
      <contour>
        <pt x="433" y="830" on="1"/>
        <pt x="487" y="920" on="0"/>
        <pt x="667" y="1023" on="0"/>
        <pt x="784" y="1023" on="1"/>
        <pt x="869" y="1023" on="0"/>
        <pt x="1016" y="951" on="0"/>
        <pt x="1124" y="818" on="0"/>
        <pt x="1185" y="629" on="0"/>
        <pt x="1185" y="512" on="1"/>
        <pt x="1185" y="409" on="0"/>
        <pt x="1130" y="220" on="0"/>
        <pt x="1028" y="75" on="0"/>
        <pt x="881" y="-12" on="0"/>
        <pt x="789" y="-12" on="1"/>
        <pt x="679" y="-12" on="0"/>
        <pt x="494" y="91" on="0"/>
        <pt x="433" y="197" on="1"/>
        <pt x="433" y="102" on="0"/>
        <pt x="356" y="0" on="0"/>
        <pt x="267" y="0" on="1"/>
        <pt x="183" y="0" on="0"/>
        <pt x="114" y="102" on="0"/>
        <pt x="114" y="197" on="1"/>
        <pt x="114" y="1254" on="1"/>
        <pt x="114" y="1349" on="0"/>
        <pt x="183" y="1451" on="0"/>
        <pt x="267" y="1451" on="1"/>
        <pt x="356" y="1451" on="0"/>
        <pt x="433" y="1349" on="0"/>
        <pt x="433" y="1254" on="1"/>
      </contour>
    </TTGlyph>
    <TTGlyph name="backslash" xMin="1" yMin="-70" xMax="668" yMax="1504">
      <contour>
        <pt x="7" y="1370" on="1"/>
        <pt x="3" y="1381" on="0"/>
        <pt x="1" y="1401" on="0"/>
        <pt x="1" y="1409" on="1"/>
        <pt x="1" y="1457" on="0"/>
        <pt x="62" y="1504" on="0"/>
        <pt x="104" y="1504" on="1"/>
        <pt x="127" y="1504" on="0"/>
        <pt x="163" y="1483" on="0"/>
        <pt x="190" y="1448" on="0"/>
        <pt x="211" y="1403" on="0"/>
        <pt x="220" y="1379" on="1"/>
        <pt x="653" y="90" on="1"/>
        <pt x="658" y="73" on="0"/>
        <pt x="668" y="40" on="0"/>
        <pt x="668" y="25" on="1"/>
        <pt x="668" y="2" on="0"/>
        <pt x="649" y="-33" on="0"/>
        <pt x="619" y="-57" on="0"/>
        <pt x="581" y="-70" on="0"/>
        <pt x="563" y="-70" on="1"/>
        <pt x="540" y="-70" on="0"/>
        <pt x="506" y="-50" on="0"/>
        <pt x="479" y="-15" on="0"/>
        <pt x="459" y="30" on="0"/>
        <pt x="451" y="54" on="1"/>
      </contour>
    </TTGlyph>
    <TTGlyph name="bar" xMin="125" yMin="-252" xMax="330" yMax="1495">
      <contour>
        <pt x="125" y="1394" on="1"/>
        <pt x="125" y="1418" on="0"/>
        <pt x="142" y="1456" on="0"/>
        <pt x="170" y="1481" on="0"/>
        <pt x="207" y="1495" on="0"/>
        <pt x="228" y="1495" on="1"/>
        <pt x="259" y="1495" on="0"/>
        <pt x="299" y="1468" on="0"/>
        <pt x="322" y="1422" on="0"/>
        <pt x="330" y="1361" on="0"/>
        <pt x="330" y="1327" on="1"/>
        <pt x="330" y="-116" on="1"/>
        <pt x="330" y="-142" on="0"/>
        <pt x="320" y="-191" on="0"/>
        <pt x="297" y="-229" on="0"/>
        <pt x="257" y="-252" on="0"/>
        <pt x="227" y="-252" on="1"/>
        <pt x="195" y="-252" on="0"/>
        <pt x="155" y="-225" on="0"/>
        <pt x="133" y="-178" on="0"/>
        <pt x="125" y="-117" on="0"/>
        <pt x="125" y="-83" on="1"/>
      </contour>
    </TTGlyph>
    <TTGlyph name="braceleft" xMin="1" yMin="-248" xMax="762" yMax="1479">
      <contour>
        <pt x="629" y="-23" on="1"/>
        <pt x="657" y="-23" on="0"/>
        <pt x="705" y="-35" on="0"/>
        <pt x="741" y="-64" on="0"/>
        <pt x="762" y="-112" on="0"/>
        <pt x="762" y="-147" on="1"/>
        <pt x="757" y="-191" on="0"/>
        <pt x="706" y="-248" on="0"/>
        <pt x="650" y="-248" on="1"/>
        <pt x="500" y="-248" on="1"/>
        <pt x="449" y="-248" on="0"/>
        <pt x="355" y="-217" on="0"/>
        <pt x="283" y="-156" on="0"/>
        <pt x="240" y="-66" on="0"/>
        <pt x="240" y="-7" on="1"/>
        <pt x="240" y="314" on="1"/>
        <pt x="240" y="357" on="0"/>
        <pt x="230" y="422" on="0"/>
        <pt x="202" y="468" on="0"/>
        <pt x="154" y="494" on="0"/>
        <pt x="117" y="497" on="1"/>
        <pt x="94" y="499" on="0"/>
        <pt x="53" y="513" on="0"/>
        <pt x="20" y="540" on="0"/>
        <pt x="1" y="583" on="0"/>
        <pt x="1" y="614" on="1"/>
        <pt x="1" y="663" on="0"/>
        <pt x="58" y="726" on="0"/>
        <pt x="117" y="731" on="1"/>
        <pt x="186" y="736" on="0"/>
        <pt x="240" y="820" on="0"/>
        <pt x="240" y="915" on="1"/>
        <pt x="240" y="1226" on="1"/>
        <pt x="240" y="1270" on="0"/>
        <pt x="269" y="1360" on="0"/>
        <pt x="332" y="1433" on="0"/>
        <pt x="431" y="1479" on="0"/>
        <pt x="500" y="1479" on="1"/>
        <pt x="639" y="1479" on="1"/>
        <pt x="661" y="1479" on="0"/>
        <pt x="704" y="1471" on="0"/>
        <pt x="738" y="1446" on="0"/>
        <pt x="760" y="1401" on="0"/>
        <pt x="760" y="1365" on="1"/>
        <pt x="760" y="1311" on="0"/>
        <pt x="695" y="1253" on="0"/>
        <pt x="639" y="1253" on="1"/>
        <pt x="623" y="1253" on="1"/>
        <pt x="589" y="1253" on="0"/>
        <pt x="552" y="1225" on="0"/>
        <pt x="535" y="1171" on="0"/>
        <pt x="532" y="1090" on="0"/>
        <pt x="532" y="1038" on="1"/>
        <pt x="532" y="877" on="1"/>
        <pt x="532" y="774" on="0"/>
        <pt x="448" y="647" on="0"/>
        <pt x="354" y="619" on="1"/>
        <pt x="350" y="615" on="0"/>
        <pt x="349" y="613" on="1"/>
        <pt x="367" y="608" on="0"/>
        <pt x="429" y="580" on="0"/>
        <pt x="488" y="526" on="0"/>
        <pt x="532" y="440" on="0"/>
        <pt x="532" y="376" on="1"/>
        <pt x="532" y="181" on="1"/>
        <pt x="532" y="133" on="0"/>
        <pt x="534" y="58" on="0"/>
        <pt x="552" y="5" on="0"/>
        <pt x="592" y="-23" on="0"/>
      </contour>
    </TTGlyph>
    <TTGlyph name="braceright" xMin="24" yMin="-248" xMax="786" yMax="1479">
      <contour>
        <pt x="169" y="-23" on="1"/>
        <pt x="199" y="-23" on="0"/>
        <pt x="233" y="0" on="0"/>
        <pt x="251" y="45" on="0"/>
        <pt x="255" y="113" on="0"/>
        <pt x="255" y="158" on="1"/>
        <pt x="255" y="376" on="1"/>
        <pt x="255" y="435" on="0"/>
        <pt x="293" y="518" on="0"/>
        <pt x="350" y="574" on="0"/>
        <pt x="413" y="605" on="0"/>
        <pt x="439" y="613" on="1"/>
        <pt x="433" y="620" on="0"/>
        <pt x="390" y="637" on="0"/>
        <pt x="370" y="649" on="1"/>
        <pt x="348" y="662" on="0"/>
        <pt x="307" y="700" on="0"/>
        <pt x="275" y="749" on="0"/>
        <pt x="255" y="813" on="0"/>
        <pt x="255" y="853" on="1"/>
        <pt x="255" y="1050" on="1"/>
        <pt x="255" y="1093" on="0"/>
        <pt x="253" y="1167" on="0"/>
        <pt x="236" y="1222" on="0"/>
        <pt x="199" y="1253" on="0"/>
        <pt x="164" y="1253" on="1"/>
        <pt x="147" y="1253" on="1"/>
        <pt x="123" y="1253" on="0"/>
        <pt x="78" y="1265" on="0"/>
        <pt x="45" y="1293" on="0"/>
        <pt x="25" y="1336" on="0"/>
        <pt x="25" y="1368" on="1"/>
        <pt x="25" y="1416" on="0"/>
        <pt x="80" y="1479" on="0"/>
        <pt x="137" y="1479" on="1"/>
        <pt x="292" y="1479" on="1"/>
        <pt x="341" y="1479" on="0"/>
        <pt x="433" y="1447" on="0"/>
        <pt x="504" y="1386" on="0"/>
        <pt x="547" y="1295" on="0"/>
        <pt x="547" y="1237" on="1"/>
        <pt x="547" y="915" on="1"/>
        <pt x="547" y="870" on="0"/>
        <pt x="558" y="804" on="0"/>
        <pt x="585" y="759" on="0"/>
        <pt x="633" y="734" on="0"/>
        <pt x="670" y="731" on="1"/>
        <pt x="692" y="729" on="0"/>
        <pt x="733" y="715" on="0"/>
        <pt x="766" y="688" on="0"/>
        <pt x="786" y="645" on="0"/>
        <pt x="786" y="614" on="1"/>
        <pt x="786" y="591" on="0"/>
        <pt x="772" y="550" on="0"/>
        <pt x="746" y="518" on="0"/>
        <pt x="708" y="499" on="0"/>
        <pt x="683" y="499" on="1"/>
        <pt x="644" y="497" on="0"/>
        <pt x="591" y="475" on="0"/>
        <pt x="560" y="431" on="0"/>
        <pt x="547" y="363" on="0"/>
        <pt x="547" y="314" on="1"/>
        <pt x="547" y="4" on="1"/>
        <pt x="547" y="-47" on="0"/>
        <pt x="514" y="-138" on="0"/>
        <pt x="449" y="-207" on="0"/>
        <pt x="354" y="-248" on="0"/>
        <pt x="292" y="-248" on="1"/>
        <pt x="137" y="-248" on="1"/>
        <pt x="90" y="-248" on="0"/>
        <pt x="24" y="-193" on="0"/>
        <pt x="24" y="-136" on="1"/>
        <pt x="24" y="-113" on="0"/>
        <pt x="37" y="-72" on="0"/>
        <pt x="65" y="-41" on="0"/>
        <pt x="107" y="-23" on="0"/>
        <pt x="137" y="-23" on="1"/>
      </contour>
    </TTGlyph>
    <TTGlyph name="bracketleft" xMin="169" yMin="-245" xMax="696" yMax="1451">
      <contour>
        <pt x="169" y="1305" on="1"/>
        <pt x="169" y="1339" on="0"/>
        <pt x="194" y="1394" on="0"/>
        <pt x="239" y="1431" on="0"/>
        <pt x="300" y="1451" on="0"/>
        <pt x="337" y="1451" on="1"/>
        <pt x="585" y="1451" on="1"/>
        <pt x="610" y="1451" on="0"/>
        <pt x="652" y="1433" on="0"/>
        <pt x="680" y="1403" on="0"/>
        <pt x="696" y="1362" on="0"/>
        <pt x="696" y="1339" on="1"/>
        <pt x="696" y="1285" on="0"/>
        <pt x="625" y="1227" on="0"/>
        <pt x="562" y="1227" on="1"/>
        <pt x="460" y="1227" on="1"/>
        <pt x="460" y="-20" on="1"/>
        <pt x="562" y="-20" on="1"/>
        <pt x="625" y="-20" on="0"/>
        <pt x="696" y="-77" on="0"/>
        <pt x="696" y="-131" on="1"/>
        <pt x="696" y="-182" on="0"/>
        <pt x="629" y="-243" on="0"/>
        <pt x="563" y="-245" on="1"/>
        <pt x="337" y="-245" on="1"/>
        <pt x="296" y="-245" on="0"/>
        <pt x="234" y="-226" on="0"/>
        <pt x="191" y="-181" on="0"/>
        <pt x="169" y="-107" on="0"/>
        <pt x="169" y="-53" on="1"/>
      </contour>
    </TTGlyph>
    <TTGlyph name="bracketright" xMin="91" yMin="-245" xMax="619" yMax="1451">
      <contour>
        <pt x="619" y="-100" on="1"/>
        <pt x="619" y="-134" on="0"/>
        <pt x="593" y="-188" on="0"/>
        <pt x="548" y="-225" on="0"/>
        <pt x="486" y="-245" on="0"/>
        <pt x="451" y="-245" on="1"/>
        <pt x="203" y="-245" on="1"/>
        <pt x="147" y="-240" on="0"/>
        <pt x="91" y="-174" on="0"/>
        <pt x="91" y="-131" on="1"/>
        <pt x="91" y="-80" on="0"/>
        <pt x="158" y="-20" on="0"/>
        <pt x="226" y="-20" on="1"/>
        <pt x="327" y="-20" on="1"/>
        <pt x="327" y="1227" on="1"/>
        <pt x="226" y="1227" on="1"/>
        <pt x="162" y="1227" on="0"/>
        <pt x="92" y="1284" on="0"/>
        <pt x="92" y="1339" on="1"/>
        <pt x="92" y="1390" on="0"/>
        <pt x="158" y="1451" on="0"/>
        <pt x="225" y="1451" on="1"/>
        <pt x="451" y="1451" on="1"/>
        <pt x="490" y="1451" on="0"/>
        <pt x="552" y="1432" on="0"/>
        <pt x="596" y="1387" on="0"/>
        <pt x="619" y="1313" on="0"/>
        <pt x="619" y="1258" on="1"/>
      </contour>
    </TTGlyph>
    <TTGlyph name="breve" xMin="-50" yMin="1180" xMax="619" yMax="1507">
      <contour>
        <pt x="285" y="1181" on="1"/>
        <pt x="179" y="1181" on="0"/>
        <pt x="19" y="1264" on="0"/>
        <pt x="-25" y="1346" on="1"/>
        <pt x="-36" y="1366" on="0"/>
        <pt x="-50" y="1405" on="0"/>
        <pt x="-50" y="1427" on="1"/>
        <pt x="-50" y="1446" on="0"/>
        <pt x="-35" y="1476" on="0"/>
        <pt x="-9" y="1497" on="0"/>
        <pt x="24" y="1507" on="0"/>
        <pt x="41" y="1507" on="1"/>
        <pt x="73" y="1507" on="0"/>
        <pt x="122" y="1467" on="0"/>
        <pt x="144" y="1436" on="1"/>
        <pt x="168" y="1401" on="0"/>
        <pt x="233" y="1374" on="0"/>
        <pt x="285" y="1374" on="1"/>
        <pt x="333" y="1374" on="0"/>
        <pt x="398" y="1398" on="0"/>
        <pt x="421" y="1430" on="1"/>
        <pt x="442" y="1459" on="0"/>
        <pt x="493" y="1507" on="0"/>
        <pt x="528" y="1507" on="1"/>
        <pt x="565" y="1507" on="0"/>
        <pt x="619" y="1463" on="0"/>
        <pt x="619" y="1421" on="1"/>
        <pt x="619" y="1393" on="0"/>
        <pt x="595" y="1336" on="0"/>
        <pt x="556" y="1285" on="0"/>
        <pt x="507" y="1242" on="0"/>
        <pt x="483" y="1229" on="1"/>
        <pt x="441" y="1205" on="0"/>
        <pt x="342" y="1180" on="0"/>
      </contour>
    </TTGlyph>
    <TTGlyph name="brokenbar" xMin="125" yMin="-23" xMax="330" yMax="1454">
      <contour>
        <pt x="125" y="1352" on="1"/>
        <pt x="125" y="1400" on="0"/>
        <pt x="184" y="1454" on="0"/>
        <pt x="228" y="1454" on="1"/>
        <pt x="280" y="1454" on="0"/>
        <pt x="330" y="1382" on="0"/>
        <pt x="330" y="1325" on="1"/>
        <pt x="330" y="865" on="1"/>
        <pt x="330" y="840" on="0"/>
        <pt x="320" y="793" on="0"/>
        <pt x="296" y="757" on="0"/>
        <pt x="257" y="735" on="0"/>
        <pt x="227" y="735" on="1"/>
        <pt x="174" y="735" on="0"/>
        <pt x="125" y="805" on="0"/>
        <pt x="125" y="865" on="1"/>
      </contour>
      <contour>
        <pt x="125" y="611" on="1"/>
        <pt x="125" y="656" on="0"/>
        <pt x="183" y="713" on="0"/>
        <pt x="228" y="713" on="1"/>
        <pt x="280" y="713" on="0"/>
        <pt x="330" y="642" on="0"/>
        <pt x="330" y="582" on="1"/>
        <pt x="330" y="107" on="1"/>
        <pt x="330" y="82" on="0"/>
        <pt x="320" y="35" on="0"/>
        <pt x="297" y="-1" on="0"/>
        <pt x="257" y="-23" on="0"/>
        <pt x="227" y="-23" on="1"/>
        <pt x="174" y="-23" on="0"/>
        <pt x="125" y="46" on="0"/>
        <pt x="125" y="107" on="1"/>
      </contour>
    </TTGlyph>
    <TTGlyph name="bullet" xMin="142" yMin="362" xMax="882" yMax="1087">
      <contour>
        <pt x="882" y="723" on="1"/>
        <pt x="882" y="648" on="0"/>
        <pt x="823" y="517" on="0"/>
        <pt x="722" y="419" on="0"/>
        <pt x="587" y="362" on="0"/>
        <pt x="511" y="362" on="1"/>
        <pt x="436" y="362" on="0"/>
        <pt x="302" y="418" on="0"/>
        <pt x="201" y="515" on="0"/>
        <pt x="142" y="647" on="0"/>
        <pt x="142" y="723" on="1"/>
        <pt x="142" y="794" on="0"/>
        <pt x="197" y="926" on="0"/>
        <pt x="295" y="1027" on="0"/>
        <pt x="430" y="1087" on="0"/>
        <pt x="511" y="1087" on="1"/>
        <pt x="585" y="1087" on="0"/>
        <pt x="720" y="1031" on="0"/>
        <pt x="822" y="934" on="0"/>
        <pt x="882" y="801" on="0"/>
      </contour>
    </TTGlyph>
    <TTGlyph name="c" xMin="72" yMin="-12" xMax="959" yMax="1025">
      <contour>
        <pt x="72" y="507" on="1"/>
        <pt x="72" y="620" on="0"/>
        <pt x="154" y="810" on="0"/>
        <pt x="297" y="948" on="0"/>
        <pt x="492" y="1025" on="0"/>
        <pt x="606" y="1025" on="1"/>
        <pt x="666" y="1025" on="0"/>
        <pt x="787" y="1005" on="0"/>
        <pt x="884" y="963" on="0"/>
        <pt x="945" y="898" on="0"/>
        <pt x="945" y="853" on="1"/>
        <pt x="945" y="809" on="0"/>
        <pt x="888" y="757" on="0"/>
        <pt x="844" y="757" on="1"/>
        <pt x="821" y="757" on="0"/>
        <pt x="771" y="767" on="0"/>
        <pt x="718" y="778" on="0"/>
        <pt x="666" y="788" on="0"/>
        <pt x="642" y="788" on="1"/>
        <pt x="591" y="788" on="0"/>
        <pt x="501" y="753" on="0"/>
        <pt x="435" y="683" on="0"/>
        <pt x="396" y="579" on="0"/>
        <pt x="396" y="509" on="1"/>
        <pt x="396" y="453" on="0"/>
        <pt x="426" y="351" on="0"/>
        <pt x="487" y="274" on="0"/>
        <pt x="580" y="228" on="0"/>
        <pt x="643" y="228" on="1"/>
        <pt x="668" y="228" on="0"/>
        <pt x="725" y="238" on="0"/>
        <pt x="781" y="251" on="0"/>
        <pt x="836" y="261" on="0"/>
        <pt x="860" y="261" on="1"/>
        <pt x="902" y="261" on="0"/>
        <pt x="959" y="210" on="0"/>
        <pt x="959" y="168" on="1"/>
        <pt x="959" y="125" on="0"/>
        <pt x="897" y="58" on="0"/>
        <pt x="795" y="12" on="0"/>
        <pt x="664" y="-12" on="0"/>
        <pt x="595" y="-12" on="1"/>
        <pt x="496" y="-12" on="0"/>
        <pt x="307" y="53" on="0"/>
        <pt x="161" y="182" on="0"/>
        <pt x="72" y="377" on="0"/>
      </contour>
    </TTGlyph>
    <TTGlyph name="caron" xMin="-61" yMin="1122" xMax="618" yMax="1575">
      <contour>
        <pt x="-33" y="1433" on="1"/>
        <pt x="-48" y="1450" on="0"/>
        <pt x="-61" y="1482" on="0"/>
        <pt x="-61" y="1499" on="1"/>
        <pt x="-61" y="1533" on="0"/>
        <pt x="-9" y="1575" on="0"/>
        <pt x="27" y="1575" on="1"/>
        <pt x="89" y="1575" on="0"/>
        <pt x="149" y="1496" on="1"/>
        <pt x="283" y="1317" on="1"/>
        <pt x="315" y="1359" on="0"/>
        <pt x="378" y="1442" on="0"/>
        <pt x="409" y="1486" on="1"/>
        <pt x="437" y="1524" on="0"/>
        <pt x="499" y="1572" on="0"/>
        <pt x="533" y="1572" on="1"/>
        <pt x="571" y="1572" on="0"/>
        <pt x="618" y="1528" on="0"/>
        <pt x="618" y="1492" on="1"/>
        <pt x="618" y="1470" on="0"/>
        <pt x="588" y="1422" on="0"/>
        <pt x="571" y="1401" on="1"/>
        <pt x="418" y="1208" on="1"/>
        <pt x="386" y="1167" on="0"/>
        <pt x="322" y="1122" on="0"/>
        <pt x="284" y="1122" on="1"/>
        <pt x="249" y="1122" on="0"/>
        <pt x="186" y="1156" on="0"/>
        <pt x="161" y="1188" on="1"/>
      </contour>
    </TTGlyph>
    <TTGlyph name="ccedilla" xMin="72" yMin="-443" xMax="959" yMax="1025">
      <component glyphName="c" x="0" y="0" flags="0x1004"/>
      <component glyphName="cedilla" x="259" y="0" flags="0x1004"/>
    </TTGlyph>
    <TTGlyph name="cedilla" xMin="39" yMin="-443" xMax="531" yMax="5">
      <contour>
        <pt x="235" y="5" on="1"/>
        <pt x="346" y="5" on="1"/>
        <pt x="297" y="-109" on="1"/>
        <pt x="336" y="-106" on="0"/>
        <pt x="362" y="-106" on="1"/>
        <pt x="398" y="-107" on="0"/>
        <pt x="459" y="-127" on="0"/>
        <pt x="505" y="-168" on="0"/>
        <pt x="531" y="-229" on="0"/>
        <pt x="531" y="-272" on="1"/>
        <pt x="529" y="-316" on="0"/>
        <pt x="485" y="-381" on="0"/>
        <pt x="416" y="-423" on="0"/>
        <pt x="327" y="-443" on="0"/>
        <pt x="279" y="-443" on="1"/>
        <pt x="245" y="-443" on="0"/>
        <pt x="169" y="-434" on="0"/>
        <pt x="102" y="-419" on="0"/>
        <pt x="52" y="-397" on="0"/>
        <pt x="45" y="-385" on="1"/>
        <pt x="39" y="-375" on="0"/>
        <pt x="39" y="-359" on="1"/>
        <pt x="39" y="-338" on="0"/>
        <pt x="63" y="-306" on="0"/>
        <pt x="86" y="-306" on="1"/>
        <pt x="88" y="-306" on="0"/>
        <pt x="92" y="-307" on="0"/>
        <pt x="94" y="-307" on="1"/>
        <pt x="128" y="-316" on="0"/>
        <pt x="212" y="-341" on="0"/>
        <pt x="250" y="-341" on="1"/>
        <pt x="307" y="-341" on="0"/>
        <pt x="356" y="-298" on="0"/>
        <pt x="356" y="-263" on="1"/>
        <pt x="356" y="-244" on="0"/>
        <pt x="339" y="-218" on="0"/>
        <pt x="312" y="-202" on="0"/>
        <pt x="278" y="-195" on="0"/>
        <pt x="261" y="-195" on="1"/>
        <pt x="253" y="-196" on="0"/>
        <pt x="237" y="-199" on="0"/>
        <pt x="229" y="-200" on="1"/>
        <pt x="201" y="-200" on="0"/>
        <pt x="170" y="-179" on="0"/>
        <pt x="170" y="-158" on="1"/>
        <pt x="170" y="-143" on="0"/>
        <pt x="179" y="-123" on="1"/>
      </contour>
    </TTGlyph>
    <TTGlyph name="cent" xMin="104" yMin="-271" xMax="1002" yMax="1285">
      <contour>
        <pt x="104" y="507" on="1"/>
        <pt x="104" y="617" on="0"/>
        <pt x="176" y="799" on="0"/>
        <pt x="301" y="934" on="0"/>
        <pt x="468" y="1017" on="0"/>
        <pt x="564" y="1029" on="1"/>
        <pt x="564" y="1199" on="1"/>
        <pt x="564" y="1242" on="0"/>
        <pt x="602" y="1285" on="0"/>
        <pt x="636" y="1285" on="1"/>
        <pt x="663" y="1285" on="0"/>
        <pt x="707" y="1249" on="0"/>
        <pt x="707" y="1214" on="1"/>
        <pt x="707" y="1030" on="1"/>
        <pt x="758" y="1025" on="0"/>
        <pt x="859" y="998" on="0"/>
        <pt x="939" y="955" on="0"/>
        <pt x="989" y="899" on="0"/>
        <pt x="989" y="866" on="1"/>
        <pt x="989" y="849" on="0"/>
        <pt x="976" y="812" on="0"/>
        <pt x="952" y="781" on="0"/>
        <pt x="916" y="761" on="0"/>
        <pt x="893" y="761" on="1"/>
        <pt x="887" y="761" on="1"/>
        <pt x="834" y="772" on="0"/>
        <pt x="736" y="796" on="0"/>
        <pt x="688" y="796" on="1"/>
        <pt x="634" y="796" on="0"/>
        <pt x="540" y="765" on="0"/>
        <pt x="469" y="696" on="0"/>
        <pt x="428" y="587" on="0"/>
        <pt x="428" y="509" on="1"/>
        <pt x="428" y="436" on="0"/>
        <pt x="465" y="327" on="0"/>
        <pt x="532" y="255" on="0"/>
        <pt x="628" y="220" on="0"/>
        <pt x="688" y="220" on="1"/>
        <pt x="740" y="220" on="0"/>
        <pt x="853" y="246" on="0"/>
        <pt x="904" y="258" on="1"/>
        <pt x="909" y="258" on="1"/>
        <pt x="931" y="258" on="0"/>
        <pt x="966" y="238" on="0"/>
        <pt x="990" y="208" on="0"/>
        <pt x="1002" y="172" on="0"/>
        <pt x="1002" y="155" on="1"/>
        <pt x="1002" y="113" on="0"/>
        <pt x="941" y="52" on="0"/>
        <pt x="851" y="12" on="0"/>
        <pt x="749" y="-12" on="0"/>
        <pt x="707" y="-16" on="1"/>
        <pt x="707" y="-200" on="1"/>
        <pt x="707" y="-233" on="0"/>
        <pt x="664" y="-271" on="0"/>
        <pt x="635" y="-271" on="1"/>
        <pt x="606" y="-271" on="0"/>
        <pt x="564" y="-234" on="0"/>
        <pt x="564" y="-200" on="1"/>
        <pt x="564" y="-16" on="1"/>
        <pt x="468" y="-7" on="0"/>
        <pt x="300" y="71" on="0"/>
        <pt x="175" y="204" on="0"/>
        <pt x="104" y="390" on="0"/>
      </contour>
    </TTGlyph>
    <TTGlyph name="circumflex" xMin="-61" yMin="1138" xMax="619" yMax="1591">
      <contour>
        <pt x="161" y="1526" on="1"/>
        <pt x="187" y="1557" on="0"/>
        <pt x="249" y="1591" on="0"/>
        <pt x="283" y="1591" on="1"/>
        <pt x="313" y="1590" on="0"/>
        <pt x="377" y="1560" on="0"/>
        <pt x="403" y="1526" on="1"/>
        <pt x="572" y="1310" on="1"/>
        <pt x="590" y="1287" on="0"/>
        <pt x="619" y="1236" on="0"/>
        <pt x="619" y="1214" on="1"/>
        <pt x="619" y="1182" on="0"/>
        <pt x="570" y="1141" on="0"/>
        <pt x="537" y="1141" on="1"/>
        <pt x="506" y="1141" on="0"/>
        <pt x="446" y="1176" on="0"/>
        <pt x="416" y="1217" on="1"/>
        <pt x="383" y="1262" on="0"/>
        <pt x="316" y="1351" on="0"/>
        <pt x="283" y="1396" on="1"/>
        <pt x="251" y="1354" on="0"/>
        <pt x="186" y="1263" on="0"/>
        <pt x="121" y="1187" on="0"/>
        <pt x="56" y="1138" on="0"/>
        <pt x="24" y="1138" on="1"/>
        <pt x="8" y="1138" on="0"/>
        <pt x="-22" y="1148" on="0"/>
        <pt x="-46" y="1167" on="0"/>
        <pt x="-60" y="1193" on="0"/>
        <pt x="-60" y="1210" on="1"/>
        <pt x="-61" y="1227" on="0"/>
        <pt x="-37" y="1276" on="0"/>
        <pt x="-18" y="1299" on="1"/>
      </contour>
    </TTGlyph>
    <TTGlyph name="colon" xMin="155" yMin="-6" xMax="493" yMax="1053">
      <contour>
        <pt x="155" y="889" on="1"/>
        <pt x="155" y="922" on="0"/>
        <pt x="180" y="981" on="0"/>
        <pt x="225" y="1026" on="0"/>
        <pt x="287" y="1053" on="0"/>
        <pt x="324" y="1053" on="1"/>
        <pt x="357" y="1053" on="0"/>
        <pt x="419" y="1029" on="0"/>
        <pt x="465" y="985" on="0"/>
        <pt x="493" y="925" on="0"/>
        <pt x="493" y="889" on="1"/>
        <pt x="493" y="856" on="0"/>
        <pt x="468" y="797" on="0"/>
        <pt x="423" y="752" on="0"/>
        <pt x="361" y="726" on="0"/>
        <pt x="324" y="726" on="1"/>
        <pt x="290" y="726" on="0"/>
        <pt x="229" y="749" on="0"/>
        <pt x="182" y="792" on="0"/>
        <pt x="155" y="852" on="0"/>
      </contour>
      <contour>
        <pt x="155" y="158" on="1"/>
        <pt x="155" y="191" on="0"/>
        <pt x="180" y="250" on="0"/>
        <pt x="225" y="295" on="0"/>
        <pt x="287" y="322" on="0"/>
        <pt x="324" y="322" on="1"/>
        <pt x="357" y="322" on="0"/>
        <pt x="418" y="298" on="0"/>
        <pt x="465" y="255" on="0"/>
        <pt x="493" y="195" on="0"/>
        <pt x="493" y="158" on="1"/>
        <pt x="493" y="125" on="0"/>
        <pt x="467" y="65" on="0"/>
        <pt x="422" y="20" on="0"/>
        <pt x="360" y="-6" on="0"/>
        <pt x="324" y="-6" on="1"/>
        <pt x="289" y="-6" on="0"/>
        <pt x="228" y="19" on="0"/>
        <pt x="182" y="63" on="0"/>
        <pt x="155" y="123" on="0"/>
      </contour>
    </TTGlyph>
    <TTGlyph name="comma" xMin="68" yMin="-223" xMax="514" yMax="298">
      <contour>
        <pt x="341" y="-223" on="1"/>
        <pt x="68" y="-223" on="1"/>
        <pt x="184" y="298" on="1"/>
        <pt x="514" y="298" on="1"/>
      </contour>
    </TTGlyph>
    <TTGlyph name="copyright" xMin="140" yMin="67" xMax="1605" yMax="1470">
      <contour>
        <pt x="874" y="67" on="1"/>
        <pt x="776" y="67" on="0"/>
        <pt x="591" y="115" on="0"/>
        <pt x="428" y="204" on="0"/>
        <pt x="292" y="329" on="0"/>
        <pt x="194" y="485" on="0"/>
        <pt x="140" y="666" on="0"/>
        <pt x="140" y="766" on="1"/>
        <pt x="140" y="859" on="0"/>
        <pt x="190" y="1036" on="0"/>
        <pt x="283" y="1192" on="0"/>
        <pt x="415" y="1323" on="0"/>
        <pt x="578" y="1417" on="0"/>
        <pt x="769" y="1470" on="0"/>
        <pt x="874" y="1470" on="1"/>
        <pt x="970" y="1470" on="0"/>
        <pt x="1153" y="1422" on="0"/>
        <pt x="1316" y="1333" on="0"/>
        <pt x="1452" y="1206" on="0"/>
        <pt x="1550" y="1050" on="0"/>
        <pt x="1605" y="867" on="0"/>
        <pt x="1605" y="766" on="1"/>
        <pt x="1605" y="670" on="0"/>
        <pt x="1553" y="492" on="0"/>
        <pt x="1457" y="336" on="0"/>
        <pt x="1323" y="209" on="0"/>
        <pt x="1161" y="117" on="0"/>
        <pt x="974" y="67" on="0"/>
      </contour>
      <contour>
        <pt x="304" y="766" on="1"/>
        <pt x="304" y="650" on="0"/>
        <pt x="389" y="446" on="0"/>
        <pt x="541" y="294" on="0"/>
        <pt x="750" y="207" on="0"/>
        <pt x="874" y="207" on="1"/>
        <pt x="990" y="207" on="0"/>
        <pt x="1196" y="289" on="0"/>
        <pt x="1351" y="438" on="0"/>
        <pt x="1442" y="643" on="0"/>
        <pt x="1442" y="766" on="1"/>
        <pt x="1442" y="881" on="0"/>
        <pt x="1357" y="1085" on="0"/>
        <pt x="1206" y="1237" on="0"/>
        <pt x="997" y="1325" on="0"/>
        <pt x="874" y="1325" on="1"/>
        <pt x="753" y="1325" on="0"/>
        <pt x="545" y="1240" on="0"/>
        <pt x="392" y="1090" on="0"/>
        <pt x="304" y="885" on="0"/>
      </contour>
      <contour>
        <pt x="975" y="517" on="1"/>
        <pt x="1003" y="518" on="0"/>
        <pt x="1056" y="532" on="0"/>
        <pt x="1084" y="546" on="1"/>
        <pt x="1093" y="549" on="0"/>
        <pt x="1100" y="549" on="1"/>
        <pt x="1122" y="549" on="0"/>
        <pt x="1151" y="512" on="0"/>
        <pt x="1151" y="490" on="1"/>
        <pt x="1151" y="467" on="0"/>
        <pt x="1121" y="431" on="0"/>
        <pt x="1073" y="405" on="0"/>
        <pt x="1013" y="387" on="0"/>
        <pt x="953" y="376" on="0"/>
        <pt x="898" y="371" on="0"/>
        <pt x="880" y="371" on="1"/>
        <pt x="805" y="371" on="0"/>
        <pt x="666" y="419" on="0"/>
        <pt x="559" y="516" on="0"/>
        <pt x="494" y="666" on="0"/>
        <pt x="494" y="768" on="1"/>
        <pt x="494" y="865" on="0"/>
        <pt x="556" y="1012" on="0"/>
        <pt x="662" y="1111" on="0"/>
        <pt x="803" y="1160" on="0"/>
        <pt x="881" y="1160" on="1"/>
        <pt x="903" y="1160" on="0"/>
        <pt x="959" y="1155" on="0"/>
        <pt x="1019" y="1143" on="0"/>
        <pt x="1076" y="1125" on="0"/>
        <pt x="1121" y="1101" on="0"/>
        <pt x="1149" y="1069" on="0"/>
        <pt x="1149" y="1050" on="1"/>
        <pt x="1149" y="1026" on="0"/>
        <pt x="1119" y="983" on="0"/>
        <pt x="1093" y="983" on="1"/>
        <pt x="1084" y="983" on="0"/>
        <pt x="1055" y="992" on="0"/>
        <pt x="1023" y="1003" on="0"/>
        <pt x="991" y="1015" on="0"/>
        <pt x="978" y="1018" on="1"/>
        <pt x="936" y="1027" on="0"/>
        <pt x="897" y="1027" on="1"/>
        <pt x="848" y="1027" on="0"/>
        <pt x="762" y="999" on="0"/>
        <pt x="698" y="938" on="0"/>
        <pt x="661" y="840" on="0"/>
        <pt x="661" y="770" on="1"/>
        <pt x="661" y="706" on="0"/>
        <pt x="696" y="608" on="0"/>
        <pt x="758" y="541" on="0"/>
        <pt x="842" y="506" on="0"/>
        <pt x="891" y="506" on="1"/>
        <pt x="931" y="506" on="0"/>
      </contour>
    </TTGlyph>
    <TTGlyph name="currency" xMin="184" yMin="158" xMax="1088" yMax="1061">
      <contour>
        <pt x="636" y="198" on="1"/>
        <pt x="561" y="198" on="0"/>
        <pt x="437" y="232" on="0"/>
        <pt x="386" y="264" on="1"/>
        <pt x="323" y="200" on="1"/>
        <pt x="303" y="179" on="0"/>
        <pt x="270" y="158" on="0"/>
        <pt x="247" y="158" on="1"/>
        <pt x="231" y="159" on="0"/>
        <pt x="208" y="173" on="0"/>
        <pt x="193" y="195" on="0"/>
        <pt x="185" y="222" on="0"/>
        <pt x="185" y="236" on="1"/>
        <pt x="188" y="258" on="0"/>
        <pt x="205" y="275" on="1"/>
        <pt x="285" y="355" on="1"/>
        <pt x="240" y="410" on="0"/>
        <pt x="199" y="543" on="0"/>
        <pt x="199" y="614" on="1"/>
        <pt x="199" y="682" on="0"/>
        <pt x="239" y="812" on="0"/>
        <pt x="281" y="868" on="1"/>
        <pt x="219" y="931" on="1"/>
        <pt x="204" y="947" on="0"/>
        <pt x="184" y="975" on="0"/>
        <pt x="185" y="998" on="1"/>
        <pt x="186" y="1023" on="0"/>
        <pt x="228" y="1061" on="0"/>
        <pt x="254" y="1061" on="1"/>
        <pt x="271" y="1061" on="0"/>
        <pt x="300" y="1040" on="0"/>
        <pt x="315" y="1027" on="1"/>
        <pt x="380" y="961" on="1"/>
        <pt x="431" y="994" on="0"/>
        <pt x="557" y="1033" on="0"/>
        <pt x="636" y="1033" on="1"/>
        <pt x="714" y="1033" on="0"/>
        <pt x="841" y="996" on="0"/>
        <pt x="892" y="961" on="1"/>
        <pt x="957" y="1027" on="1"/>
        <pt x="971" y="1041" on="0"/>
        <pt x="1008" y="1059" on="0"/>
        <pt x="1022" y="1059" on="1"/>
        <pt x="1046" y="1059" on="0"/>
        <pt x="1086" y="1023" on="0"/>
        <pt x="1088" y="998" on="1"/>
        <pt x="1088" y="975" on="0"/>
        <pt x="1069" y="946" on="0"/>
        <pt x="1054" y="931" on="1"/>
        <pt x="991" y="868" on="1"/>
        <pt x="1033" y="814" on="0"/>
        <pt x="1074" y="681" on="0"/>
        <pt x="1074" y="614" on="1"/>
        <pt x="1074" y="542" on="0"/>
        <pt x="1031" y="411" on="0"/>
        <pt x="987" y="354" on="1"/>
        <pt x="1046" y="296" on="1"/>
        <pt x="1066" y="276" on="0"/>
        <pt x="1087" y="243" on="0"/>
        <pt x="1088" y="220" on="1"/>
        <pt x="1086" y="204" on="0"/>
        <pt x="1072" y="180" on="0"/>
        <pt x="1050" y="165" on="0"/>
        <pt x="1023" y="158" on="0"/>
        <pt x="1010" y="158" on="1"/>
        <pt x="996" y="160" on="0"/>
        <pt x="968" y="180" on="0"/>
        <pt x="957" y="193" on="1"/>
        <pt x="885" y="264" on="1"/>
        <pt x="784" y="198" on="0"/>
      </contour>
      <contour>
        <pt x="636" y="907" on="1"/>
        <pt x="564" y="907" on="0"/>
        <pt x="457" y="856" on="0"/>
        <pt x="386" y="773" on="0"/>
        <pt x="351" y="668" on="0"/>
        <pt x="351" y="614" on="1"/>
        <pt x="351" y="559" on="0"/>
        <pt x="387" y="454" on="0"/>
        <pt x="458" y="372" on="0"/>
        <pt x="565" y="322" on="0"/>
        <pt x="636" y="322" on="1"/>
        <pt x="704" y="322" on="0"/>
        <pt x="810" y="369" on="0"/>
        <pt x="883" y="450" on="0"/>
        <pt x="921" y="555" on="0"/>
        <pt x="921" y="614" on="1"/>
        <pt x="921" y="668" on="0"/>
        <pt x="885" y="774" on="0"/>
        <pt x="813" y="856" on="0"/>
        <pt x="706" y="907" on="0"/>
      </contour>
    </TTGlyph>
    <TTGlyph name="d" xMin="79" yMin="-12" xMax="1150" yMax="1452">
      <contour>
        <pt x="613" y="829" on="1"/>
        <pt x="553" y="829" on="0"/>
        <pt x="472" y="779" on="0"/>
        <pt x="424" y="692" on="0"/>
        <pt x="403" y="576" on="0"/>
        <pt x="403" y="511" on="1"/>
        <pt x="403" y="454" on="0"/>
        <pt x="419" y="336" on="0"/>
        <pt x="463" y="240" on="0"/>
        <pt x="542" y="178" on="0"/>
        <pt x="605" y="178" on="1"/>
        <pt x="667" y="178" on="0"/>
        <pt x="752" y="218" on="0"/>
        <pt x="805" y="301" on="0"/>
        <pt x="828" y="428" on="0"/>
        <pt x="828" y="514" on="1"/>
        <pt x="828" y="585" on="0"/>
        <pt x="806" y="701" on="0"/>
        <pt x="756" y="784" on="0"/>
        <pt x="674" y="829" on="0"/>
      </contour>
      <contour>
        <pt x="831" y="1255" on="1"/>
        <pt x="831" y="1350" on="0"/>
        <pt x="900" y="1452" on="0"/>
        <pt x="984" y="1452" on="1"/>
        <pt x="1073" y="1452" on="0"/>
        <pt x="1150" y="1350" on="0"/>
        <pt x="1150" y="1255" on="1"/>
        <pt x="1150" y="197" on="1"/>
        <pt x="1150" y="102" on="0"/>
        <pt x="1073" y="0" on="0"/>
        <pt x="984" y="0" on="1"/>
        <pt x="900" y="0" on="0"/>
        <pt x="831" y="102" on="0"/>
        <pt x="831" y="197" on="1"/>
        <pt x="769" y="86" on="0"/>
        <pt x="592" y="-12" on="0"/>
        <pt x="474" y="-12" on="1"/>
        <pt x="383" y="-12" on="0"/>
        <pt x="237" y="71" on="0"/>
        <pt x="134" y="214" on="0"/>
        <pt x="79" y="405" on="0"/>
        <pt x="79" y="512" on="1"/>
        <pt x="79" y="626" on="0"/>
        <pt x="137" y="814" on="0"/>
        <pt x="242" y="949" on="0"/>
        <pt x="391" y="1023" on="0"/>
        <pt x="481" y="1023" on="1"/>
        <pt x="592" y="1023" on="0"/>
        <pt x="773" y="923" on="0"/>
        <pt x="831" y="830" on="1"/>
      </contour>
    </TTGlyph>
    <TTGlyph name="dagger" xMin="169" yMin="3" xMax="1129" yMax="1476">
      <contour>
        <pt x="790" y="916" on="1"/>
        <pt x="790" y="210" on="1"/>
        <pt x="790" y="168" on="0"/>
        <pt x="777" y="93" on="0"/>
        <pt x="745" y="36" on="0"/>
        <pt x="690" y="3" on="0"/>
        <pt x="649" y="3" on="1"/>
        <pt x="582" y="3" on="0"/>
        <pt x="509" y="90" on="0"/>
        <pt x="509" y="175" on="1"/>
        <pt x="509" y="916" on="1"/>
        <pt x="315" y="916" on="1"/>
        <pt x="286" y="916" on="0"/>
        <pt x="233" y="927" on="0"/>
        <pt x="193" y="954" on="0"/>
        <pt x="169" y="998" on="0"/>
        <pt x="169" y="1030" on="1"/>
        <pt x="169" y="1086" on="0"/>
        <pt x="241" y="1147" on="0"/>
        <pt x="315" y="1147" on="1"/>
        <pt x="509" y="1147" on="1"/>
        <pt x="509" y="1273" on="1"/>
        <pt x="509" y="1313" on="0"/>
        <pt x="521" y="1386" on="0"/>
        <pt x="553" y="1442" on="0"/>
        <pt x="607" y="1476" on="0"/>
        <pt x="649" y="1476" on="1"/>
        <pt x="715" y="1476" on="0"/>
        <pt x="790" y="1388" on="0"/>
        <pt x="790" y="1306" on="1"/>
        <pt x="790" y="1147" on="1"/>
        <pt x="981" y="1147" on="1"/>
        <pt x="1009" y="1147" on="0"/>
        <pt x="1063" y="1136" on="0"/>
        <pt x="1104" y="1109" on="0"/>
        <pt x="1129" y="1066" on="0"/>
        <pt x="1129" y="1033" on="1"/>
        <pt x="1129" y="972" on="0"/>
        <pt x="1050" y="916" on="0"/>
        <pt x="981" y="916" on="1"/>
      </contour>
    </TTGlyph>
    <TTGlyph name="daggerdbl" xMin="169" yMin="2" xMax="1129" yMax="1476">
      <contour>
        <pt x="784" y="297" on="1"/>
        <pt x="784" y="198" on="1"/>
        <pt x="784" y="159" on="0"/>
        <pt x="771" y="88" on="0"/>
        <pt x="740" y="34" on="0"/>
        <pt x="688" y="2" on="0"/>
        <pt x="649" y="2" on="1"/>
        <pt x="579" y="2" on="0"/>
        <pt x="514" y="96" on="0"/>
        <pt x="514" y="184" on="1"/>
        <pt x="514" y="297" on="1"/>
        <pt x="325" y="297" on="1"/>
        <pt x="295" y="297" on="0"/>
        <pt x="238" y="306" on="0"/>
        <pt x="195" y="330" on="0"/>
        <pt x="169" y="372" on="0"/>
        <pt x="169" y="405" on="1"/>
        <pt x="169" y="459" on="0"/>
        <pt x="242" y="516" on="0"/>
        <pt x="311" y="516" on="1"/>
        <pt x="514" y="516" on="1"/>
        <pt x="514" y="960" on="1"/>
        <pt x="311" y="960" on="1"/>
        <pt x="283" y="960" on="0"/>
        <pt x="231" y="970" on="0"/>
        <pt x="192" y="995" on="0"/>
        <pt x="169" y="1037" on="0"/>
        <pt x="169" y="1068" on="1"/>
        <pt x="169" y="1122" on="0"/>
        <pt x="242" y="1179" on="0"/>
        <pt x="311" y="1179" on="1"/>
        <pt x="514" y="1179" on="1"/>
        <pt x="514" y="1278" on="1"/>
        <pt x="514" y="1315" on="0"/>
        <pt x="525" y="1386" on="0"/>
        <pt x="554" y="1442" on="0"/>
        <pt x="607" y="1476" on="0"/>
        <pt x="649" y="1476" on="1"/>
        <pt x="718" y="1476" on="0"/>
        <pt x="784" y="1381" on="0"/>
        <pt x="784" y="1293" on="1"/>
        <pt x="784" y="1179" on="1"/>
        <pt x="986" y="1179" on="1"/>
        <pt x="1014" y="1179" on="0"/>
        <pt x="1065" y="1168" on="0"/>
        <pt x="1105" y="1143" on="0"/>
        <pt x="1129" y="1102" on="0"/>
        <pt x="1129" y="1071" on="1"/>
        <pt x="1129" y="1016" on="0"/>
        <pt x="1053" y="960" on="0"/>
        <pt x="986" y="960" on="1"/>
        <pt x="784" y="960" on="1"/>
        <pt x="784" y="516" on="1"/>
        <pt x="986" y="516" on="1"/>
        <pt x="1014" y="516" on="0"/>
        <pt x="1065" y="505" on="0"/>
        <pt x="1105" y="480" on="0"/>
        <pt x="1129" y="439" on="0"/>
        <pt x="1129" y="408" on="1"/>
        <pt x="1129" y="353" on="0"/>
        <pt x="1053" y="297" on="0"/>
        <pt x="986" y="297" on="1"/>
      </contour>
    </TTGlyph>
    <TTGlyph name="degree" xMin="110" yMin="870" xMax="709" yMax="1457">
      <contour>
        <pt x="709" y="1164" on="1"/>
        <pt x="709" y="1104" on="0"/>
        <pt x="662" y="997" on="0"/>
        <pt x="581" y="917" on="0"/>
        <pt x="472" y="870" on="0"/>
        <pt x="410" y="870" on="1"/>
        <pt x="349" y="870" on="0"/>
        <pt x="240" y="915" on="0"/>
        <pt x="158" y="993" on="0"/>
        <pt x="110" y="1101" on="0"/>
        <pt x="110" y="1164" on="1"/>
        <pt x="110" y="1222" on="0"/>
        <pt x="155" y="1328" on="0"/>
        <pt x="235" y="1409" on="0"/>
        <pt x="345" y="1457" on="0"/>
        <pt x="410" y="1457" on="1"/>
        <pt x="469" y="1457" on="0"/>
        <pt x="577" y="1412" on="0"/>
        <pt x="660" y="1334" on="0"/>
        <pt x="709" y="1227" on="0"/>
      </contour>
      <contour>
        <pt x="249" y="1164" on="1"/>
        <pt x="249" y="1131" on="0"/>
        <pt x="273" y="1074" on="0"/>
        <pt x="316" y="1032" on="0"/>
        <pt x="375" y="1007" on="0"/>
        <pt x="410" y="1007" on="1"/>
        <pt x="441" y="1007" on="0"/>
        <pt x="499" y="1029" on="0"/>
        <pt x="543" y="1070" on="0"/>
        <pt x="570" y="1128" on="0"/>
        <pt x="570" y="1164" on="1"/>
        <pt x="570" y="1195" on="0"/>
        <pt x="546" y="1251" on="0"/>
        <pt x="504" y="1295" on="0"/>
        <pt x="445" y="1321" on="0"/>
        <pt x="409" y="1321" on="1"/>
        <pt x="375" y="1321" on="0"/>
        <pt x="316" y="1296" on="0"/>
        <pt x="273" y="1254" on="0"/>
        <pt x="249" y="1197" on="0"/>
      </contour>
    </TTGlyph>
    <TTGlyph name="dieresis" xMin="-94" yMin="1171" xMax="663" yMax="1458">
      <contour>
        <pt x="55" y="1171" on="1"/>
        <pt x="26" y="1171" on="0"/>
        <pt x="-27" y="1192" on="0"/>
        <pt x="-69" y="1229" on="0"/>
        <pt x="-94" y="1282" on="0"/>
        <pt x="-94" y="1314" on="1"/>
        <pt x="-94" y="1343" on="0"/>
        <pt x="-71" y="1396" on="0"/>
        <pt x="-30" y="1435" on="0"/>
        <pt x="24" y="1458" on="0"/>
        <pt x="55" y="1458" on="1"/>
        <pt x="85" y="1458" on="0"/>
        <pt x="138" y="1436" on="0"/>
        <pt x="179" y="1397" on="0"/>
        <pt x="203" y="1344" on="0"/>
        <pt x="203" y="1314" on="1"/>
        <pt x="203" y="1284" on="0"/>
        <pt x="179" y="1231" on="0"/>
        <pt x="138" y="1193" on="0"/>
        <pt x="85" y="1171" on="0"/>
      </contour>
      <contour>
        <pt x="515" y="1171" on="1"/>
        <pt x="486" y="1171" on="0"/>
        <pt x="432" y="1192" on="0"/>
        <pt x="391" y="1229" on="0"/>
        <pt x="366" y="1282" on="0"/>
        <pt x="366" y="1314" on="1"/>
        <pt x="366" y="1342" on="0"/>
        <pt x="388" y="1395" on="0"/>
        <pt x="428" y="1434" on="0"/>
        <pt x="483" y="1458" on="0"/>
        <pt x="515" y="1458" on="1"/>
        <pt x="544" y="1458" on="0"/>
        <pt x="597" y="1436" on="0"/>
        <pt x="638" y="1398" on="0"/>
        <pt x="663" y="1345" on="0"/>
        <pt x="663" y="1314" on="1"/>
        <pt x="663" y="1284" on="0"/>
        <pt x="639" y="1231" on="0"/>
        <pt x="598" y="1193" on="0"/>
        <pt x="545" y="1171" on="0"/>
      </contour>
    </TTGlyph>
    <TTGlyph name="divide" xMin="101" yMin="-49" xMax="1196" yMax="1081">
      <contour>
        <pt x="198" y="414" on="1"/>
        <pt x="174" y="414" on="0"/>
        <pt x="137" y="431" on="0"/>
        <pt x="113" y="459" on="0"/>
        <pt x="101" y="496" on="0"/>
        <pt x="101" y="516" on="1"/>
        <pt x="101" y="568" on="0"/>
        <pt x="167" y="618" on="0"/>
        <pt x="238" y="618" on="1"/>
        <pt x="1080" y="618" on="1"/>
        <pt x="1131" y="618" on="0"/>
        <pt x="1196" y="571" on="0"/>
        <pt x="1196" y="516" on="1"/>
        <pt x="1196" y="460" on="0"/>
        <pt x="1125" y="414" on="0"/>
        <pt x="1060" y="414" on="1"/>
      </contour>
      <contour>
        <pt x="501" y="89" on="1"/>
        <pt x="501" y="115" on="0"/>
        <pt x="521" y="165" on="0"/>
        <pt x="558" y="203" on="0"/>
        <pt x="611" y="226" on="0"/>
        <pt x="644" y="226" on="1"/>
        <pt x="673" y="226" on="0"/>
        <pt x="725" y="205" on="0"/>
        <pt x="764" y="167" on="0"/>
        <pt x="786" y="117" on="0"/>
        <pt x="786" y="89" on="1"/>
        <pt x="786" y="60" on="0"/>
        <pt x="764" y="10" on="0"/>
        <pt x="725" y="-28" on="0"/>
        <pt x="674" y="-49" on="0"/>
        <pt x="644" y="-49" on="1"/>
        <pt x="614" y="-49" on="0"/>
        <pt x="562" y="-28" on="0"/>
        <pt x="523" y="9" on="0"/>
        <pt x="501" y="59" on="0"/>
      </contour>
      <contour>
        <pt x="501" y="945" on="1"/>
        <pt x="501" y="972" on="0"/>
        <pt x="521" y="1021" on="0"/>
        <pt x="558" y="1058" on="0"/>
        <pt x="611" y="1081" on="0"/>
        <pt x="644" y="1081" on="1"/>
        <pt x="672" y="1081" on="0"/>
        <pt x="724" y="1061" on="0"/>
        <pt x="763" y="1025" on="0"/>
        <pt x="786" y="975" on="0"/>
        <pt x="786" y="945" on="1"/>
        <pt x="786" y="916" on="0"/>
        <pt x="764" y="866" on="0"/>
        <pt x="725" y="828" on="0"/>
        <pt x="674" y="807" on="0"/>
        <pt x="644" y="807" on="1"/>
        <pt x="615" y="807" on="0"/>
        <pt x="563" y="828" on="0"/>
        <pt x="524" y="864" on="0"/>
        <pt x="501" y="915" on="0"/>
      </contour>
    </TTGlyph>
    <TTGlyph name="dollar" xMin="81" yMin="-211" xMax="1263" yMax="1614">
      <contour>
        <pt x="597" y="-39" on="1"/>
        <pt x="517" y="-36" on="0"/>
        <pt x="356" y="-9" on="0"/>
        <pt x="221" y="33" on="0"/>
        <pt x="127" y="85" on="0"/>
        <pt x="113" y="113" on="1"/>
        <pt x="97" y="143" on="0"/>
        <pt x="97" y="172" on="1"/>
        <pt x="97" y="196" on="0"/>
        <pt x="114" y="241" on="0"/>
        <pt x="144" y="276" on="0"/>
        <pt x="188" y="298" on="0"/>
        <pt x="215" y="298" on="1"/>
        <pt x="245" y="298" on="0"/>
        <pt x="307" y="275" on="0"/>
        <pt x="345" y="264" on="1"/>
        <pt x="408" y="245" on="0"/>
        <pt x="566" y="219" on="0"/>
        <pt x="656" y="219" on="1"/>
        <pt x="700" y="219" on="0"/>
        <pt x="790" y="237" on="0"/>
        <pt x="862" y="276" on="0"/>
        <pt x="907" y="338" on="0"/>
        <pt x="907" y="382" on="1"/>
        <pt x="907" y="421" on="0"/>
        <pt x="873" y="478" on="0"/>
        <pt x="816" y="520" on="0"/>
        <pt x="738" y="552" on="0"/>
        <pt x="695" y="566" on="1"/>
        <pt x="636" y="583" on="1"/>
        <pt x="616" y="589" on="0"/>
        <pt x="574" y="601" on="0"/>
        <pt x="552" y="608" on="1"/>
        <pt x="467" y="633" on="1"/>
        <pt x="432" y="644" on="0"/>
        <pt x="370" y="666" on="0"/>
        <pt x="351" y="673" on="1"/>
        <pt x="217" y="721" on="0"/>
        <pt x="81" y="899" on="0"/>
        <pt x="81" y="1037" on="1"/>
        <pt x="81" y="1122" on="0"/>
        <pt x="150" y="1269" on="0"/>
        <pt x="282" y="1381" on="0"/>
        <pt x="474" y="1451" on="0"/>
        <pt x="597" y="1460" on="1"/>
        <pt x="597" y="1536" on="1"/>
        <pt x="597" y="1575" on="0"/>
        <pt x="635" y="1614" on="0"/>
        <pt x="664" y="1614" on="1"/>
        <pt x="690" y="1614" on="0"/>
        <pt x="731" y="1579" on="0"/>
        <pt x="731" y="1547" on="1"/>
        <pt x="731" y="1461" on="1"/>
        <pt x="809" y="1457" on="0"/>
        <pt x="971" y="1438" on="0"/>
        <pt x="1104" y="1394" on="0"/>
        <pt x="1188" y="1322" on="0"/>
        <pt x="1188" y="1265" on="1"/>
        <pt x="1188" y="1219" on="0"/>
        <pt x="1123" y="1156" on="0"/>
        <pt x="1070" y="1156" on="1"/>
        <pt x="1065" y="1156" on="0"/>
        <pt x="1054" y="1156" on="0"/>
        <pt x="1049" y="1157" on="1"/>
        <pt x="1021" y="1162" on="0"/>
        <pt x="969" y="1173" on="0"/>
        <pt x="907" y="1185" on="0"/>
        <pt x="826" y="1197" on="0"/>
        <pt x="769" y="1203" on="1"/>
        <pt x="745" y="1205" on="0"/>
        <pt x="698" y="1209" on="0"/>
        <pt x="675" y="1209" on="1"/>
        <pt x="631" y="1209" on="0"/>
        <pt x="543" y="1192" on="0"/>
        <pt x="474" y="1158" on="0"/>
        <pt x="431" y="1105" on="0"/>
        <pt x="431" y="1068" on="1"/>
        <pt x="431" y="1024" on="0"/>
        <pt x="476" y="962" on="0"/>
        <pt x="550" y="917" on="0"/>
        <pt x="643" y="886" on="0"/>
        <pt x="690" y="873" on="1"/>
        <pt x="791" y="845" on="1"/>
        <pt x="894" y="813" on="0"/>
        <pt x="1067" y="746" on="0"/>
        <pt x="1193" y="651" on="0"/>
        <pt x="1263" y="516" on="0"/>
        <pt x="1263" y="418" on="1"/>
        <pt x="1263" y="318" on="0"/>
        <pt x="1188" y="157" on="0"/>
        <pt x="1049" y="40" on="0"/>
        <pt x="852" y="-30" on="0"/>
        <pt x="731" y="-38" on="1"/>
        <pt x="731" y="-122" on="1"/>
        <pt x="731" y="-138" on="0"/>
        <pt x="725" y="-170" on="0"/>
        <pt x="710" y="-195" on="0"/>
        <pt x="684" y="-211" on="0"/>
        <pt x="663" y="-211" on="1"/>
        <pt x="637" y="-211" on="0"/>
        <pt x="597" y="-178" on="0"/>
        <pt x="597" y="-144" on="1"/>
      </contour>
    </TTGlyph>
    <TTGlyph name="dotaccent" xMin="116" yMin="1166" xMax="454" yMax="1494">
      <contour>
        <pt x="116" y="1331" on="1"/>
        <pt x="116" y="1364" on="0"/>
        <pt x="141" y="1423" on="0"/>
        <pt x="186" y="1468" on="0"/>
        <pt x="247" y="1494" on="0"/>
        <pt x="284" y="1494" on="1"/>
        <pt x="316" y="1494" on="0"/>
        <pt x="377" y="1471" on="0"/>
        <pt x="425" y="1429" on="0"/>
        <pt x="454" y="1368" on="0"/>
        <pt x="454" y="1331" on="1"/>
        <pt x="454" y="1297" on="0"/>
        <pt x="428" y="1237" on="0"/>
        <pt x="383" y="1192" on="0"/>
        <pt x="320" y="1166" on="0"/>
        <pt x="284" y="1166" on="1"/>
        <pt x="249" y="1166" on="0"/>
        <pt x="188" y="1191" on="0"/>
        <pt x="142" y="1235" on="0"/>
        <pt x="116" y="1295" on="0"/>
      </contour>
    </TTGlyph>
    <TTGlyph name="dotlessi" xMin="117" yMin="0" xMax="437" yMax="1013">
      <contour>
        <pt x="117" y="856" on="1"/>
        <pt x="117" y="893" on="0"/>
        <pt x="143" y="952" on="0"/>
        <pt x="187" y="992" on="0"/>
        <pt x="245" y="1013" on="0"/>
        <pt x="278" y="1013" on="1"/>
        <pt x="437" y="1013" on="0"/>
        <pt x="437" y="798" on="1"/>
        <pt x="437" y="214" on="1"/>
        <pt x="437" y="169" on="0"/>
        <pt x="420" y="91" on="0"/>
        <pt x="382" y="33" on="0"/>
        <pt x="320" y="0" on="0"/>
        <pt x="276" y="0" on="1"/>
        <pt x="195" y="0" on="0"/>
        <pt x="117" y="107" on="0"/>
        <pt x="117" y="214" on="1"/>
      </contour>
    </TTGlyph>
    <TTGlyph name="e" xMin="75" yMin="-12" xMax="1110" yMax="1023">
      <contour>
        <pt x="1110" y="536" on="1"/>
        <pt x="1110" y="495" on="0"/>
        <pt x="1056" y="455" on="0"/>
        <pt x="1008" y="455" on="1"/>
        <pt x="389" y="455" on="1"/>
        <pt x="394" y="334" on="0"/>
        <pt x="523" y="201" on="0"/>
        <pt x="655" y="201" on="1"/>
        <pt x="698" y="201" on="0"/>
        <pt x="773" y="212" on="0"/>
        <pt x="845" y="231" on="0"/>
        <pt x="917" y="255" on="0"/>
        <pt x="956" y="268" on="1"/>
        <pt x="969" y="273" on="0"/>
        <pt x="979" y="273" on="1"/>
        <pt x="1012" y="273" on="0"/>
        <pt x="1052" y="222" on="0"/>
        <pt x="1052" y="188" on="1"/>
        <pt x="1052" y="168" on="0"/>
        <pt x="1045" y="150" on="1"/>
        <pt x="1025" y="102" on="0"/>
        <pt x="933" y="39" on="0"/>
        <pt x="813" y="2" on="0"/>
        <pt x="679" y="-12" on="0"/>
        <pt x="618" y="-12" on="1"/>
        <pt x="503" y="-12" on="0"/>
        <pt x="304" y="54" on="0"/>
        <pt x="158" y="184" on="0"/>
        <pt x="75" y="380" on="0"/>
        <pt x="75" y="509" on="1"/>
        <pt x="75" y="617" on="0"/>
        <pt x="155" y="805" on="0"/>
        <pt x="298" y="943" on="0"/>
        <pt x="495" y="1023" on="0"/>
        <pt x="613" y="1023" on="1"/>
        <pt x="741" y="1023" on="0"/>
        <pt x="927" y="944" on="0"/>
        <pt x="1049" y="811" on="0"/>
        <pt x="1109" y="634" on="0"/>
      </contour>
      <contour>
        <pt x="843" y="597" on="1"/>
        <pt x="840" y="650" on="0"/>
        <pt x="809" y="740" on="0"/>
        <pt x="752" y="806" on="0"/>
        <pt x="669" y="843" on="0"/>
        <pt x="614" y="843" on="1"/>
        <pt x="564" y="843" on="0"/>
        <pt x="483" y="804" on="0"/>
        <pt x="424" y="737" on="0"/>
        <pt x="391" y="648" on="0"/>
        <pt x="388" y="597" on="1"/>
      </contour>
    </TTGlyph>
    <TTGlyph name="eacute" xMin="76" yMin="-12" xMax="1111" yMax="1603">
      <component glyphName="e" x="1" y="0" flags="0x1004"/>
      <component glyphName="acute" x="311" y="0" flags="0x1004"/>
    </TTGlyph>
    <TTGlyph name="ecircumflex" xMin="76" yMin="-12" xMax="1111" yMax="1591">
      <component glyphName="e" x="1" y="0" flags="0x1004"/>
      <component glyphName="circumflex" x="323" y="0" flags="0x1004"/>
    </TTGlyph>
    <TTGlyph name="edieresis" xMin="76" yMin="-12" xMax="1111" yMax="1458">
      <component glyphName="e" x="1" y="0" flags="0x1004"/>
      <component glyphName="dieresis" x="319" y="0" flags="0x1004"/>
    </TTGlyph>
    <TTGlyph name="egrave" xMin="76" yMin="-12" xMax="1111" yMax="1601">
      <component glyphName="e" x="1" y="0" flags="0x1004"/>
      <component glyphName="grave" x="340" y="0" flags="0x1004"/>
    </TTGlyph>
    <TTGlyph name="eight" xMin="72" yMin="-25" xMax="1227" yMax="1467">
      <contour>
        <pt x="372" y="743" on="1"/>
        <pt x="311" y="752" on="0"/>
        <pt x="211" y="804" on="0"/>
        <pt x="139" y="885" on="0"/>
        <pt x="100" y="994" on="0"/>
        <pt x="100" y="1060" on="1"/>
        <pt x="100" y="1154" on="0"/>
        <pt x="177" y="1305" on="0"/>
        <pt x="320" y="1411" on="0"/>
        <pt x="523" y="1467" on="0"/>
        <pt x="648" y="1467" on="1"/>
        <pt x="770" y="1467" on="0"/>
        <pt x="974" y="1414" on="0"/>
        <pt x="1120" y="1310" on="0"/>
        <pt x="1201" y="1159" on="0"/>
        <pt x="1201" y="1060" on="1"/>
        <pt x="1201" y="994" on="0"/>
        <pt x="1161" y="888" on="0"/>
        <pt x="1089" y="808" on="0"/>
        <pt x="987" y="756" on="0"/>
        <pt x="926" y="743" on="1"/>
        <pt x="926" y="741" on="1"/>
        <pt x="1070" y="706" on="0"/>
        <pt x="1227" y="531" on="0"/>
        <pt x="1227" y="388" on="1"/>
        <pt x="1227" y="297" on="0"/>
        <pt x="1152" y="145" on="0"/>
        <pt x="1006" y="36" on="0"/>
        <pt x="789" y="-25" on="0"/>
        <pt x="648" y="-25" on="1"/>
        <pt x="504" y="-25" on="0"/>
        <pt x="288" y="37" on="0"/>
        <pt x="144" y="147" on="0"/>
        <pt x="72" y="298" on="0"/>
        <pt x="72" y="388" on="1"/>
        <pt x="72" y="452" on="0"/>
        <pt x="109" y="566" on="0"/>
        <pt x="184" y="658" on="0"/>
        <pt x="297" y="724" on="0"/>
        <pt x="372" y="739" on="1"/>
      </contour>
      <contour>
        <pt x="439" y="1046" on="1"/>
        <pt x="439" y="996" on="0"/>
        <pt x="470" y="923" on="0"/>
        <pt x="526" y="876" on="0"/>
        <pt x="603" y="854" on="0"/>
        <pt x="650" y="854" on="1"/>
        <pt x="697" y="854" on="0"/>
        <pt x="775" y="876" on="0"/>
        <pt x="830" y="923" on="0"/>
        <pt x="861" y="995" on="0"/>
        <pt x="861" y="1046" on="1"/>
        <pt x="861" y="1098" on="0"/>
        <pt x="826" y="1171" on="0"/>
        <pt x="768" y="1217" on="0"/>
        <pt x="692" y="1239" on="0"/>
        <pt x="650" y="1239" on="1"/>
        <pt x="608" y="1239" on="0"/>
        <pt x="532" y="1217" on="0"/>
        <pt x="473" y="1171" on="0"/>
        <pt x="439" y="1097" on="0"/>
      </contour>
      <contour>
        <pt x="423" y="420" on="1"/>
        <pt x="423" y="364" on="0"/>
        <pt x="458" y="285" on="0"/>
        <pt x="520" y="233" on="0"/>
        <pt x="602" y="209" on="0"/>
        <pt x="650" y="209" on="1"/>
        <pt x="692" y="209" on="0"/>
        <pt x="773" y="231" on="0"/>
        <pt x="837" y="281" on="0"/>
        <pt x="876" y="361" on="0"/>
        <pt x="876" y="420" on="1"/>
        <pt x="876" y="473" on="0"/>
        <pt x="841" y="553" on="0"/>
        <pt x="781" y="606" on="0"/>
        <pt x="698" y="632" on="0"/>
        <pt x="650" y="632" on="1"/>
        <pt x="604" y="632" on="0"/>
        <pt x="522" y="608" on="0"/>
        <pt x="460" y="557" on="0"/>
        <pt x="423" y="476" on="0"/>
      </contour>
    </TTGlyph>
    <TTGlyph name="ellipsis" xMin="155" yMin="-6" xMax="1792" yMax="322">
      <contour>
        <pt x="155" y="158" on="1"/>
        <pt x="155" y="191" on="0"/>
        <pt x="180" y="250" on="0"/>
        <pt x="225" y="295" on="0"/>
        <pt x="287" y="322" on="0"/>
        <pt x="324" y="322" on="1"/>
        <pt x="357" y="322" on="0"/>
        <pt x="418" y="298" on="0"/>
        <pt x="465" y="255" on="0"/>
        <pt x="493" y="195" on="0"/>
        <pt x="493" y="158" on="1"/>
        <pt x="493" y="125" on="0"/>
        <pt x="467" y="65" on="0"/>
        <pt x="422" y="20" on="0"/>
        <pt x="360" y="-6" on="0"/>
        <pt x="324" y="-6" on="1"/>
        <pt x="289" y="-6" on="0"/>
        <pt x="228" y="19" on="0"/>
        <pt x="182" y="63" on="0"/>
        <pt x="155" y="123" on="0"/>
      </contour>
      <contour>
        <pt x="804" y="158" on="1"/>
        <pt x="804" y="191" on="0"/>
        <pt x="829" y="250" on="0"/>
        <pt x="874" y="295" on="0"/>
        <pt x="936" y="322" on="0"/>
        <pt x="973" y="322" on="1"/>
        <pt x="1005" y="322" on="0"/>
        <pt x="1066" y="299" on="0"/>
        <pt x="1114" y="257" on="0"/>
        <pt x="1143" y="196" on="0"/>
        <pt x="1143" y="158" on="1"/>
        <pt x="1143" y="125" on="0"/>
        <pt x="1117" y="65" on="0"/>
        <pt x="1072" y="20" on="0"/>
        <pt x="1010" y="-6" on="0"/>
        <pt x="973" y="-6" on="1"/>
        <pt x="938" y="-6" on="0"/>
        <pt x="877" y="19" on="0"/>
        <pt x="831" y="63" on="0"/>
        <pt x="804" y="123" on="0"/>
      </contour>
      <contour>
        <pt x="1454" y="158" on="1"/>
        <pt x="1454" y="191" on="0"/>
        <pt x="1479" y="250" on="0"/>
        <pt x="1524" y="295" on="0"/>
        <pt x="1586" y="322" on="0"/>
        <pt x="1623" y="322" on="1"/>
        <pt x="1656" y="322" on="0"/>
        <pt x="1717" y="298" on="0"/>
        <pt x="1764" y="255" on="0"/>
        <pt x="1792" y="195" on="0"/>
        <pt x="1792" y="158" on="1"/>
        <pt x="1792" y="125" on="0"/>
        <pt x="1766" y="65" on="0"/>
        <pt x="1721" y="20" on="0"/>
        <pt x="1659" y="-6" on="0"/>
        <pt x="1623" y="-6" on="1"/>
        <pt x="1587" y="-6" on="0"/>
        <pt x="1525" y="19" on="0"/>
        <pt x="1480" y="63" on="0"/>
        <pt x="1454" y="123" on="0"/>
      </contour>
    </TTGlyph>
    <TTGlyph name="emdash" xMin="0" yMin="417" xMax="2046" yMax="656">
      <contour>
        <pt x="108" y="417" on="1"/>
        <pt x="81" y="417" on="0"/>
        <pt x="40" y="437" on="0"/>
        <pt x="13" y="471" on="0"/>
        <pt x="0" y="514" on="0"/>
        <pt x="0" y="537" on="1"/>
        <pt x="0" y="573" on="0"/>
        <pt x="29" y="619" on="0"/>
        <pt x="79" y="646" on="0"/>
        <pt x="145" y="656" on="0"/>
        <pt x="183" y="656" on="1"/>
        <pt x="1901" y="656" on="1"/>
        <pt x="1966" y="656" on="0"/>
        <pt x="2046" y="603" on="0"/>
        <pt x="2046" y="537" on="1"/>
        <pt x="2046" y="500" on="0"/>
        <pt x="2017" y="453" on="0"/>
        <pt x="1967" y="427" on="0"/>
        <pt x="1900" y="417" on="0"/>
        <pt x="1863" y="417" on="1"/>
      </contour>
    </TTGlyph>
    <TTGlyph name="endash" xMin="1" yMin="417" xMax="1021" yMax="656">
      <contour>
        <pt x="112" y="417" on="1"/>
        <pt x="86" y="417" on="0"/>
        <pt x="45" y="436" on="0"/>
        <pt x="17" y="469" on="0"/>
        <pt x="1" y="512" on="0"/>
        <pt x="1" y="537" on="1"/>
        <pt x="1" y="598" on="0"/>
        <pt x="79" y="656" on="0"/>
        <pt x="151" y="656" on="1"/>
        <pt x="872" y="656" on="1"/>
        <pt x="900" y="656" on="0"/>
        <pt x="954" y="646" on="0"/>
        <pt x="996" y="620" on="0"/>
        <pt x="1021" y="573" on="0"/>
        <pt x="1021" y="536" on="1"/>
        <pt x="1021" y="477" on="0"/>
        <pt x="949" y="417" on="0"/>
        <pt x="872" y="417" on="1"/>
      </contour>
    </TTGlyph>
    <TTGlyph name="equal" xMin="128" yMin="184" xMax="1158" yMax="831">
      <contour>
        <pt x="231" y="184" on="1"/>
        <pt x="211" y="184" on="0"/>
        <pt x="174" y="198" on="0"/>
        <pt x="145" y="225" on="0"/>
        <pt x="128" y="261" on="0"/>
        <pt x="128" y="284" on="1"/>
        <pt x="128" y="313" on="0"/>
        <pt x="152" y="353" on="0"/>
        <pt x="191" y="377" on="0"/>
        <pt x="242" y="387" on="0"/>
        <pt x="269" y="387" on="1"/>
        <pt x="1036" y="387" on="1"/>
        <pt x="1055" y="387" on="0"/>
        <pt x="1098" y="378" on="0"/>
        <pt x="1134" y="354" on="0"/>
        <pt x="1158" y="314" on="0"/>
        <pt x="1158" y="284" on="1"/>
        <pt x="1158" y="254" on="0"/>
        <pt x="1134" y="216" on="0"/>
        <pt x="1094" y="193" on="0"/>
        <pt x="1043" y="184" on="0"/>
        <pt x="1017" y="184" on="1"/>
      </contour>
      <contour>
        <pt x="231" y="627" on="1"/>
        <pt x="210" y="627" on="0"/>
        <pt x="173" y="642" on="0"/>
        <pt x="145" y="669" on="0"/>
        <pt x="128" y="706" on="0"/>
        <pt x="128" y="728" on="1"/>
        <pt x="128" y="757" on="0"/>
        <pt x="152" y="797" on="0"/>
        <pt x="192" y="821" on="0"/>
        <pt x="243" y="831" on="0"/>
        <pt x="271" y="831" on="1"/>
        <pt x="1016" y="831" on="1"/>
        <pt x="1040" y="831" on="0"/>
        <pt x="1090" y="823" on="0"/>
        <pt x="1132" y="800" on="0"/>
        <pt x="1158" y="760" on="0"/>
        <pt x="1158" y="728" on="1"/>
        <pt x="1158" y="699" on="0"/>
        <pt x="1134" y="660" on="0"/>
        <pt x="1094" y="637" on="0"/>
        <pt x="1043" y="627" on="0"/>
        <pt x="1016" y="627" on="1"/>
      </contour>
    </TTGlyph>
    <TTGlyph name="eth" xMin="74" yMin="-36" xMax="1368" yMax="1581">
      <contour>
        <pt x="585" y="1067" on="1"/>
        <pt x="545" y="1067" on="0"/>
        <pt x="507" y="1114" on="0"/>
        <pt x="507" y="1143" on="1"/>
        <pt x="507" y="1172" on="0"/>
        <pt x="545" y="1220" on="0"/>
        <pt x="585" y="1220" on="1"/>
        <pt x="764" y="1220" on="1"/>
        <pt x="749" y="1253" on="0"/>
        <pt x="709" y="1317" on="0"/>
        <pt x="673" y="1374" on="0"/>
        <pt x="649" y="1426" on="0"/>
        <pt x="649" y="1447" on="1"/>
        <pt x="649" y="1474" on="0"/>
        <pt x="674" y="1523" on="0"/>
        <pt x="715" y="1560" on="0"/>
        <pt x="769" y="1581" on="0"/>
        <pt x="798" y="1581" on="1"/>
        <pt x="838" y="1581" on="0"/>
        <pt x="912" y="1540" on="0"/>
        <pt x="986" y="1452" on="0"/>
        <pt x="1063" y="1315" on="0"/>
        <pt x="1105" y="1220" on="1"/>
        <pt x="1261" y="1220" on="1"/>
        <pt x="1281" y="1220" on="0"/>
        <pt x="1320" y="1214" on="0"/>
        <pt x="1350" y="1197" on="0"/>
        <pt x="1368" y="1167" on="0"/>
        <pt x="1368" y="1143" on="1"/>
        <pt x="1368" y="1100" on="0"/>
        <pt x="1312" y="1067" on="0"/>
        <pt x="1260" y="1067" on="1"/>
        <pt x="1163" y="1067" on="1"/>
        <pt x="1192" y="964" on="0"/>
        <pt x="1225" y="756" on="0"/>
        <pt x="1225" y="656" on="1"/>
        <pt x="1225" y="508" on="0"/>
        <pt x="1158" y="255" on="0"/>
        <pt x="1014" y="69" on="0"/>
        <pt x="788" y="-36" on="0"/>
        <pt x="628" y="-36" on="1"/>
        <pt x="503" y="-36" on="0"/>
        <pt x="298" y="35" on="0"/>
        <pt x="153" y="166" on="0"/>
        <pt x="74" y="352" on="0"/>
        <pt x="74" y="466" on="1"/>
        <pt x="74" y="569" on="0"/>
        <pt x="140" y="737" on="0"/>
        <pt x="261" y="856" on="0"/>
        <pt x="429" y="921" on="0"/>
        <pt x="531" y="921" on="1"/>
        <pt x="582" y="921" on="0"/>
        <pt x="682" y="904" on="0"/>
        <pt x="772" y="865" on="0"/>
        <pt x="849" y="803" on="0"/>
        <pt x="878" y="757" on="1"/>
        <pt x="878" y="758" on="0"/>
        <pt x="880" y="760" on="1"/>
        <pt x="879" y="827" on="0"/>
        <pt x="855" y="985" on="0"/>
        <pt x="829" y="1067" on="1"/>
      </contour>
      <contour>
        <pt x="629" y="197" on="1"/>
        <pt x="679" y="197" on="0"/>
        <pt x="762" y="232" on="0"/>
        <pt x="821" y="298" on="0"/>
        <pt x="854" y="392" on="0"/>
        <pt x="854" y="451" on="1"/>
        <pt x="854" y="578" on="0"/>
        <pt x="731" y="718" on="0"/>
        <pt x="616" y="718" on="1"/>
        <pt x="562" y="718" on="0"/>
        <pt x="481" y="680" on="0"/>
        <pt x="429" y="611" on="0"/>
        <pt x="403" y="514" on="0"/>
        <pt x="403" y="455" on="1"/>
        <pt x="403" y="330" on="0"/>
        <pt x="519" y="197" on="0"/>
      </contour>
    </TTGlyph>
    <TTGlyph name="exclam" xMin="204" yMin="0" xMax="566" yMax="1479">
      <contour>
        <pt x="386" y="255" on="1"/>
        <pt x="424" y="255" on="0"/>
        <pt x="488" y="235" on="0"/>
        <pt x="534" y="200" on="0"/>
        <pt x="560" y="154" on="0"/>
        <pt x="560" y="128" on="1"/>
        <pt x="560" y="100" on="0"/>
        <pt x="534" y="53" on="0"/>
        <pt x="487" y="19" on="0"/>
        <pt x="423" y="0" on="0"/>
        <pt x="386" y="0" on="1"/>
        <pt x="346" y="0" on="0"/>
        <pt x="282" y="20" on="0"/>
        <pt x="236" y="54" on="0"/>
        <pt x="211" y="101" on="0"/>
        <pt x="211" y="128" on="1"/>
        <pt x="211" y="153" on="0"/>
        <pt x="235" y="199" on="0"/>
        <pt x="280" y="234" on="0"/>
        <pt x="345" y="255" on="0"/>
      </contour>
      <contour>
        <pt x="386" y="394" on="1"/>
        <pt x="348" y="394" on="0"/>
        <pt x="294" y="428" on="0"/>
        <pt x="258" y="488" on="0"/>
        <pt x="240" y="570" on="0"/>
        <pt x="238" y="618" on="1"/>
        <pt x="205" y="1323" on="1"/>
        <pt x="204" y="1328" on="0"/>
        <pt x="204" y="1340" on="1"/>
        <pt x="204" y="1373" on="0"/>
        <pt x="234" y="1424" on="0"/>
        <pt x="284" y="1460" on="0"/>
        <pt x="350" y="1479" on="0"/>
        <pt x="385" y="1479" on="1"/>
        <pt x="420" y="1479" on="0"/>
        <pt x="486" y="1460" on="0"/>
        <pt x="536" y="1424" on="0"/>
        <pt x="566" y="1373" on="0"/>
        <pt x="566" y="1340" on="1"/>
        <pt x="566" y="1328" on="0"/>
        <pt x="565" y="1323" on="1"/>
        <pt x="532" y="618" on="1"/>
        <pt x="530" y="570" on="0"/>
        <pt x="512" y="488" on="0"/>
        <pt x="478" y="428" on="0"/>
        <pt x="424" y="394" on="0"/>
      </contour>
    </TTGlyph>
    <TTGlyph name="exclamdown" xMin="216" yMin="-374" xMax="578" yMax="1105">
      <component glyphName="exclam" x="12" y="1105" scalex="1.0" scaley="-0.999877929688" flags="0x1004"/>
    </TTGlyph>
    <TTGlyph name="f" xMin="16" yMin="0" xMax="790" yMax="1468">
      <contour>
        <pt x="517" y="197" on="1"/>
        <pt x="517" y="102" on="0"/>
        <pt x="440" y="0" on="0"/>
        <pt x="351" y="0" on="1"/>
        <pt x="267" y="0" on="0"/>
        <pt x="198" y="102" on="0"/>
        <pt x="198" y="197" on="1"/>
        <pt x="197" y="824" on="1"/>
        <pt x="147" y="824" on="1"/>
        <pt x="120" y="824" on="0"/>
        <pt x="72" y="833" on="0"/>
        <pt x="37" y="855" on="0"/>
        <pt x="16" y="890" on="0"/>
        <pt x="16" y="917" on="1"/>
        <pt x="16" y="955" on="0"/>
        <pt x="74" y="1010" on="0"/>
        <pt x="134" y="1010" on="1"/>
        <pt x="197" y="1010" on="1"/>
        <pt x="197" y="1074" on="1"/>
        <pt x="197" y="1179" on="0"/>
        <pt x="238" y="1328" on="0"/>
        <pt x="322" y="1424" on="0"/>
        <pt x="451" y="1468" on="0"/>
        <pt x="540" y="1468" on="1"/>
        <pt x="586" y="1468" on="0"/>
        <pt x="675" y="1461" on="0"/>
        <pt x="746" y="1437" on="0"/>
        <pt x="790" y="1389" on="0"/>
        <pt x="790" y="1348" on="1"/>
        <pt x="790" y="1303" on="0"/>
        <pt x="736" y="1249" on="0"/>
        <pt x="686" y="1249" on="1"/>
        <pt x="674" y="1249" on="0"/>
        <pt x="650" y="1250" on="0"/>
        <pt x="639" y="1250" on="1"/>
        <pt x="601" y="1250" on="0"/>
        <pt x="554" y="1231" on="0"/>
        <pt x="527" y="1183" on="0"/>
        <pt x="517" y="1100" on="0"/>
        <pt x="517" y="1036" on="1"/>
        <pt x="517" y="1010" on="1"/>
        <pt x="613" y="1010" on="1"/>
        <pt x="635" y="1010" on="0"/>
        <pt x="677" y="999" on="0"/>
        <pt x="709" y="977" on="0"/>
        <pt x="729" y="942" on="0"/>
        <pt x="729" y="917" on="1"/>
        <pt x="729" y="870" on="0"/>
        <pt x="662" y="824" on="0"/>
        <pt x="601" y="824" on="1"/>
        <pt x="517" y="824" on="1"/>
      </contour>
    </TTGlyph>
    <TTGlyph name="fi" xMin="-6" yMin="1" xMax="1192" yMax="1468">
      <contour>
        <pt x="859" y="819" on="1"/>
        <pt x="497" y="819" on="1"/>
        <pt x="497" y="214" on="1"/>
        <pt x="497" y="170" on="0"/>
        <pt x="480" y="92" on="0"/>
        <pt x="442" y="34" on="0"/>
        <pt x="381" y="1" on="0"/>
        <pt x="337" y="1" on="1"/>
        <pt x="255" y="1" on="0"/>
        <pt x="178" y="108" on="0"/>
        <pt x="178" y="214" on="1"/>
        <pt x="178" y="819" on="1"/>
        <pt x="132" y="819" on="1"/>
        <pt x="68" y="819" on="0"/>
        <pt x="-6" y="863" on="0"/>
        <pt x="-6" y="914" on="1"/>
        <pt x="-6" y="955" on="0"/>
        <pt x="52" y="1009" on="0"/>
        <pt x="115" y="1009" on="1"/>
        <pt x="178" y="1009" on="1"/>
        <pt x="178" y="1056" on="1"/>
        <pt x="178" y="1161" on="0"/>
        <pt x="214" y="1316" on="0"/>
        <pt x="295" y="1418" on="0"/>
        <pt x="426" y="1468" on="0"/>
        <pt x="520" y="1468" on="1"/>
        <pt x="562" y="1468" on="0"/>
        <pt x="649" y="1462" on="0"/>
        <pt x="719" y="1438" on="0"/>
        <pt x="763" y="1390" on="0"/>
        <pt x="763" y="1347" on="1"/>
        <pt x="763" y="1317" on="0"/>
        <pt x="741" y="1279" on="0"/>
        <pt x="702" y="1256" on="0"/>
        <pt x="651" y="1248" on="0"/>
        <pt x="622" y="1248" on="1"/>
        <pt x="581" y="1248" on="0"/>
        <pt x="531" y="1233" on="0"/>
        <pt x="505" y="1188" on="0"/>
        <pt x="497" y="1104" on="0"/>
        <pt x="497" y="1036" on="1"/>
        <pt x="497" y="1009" on="1"/>
        <pt x="977" y="1009" on="1"/>
        <pt x="1020" y="1009" on="0"/>
        <pt x="1094" y="996" on="0"/>
        <pt x="1148" y="951" on="0"/>
        <pt x="1179" y="866" on="0"/>
        <pt x="1179" y="794" on="1"/>
        <pt x="1179" y="234" on="1"/>
        <pt x="1179" y="187" on="0"/>
        <pt x="1168" y="104" on="0"/>
        <pt x="1135" y="40" on="0"/>
        <pt x="1073" y="3" on="0"/>
        <pt x="1022" y="3" on="1"/>
        <pt x="936" y="3" on="0"/>
        <pt x="859" y="115" on="0"/>
        <pt x="859" y="233" on="1"/>
      </contour>
      <contour>
        <pt x="1192" y="1330" on="1"/>
        <pt x="1192" y="1297" on="0"/>
        <pt x="1162" y="1246" on="0"/>
        <pt x="1114" y="1212" on="0"/>
        <pt x="1051" y="1195" on="0"/>
        <pt x="1018" y="1195" on="1"/>
        <pt x="983" y="1195" on="0"/>
        <pt x="920" y="1213" on="0"/>
        <pt x="872" y="1248" on="0"/>
        <pt x="844" y="1298" on="0"/>
        <pt x="844" y="1330" on="1"/>
        <pt x="844" y="1359" on="0"/>
        <pt x="871" y="1408" on="0"/>
        <pt x="917" y="1444" on="0"/>
        <pt x="981" y="1464" on="0"/>
        <pt x="1019" y="1464" on="1"/>
        <pt x="1052" y="1464" on="0"/>
        <pt x="1115" y="1446" on="0"/>
        <pt x="1163" y="1412" on="0"/>
        <pt x="1192" y="1362" on="0"/>
      </contour>
    </TTGlyph>
    <TTGlyph name="five" xMin="159" yMin="-26" xMax="1211" yMax="1453">
      <contour>
        <pt x="160" y="1288" on="1"/>
        <pt x="160" y="1340" on="0"/>
        <pt x="186" y="1404" on="0"/>
        <pt x="240" y="1440" on="0"/>
        <pt x="324" y="1453" on="0"/>
        <pt x="382" y="1453" on="1"/>
        <pt x="1025" y="1453" on="1"/>
        <pt x="1051" y="1453" on="0"/>
        <pt x="1097" y="1439" on="0"/>
        <pt x="1132" y="1410" on="0"/>
        <pt x="1152" y="1365" on="0"/>
        <pt x="1152" y="1333" on="1"/>
        <pt x="1152" y="1271" on="0"/>
        <pt x="1076" y="1213" on="0"/>
        <pt x="1006" y="1213" on="1"/>
        <pt x="458" y="1213" on="1"/>
        <pt x="448" y="824" on="1"/>
        <pt x="578" y="947" on="0"/>
        <pt x="772" y="947" on="1"/>
        <pt x="867" y="947" on="0"/>
        <pt x="1028" y="879" on="0"/>
        <pt x="1145" y="752" on="0"/>
        <pt x="1211" y="571" on="0"/>
        <pt x="1211" y="457" on="1"/>
        <pt x="1211" y="343" on="0"/>
        <pt x="1120" y="164" on="0"/>
        <pt x="963" y="40" on="0"/>
        <pt x="751" y="-26" on="0"/>
        <pt x="631" y="-26" on="1"/>
        <pt x="559" y="-26" on="0"/>
        <pt x="408" y="0" on="0"/>
        <pt x="279" y="53" on="0"/>
        <pt x="185" y="133" on="0"/>
        <pt x="171" y="188" on="1"/>
        <pt x="159" y="213" on="0"/>
        <pt x="159" y="237" on="1"/>
        <pt x="159" y="256" on="0"/>
        <pt x="173" y="294" on="0"/>
        <pt x="198" y="322" on="0"/>
        <pt x="233" y="340" on="0"/>
        <pt x="254" y="340" on="1"/>
        <pt x="273" y="340" on="0"/>
        <pt x="316" y="316" on="0"/>
        <pt x="367" y="283" on="0"/>
        <pt x="424" y="247" on="0"/>
        <pt x="456" y="236" on="1"/>
        <pt x="491" y="223" on="0"/>
        <pt x="567" y="211" on="0"/>
        <pt x="606" y="211" on="1"/>
        <pt x="659" y="211" on="0"/>
        <pt x="750" y="242" on="0"/>
        <pt x="816" y="307" on="0"/>
        <pt x="854" y="405" on="0"/>
        <pt x="854" y="472" on="1"/>
        <pt x="854" y="535" on="0"/>
        <pt x="825" y="633" on="0"/>
        <pt x="771" y="701" on="0"/>
        <pt x="697" y="736" on="0"/>
        <pt x="652" y="736" on="1"/>
        <pt x="601" y="736" on="0"/>
        <pt x="532" y="708" on="0"/>
        <pt x="482" y="666" on="0"/>
        <pt x="442" y="616" on="0"/>
        <pt x="397" y="574" on="0"/>
        <pt x="340" y="546" on="0"/>
        <pt x="297" y="546" on="1"/>
        <pt x="234" y="546" on="0"/>
        <pt x="160" y="627" on="0"/>
        <pt x="160" y="712" on="1"/>
      </contour>
    </TTGlyph>
    <TTGlyph name="fl" xMin="-6" yMin="1" xMax="1141" yMax="1461">
      <contour>
        <pt x="497" y="819" on="1"/>
        <pt x="497" y="214" on="1"/>
        <pt x="497" y="170" on="0"/>
        <pt x="480" y="92" on="0"/>
        <pt x="442" y="34" on="0"/>
        <pt x="381" y="1" on="0"/>
        <pt x="337" y="1" on="1"/>
        <pt x="261" y="1" on="0"/>
        <pt x="178" y="98" on="0"/>
        <pt x="178" y="195" on="1"/>
        <pt x="178" y="819" on="1"/>
        <pt x="132" y="819" on="1"/>
        <pt x="68" y="819" on="0"/>
        <pt x="-6" y="863" on="0"/>
        <pt x="-6" y="914" on="1"/>
        <pt x="-6" y="955" on="0"/>
        <pt x="52" y="1009" on="0"/>
        <pt x="115" y="1009" on="1"/>
        <pt x="178" y="1009" on="1"/>
        <pt x="178" y="1074" on="1"/>
        <pt x="178" y="1177" on="0"/>
        <pt x="231" y="1324" on="0"/>
        <pt x="322" y="1417" on="0"/>
        <pt x="442" y="1461" on="0"/>
        <pt x="509" y="1461" on="1"/>
        <pt x="573" y="1461" on="0"/>
        <pt x="680" y="1438" on="0"/>
        <pt x="761" y="1402" on="0"/>
        <pt x="816" y="1358" on="0"/>
        <pt x="828" y="1338" on="1"/>
        <pt x="842" y="1391" on="0"/>
        <pt x="926" y="1450" on="0"/>
        <pt x="982" y="1450" on="1"/>
        <pt x="1056" y="1450" on="0"/>
        <pt x="1141" y="1354" on="0"/>
        <pt x="1141" y="1256" on="1"/>
        <pt x="1141" y="233" on="1"/>
        <pt x="1141" y="188" on="0"/>
        <pt x="1132" y="105" on="0"/>
        <pt x="1099" y="41" on="0"/>
        <pt x="1037" y="3" on="0"/>
        <pt x="985" y="3" on="1"/>
        <pt x="900" y="3" on="0"/>
        <pt x="821" y="115" on="0"/>
        <pt x="821" y="232" on="1"/>
        <pt x="821" y="1282" on="1"/>
        <pt x="624" y="1282" on="1"/>
        <pt x="586" y="1282" on="0"/>
        <pt x="537" y="1259" on="0"/>
        <pt x="508" y="1205" on="0"/>
        <pt x="497" y="1117" on="0"/>
        <pt x="497" y="1052" on="1"/>
        <pt x="497" y="1009" on="1"/>
        <pt x="567" y="1009" on="1"/>
        <pt x="627" y="1009" on="0"/>
        <pt x="704" y="965" on="0"/>
        <pt x="704" y="914" on="1"/>
        <pt x="704" y="862" on="0"/>
        <pt x="622" y="819" on="0"/>
        <pt x="551" y="819" on="1"/>
      </contour>
    </TTGlyph>
    <TTGlyph name="florin" xMin="-30" yMin="-542" xMax="1203" yMax="1622">
      <contour>
        <pt x="734" y="679" on="1"/>
        <pt x="706" y="537" on="0"/>
        <pt x="648" y="234" on="0"/>
        <pt x="613" y="74" on="1"/>
        <pt x="576" y="-93" on="0"/>
        <pt x="477" y="-328" on="0"/>
        <pt x="352" y="-475" on="0"/>
        <pt x="201" y="-542" on="0"/>
        <pt x="114" y="-542" on="1"/>
        <pt x="41" y="-542" on="0"/>
        <pt x="-30" y="-494" on="0"/>
        <pt x="-30" y="-454" on="1"/>
        <pt x="-30" y="-427" on="0"/>
        <pt x="-6" y="-384" on="0"/>
        <pt x="34" y="-355" on="0"/>
        <pt x="87" y="-338" on="0"/>
        <pt x="116" y="-336" on="1"/>
        <pt x="160" y="-333" on="0"/>
        <pt x="230" y="-287" on="0"/>
        <pt x="289" y="-190" on="0"/>
        <pt x="341" y="-34" on="0"/>
        <pt x="395" y="189" on="0"/>
        <pt x="454" y="487" on="0"/>
        <pt x="490" y="679" on="1"/>
        <pt x="418" y="679" on="1"/>
        <pt x="383" y="679" on="0"/>
        <pt x="321" y="691" on="0"/>
        <pt x="273" y="720" on="0"/>
        <pt x="245" y="769" on="0"/>
        <pt x="245" y="805" on="1"/>
        <pt x="245" y="826" on="0"/>
        <pt x="261" y="867" on="0"/>
        <pt x="291" y="899" on="0"/>
        <pt x="334" y="919" on="0"/>
        <pt x="362" y="919" on="1"/>
        <pt x="529" y="919" on="1"/>
        <pt x="553" y="1093" on="0"/>
        <pt x="652" y="1357" on="0"/>
        <pt x="792" y="1533" on="0"/>
        <pt x="968" y="1622" on="0"/>
        <pt x="1068" y="1622" on="1"/>
        <pt x="1137" y="1622" on="0"/>
        <pt x="1203" y="1576" on="0"/>
        <pt x="1203" y="1538" on="1"/>
        <pt x="1203" y="1511" on="0"/>
        <pt x="1179" y="1473" on="0"/>
        <pt x="1135" y="1447" on="0"/>
        <pt x="1075" y="1431" on="0"/>
        <pt x="1039" y="1428" on="1"/>
        <pt x="988" y="1423" on="0"/>
        <pt x="910" y="1358" on="0"/>
        <pt x="849" y="1233" on="0"/>
        <pt x="798" y="1046" on="0"/>
        <pt x="774" y="919" on="1"/>
        <pt x="947" y="919" on="1"/>
        <pt x="974" y="919" on="0"/>
        <pt x="1018" y="899" on="0"/>
        <pt x="1049" y="866" on="0"/>
        <pt x="1065" y="823" on="0"/>
        <pt x="1065" y="799" on="1"/>
        <pt x="1065" y="739" on="0"/>
        <pt x="985" y="679" on="0"/>
        <pt x="916" y="679" on="1"/>
      </contour>
    </TTGlyph>
    <TTGlyph name="four" xMin="30" yMin="-8" xMax="1256" yMax="1465">
      <contour>
        <pt x="505" y="1279" on="1"/>
        <pt x="533" y="1333" on="0"/>
        <pt x="598" y="1405" on="0"/>
        <pt x="674" y="1448" on="0"/>
        <pt x="760" y="1465" on="0"/>
        <pt x="809" y="1465" on="1"/>
        <pt x="873" y="1465" on="0"/>
        <pt x="965" y="1429" on="0"/>
        <pt x="1025" y="1352" on="0"/>
        <pt x="1053" y="1230" on="0"/>
        <pt x="1053" y="1144" on="1"/>
        <pt x="1053" y="551" on="1"/>
        <pt x="1099" y="551" on="1"/>
        <pt x="1130" y="551" on="0"/>
        <pt x="1186" y="539" on="0"/>
        <pt x="1230" y="510" on="0"/>
        <pt x="1256" y="463" on="0"/>
        <pt x="1256" y="428" on="1"/>
        <pt x="1256" y="367" on="0"/>
        <pt x="1176" y="305" on="0"/>
        <pt x="1099" y="305" on="1"/>
        <pt x="1052" y="305" on="1"/>
        <pt x="1052" y="185" on="1"/>
        <pt x="1051" y="149" on="0"/>
        <pt x="1034" y="79" on="0"/>
        <pt x="996" y="25" on="0"/>
        <pt x="932" y="-8" on="0"/>
        <pt x="884" y="-8" on="1"/>
        <pt x="796" y="-8" on="0"/>
        <pt x="715" y="109" on="0"/>
        <pt x="713" y="221" on="1"/>
        <pt x="713" y="305" on="1"/>
        <pt x="209" y="305" on="1"/>
        <pt x="169" y="305" on="0"/>
        <pt x="103" y="320" on="0"/>
        <pt x="56" y="351" on="0"/>
        <pt x="30" y="401" on="0"/>
        <pt x="30" y="436" on="1"/>
        <pt x="30" y="456" on="0"/>
        <pt x="41" y="501" on="0"/>
        <pt x="55" y="524" on="1"/>
      </contour>
      <contour>
        <pt x="338" y="551" on="1"/>
        <pt x="713" y="551" on="1"/>
        <pt x="713" y="1196" on="1"/>
      </contour>
    </TTGlyph>
    <TTGlyph name="foursuperior" xMin="47" yMin="624" xMax="720" yMax="1459">
      <contour>
        <pt x="320" y="1342" on="1"/>
        <pt x="337" y="1375" on="0"/>
        <pt x="372" y="1419" on="0"/>
        <pt x="412" y="1447" on="0"/>
        <pt x="458" y="1459" on="0"/>
        <pt x="487" y="1459" on="1"/>
        <pt x="556" y="1459" on="0"/>
        <pt x="604" y="1355" on="0"/>
        <pt x="604" y="1259" on="1"/>
        <pt x="604" y="913" on="1"/>
        <pt x="643" y="913" on="1"/>
        <pt x="675" y="913" on="0"/>
        <pt x="720" y="886" on="0"/>
        <pt x="720" y="856" on="1"/>
        <pt x="720" y="833" on="0"/>
        <pt x="686" y="799" on="0"/>
        <pt x="654" y="799" on="1"/>
        <pt x="604" y="799" on="1"/>
        <pt x="604" y="741" on="1"/>
        <pt x="604" y="717" on="0"/>
        <pt x="596" y="674" on="0"/>
        <pt x="576" y="643" on="0"/>
        <pt x="545" y="624" on="0"/>
        <pt x="523" y="624" on="1"/>
        <pt x="476" y="624" on="0"/>
        <pt x="442" y="698" on="0"/>
        <pt x="442" y="755" on="1"/>
        <pt x="442" y="799" on="1"/>
        <pt x="161" y="799" on="1"/>
        <pt x="138" y="799" on="0"/>
        <pt x="97" y="804" on="0"/>
        <pt x="65" y="818" on="0"/>
        <pt x="47" y="843" on="0"/>
        <pt x="47" y="864" on="1"/>
        <pt x="47" y="889" on="0"/>
        <pt x="61" y="910" on="1"/>
      </contour>
      <contour>
        <pt x="213" y="909" on="1"/>
        <pt x="442" y="909" on="1"/>
        <pt x="442" y="1311" on="1"/>
      </contour>
    </TTGlyph>
    <TTGlyph name="fraction" xMin="0" yMin="-55" xMax="668" yMax="1521">
      <contour>
        <pt x="199" y="13" on="1"/>
        <pt x="186" y="-25" on="0"/>
        <pt x="133" y="-55" on="0"/>
        <pt x="105" y="-55" on="1"/>
        <pt x="87" y="-55" on="0"/>
        <pt x="50" y="-43" on="0"/>
        <pt x="19" y="-19" on="0"/>
        <pt x="0" y="15" on="0"/>
        <pt x="0" y="38" on="1"/>
        <pt x="0" y="58" on="0"/>
        <pt x="18" y="110" on="0"/>
        <pt x="26" y="135" on="1"/>
        <pt x="449" y="1395" on="1"/>
        <pt x="457" y="1420" on="0"/>
        <pt x="478" y="1465" on="0"/>
        <pt x="505" y="1500" on="0"/>
        <pt x="541" y="1521" on="0"/>
        <pt x="564" y="1521" on="1"/>
        <pt x="585" y="1521" on="0"/>
        <pt x="622" y="1509" on="0"/>
        <pt x="651" y="1485" on="0"/>
        <pt x="668" y="1448" on="0"/>
        <pt x="668" y="1424" on="1"/>
        <pt x="668" y="1404" on="0"/>
        <pt x="651" y="1353" on="0"/>
        <pt x="643" y="1330" on="1"/>
      </contour>
    </TTGlyph>
    <TTGlyph name="g" xMin="73" yMin="-385" xMax="1145" yMax="1023">
      <contour>
        <pt x="843" y="193" on="1"/>
        <pt x="816" y="143" on="0"/>
        <pt x="739" y="73" on="0"/>
        <pt x="646" y="28" on="0"/>
        <pt x="541" y="7" on="0"/>
        <pt x="486" y="7" on="1"/>
        <pt x="394" y="7" on="0"/>
        <pt x="242" y="73" on="0"/>
        <pt x="133" y="198" on="0"/>
        <pt x="73" y="380" on="0"/>
        <pt x="73" y="497" on="1"/>
        <pt x="73" y="607" on="0"/>
        <pt x="129" y="799" on="0"/>
        <pt x="236" y="941" on="0"/>
        <pt x="392" y="1023" on="0"/>
        <pt x="492" y="1023" on="1"/>
        <pt x="606" y="1023" on="0"/>
        <pt x="783" y="935" on="0"/>
        <pt x="847" y="835" on="1"/>
        <pt x="847" y="861" on="1"/>
        <pt x="847" y="933" on="0"/>
        <pt x="926" y="1006" on="0"/>
        <pt x="996" y="1006" on="1"/>
        <pt x="1038" y="1006" on="0"/>
        <pt x="1096" y="979" on="0"/>
        <pt x="1130" y="926" on="0"/>
        <pt x="1145" y="849" on="0"/>
        <pt x="1145" y="800" on="1"/>
        <pt x="1145" y="130" on="1"/>
        <pt x="1145" y="8" on="0"/>
        <pt x="1084" y="-184" on="0"/>
        <pt x="956" y="-316" on="0"/>
        <pt x="756" y="-385" on="0"/>
        <pt x="618" y="-385" on="1"/>
        <pt x="521" y="-385" on="0"/>
        <pt x="372" y="-368" on="0"/>
        <pt x="318" y="-351" on="1"/>
        <pt x="264" y="-332" on="0"/>
        <pt x="209" y="-286" on="0"/>
        <pt x="209" y="-249" on="1"/>
        <pt x="209" y="-228" on="0"/>
        <pt x="221" y="-190" on="0"/>
        <pt x="246" y="-161" on="0"/>
        <pt x="287" y="-144" on="0"/>
        <pt x="317" y="-144" on="1"/>
        <pt x="349" y="-144" on="0"/>
        <pt x="414" y="-152" on="0"/>
        <pt x="485" y="-161" on="0"/>
        <pt x="564" y="-169" on="0"/>
        <pt x="610" y="-169" on="1"/>
        <pt x="665" y="-169" on="0"/>
        <pt x="751" y="-147" on="0"/>
        <pt x="811" y="-91" on="0"/>
        <pt x="843" y="2" on="0"/>
        <pt x="843" y="74" on="1"/>
      </contour>
      <contour>
        <pt x="843" y="504" on="1"/>
        <pt x="843" y="577" on="0"/>
        <pt x="822" y="697" on="0"/>
        <pt x="772" y="782" on="0"/>
        <pt x="688" y="829" on="0"/>
        <pt x="625" y="829" on="1"/>
        <pt x="563" y="829" on="0"/>
        <pt x="482" y="779" on="0"/>
        <pt x="434" y="691" on="0"/>
        <pt x="415" y="573" on="0"/>
        <pt x="415" y="506" on="1"/>
        <pt x="415" y="353" on="0"/>
        <pt x="523" y="199" on="0"/>
        <pt x="626" y="199" on="1"/>
        <pt x="674" y="200" on="0"/>
        <pt x="753" y="235" on="0"/>
        <pt x="811" y="309" on="0"/>
        <pt x="843" y="423" on="0"/>
      </contour>
    </TTGlyph>
    <TTGlyph name="germandbls" xMin="123" yMin="-21" xMax="1362" yMax="1486">
      <contour>
        <pt x="586" y="170" on="1"/>
        <pt x="581" y="180" on="0"/>
        <pt x="577" y="200" on="0"/>
        <pt x="577" y="210" on="1"/>
        <pt x="577" y="231" on="0"/>
        <pt x="596" y="270" on="0"/>
        <pt x="627" y="299" on="0"/>
        <pt x="667" y="316" on="0"/>
        <pt x="689" y="316" on="1"/>
        <pt x="716" y="316" on="0"/>
        <pt x="755" y="289" on="0"/>
        <pt x="778" y="257" on="1"/>
        <pt x="804" y="219" on="0"/>
        <pt x="878" y="174" on="0"/>
        <pt x="932" y="174" on="1"/>
        <pt x="989" y="174" on="0"/>
        <pt x="1064" y="241" on="0"/>
        <pt x="1064" y="312" on="1"/>
        <pt x="1064" y="361" on="0"/>
        <pt x="993" y="439" on="0"/>
        <pt x="892" y="505" on="0"/>
        <pt x="782" y="565" on="0"/>
        <pt x="743" y="596" on="1"/>
        <pt x="697" y="633" on="0"/>
        <pt x="638" y="723" on="0"/>
        <pt x="638" y="786" on="1"/>
        <pt x="638" y="843" on="0"/>
        <pt x="685" y="922" on="0"/>
        <pt x="752" y="986" on="0"/>
        <pt x="826" y="1047" on="0"/>
        <pt x="852" y="1085" on="1"/>
        <pt x="863" y="1100" on="0"/>
        <pt x="875" y="1133" on="0"/>
        <pt x="875" y="1152" on="1"/>
        <pt x="875" y="1189" on="0"/>
        <pt x="842" y="1245" on="0"/>
        <pt x="787" y="1282" on="0"/>
        <pt x="717" y="1300" on="0"/>
        <pt x="680" y="1300" on="1"/>
        <pt x="617" y="1300" on="0"/>
        <pt x="528" y="1250" on="0"/>
        <pt x="470" y="1161" on="0"/>
        <pt x="443" y="1042" on="0"/>
        <pt x="442" y="973" on="1"/>
        <pt x="442" y="230" on="1"/>
        <pt x="442" y="180" on="0"/>
        <pt x="423" y="97" on="0"/>
        <pt x="383" y="37" on="0"/>
        <pt x="320" y="3" on="0"/>
        <pt x="275" y="3" on="1"/>
        <pt x="195" y="3" on="0"/>
        <pt x="123" y="100" on="0"/>
        <pt x="123" y="193" on="1"/>
        <pt x="123" y="899" on="1"/>
        <pt x="123" y="1028" on="0"/>
        <pt x="172" y="1243" on="0"/>
        <pt x="302" y="1399" on="0"/>
        <pt x="528" y="1486" on="0"/>
        <pt x="705" y="1486" on="1"/>
        <pt x="796" y="1486" on="0"/>
        <pt x="971" y="1443" on="0"/>
        <pt x="1106" y="1358" on="0"/>
        <pt x="1189" y="1232" on="0"/>
        <pt x="1189" y="1150" on="1"/>
        <pt x="1189" y="1108" on="0"/>
        <pt x="1158" y="1037" on="0"/>
        <pt x="1113" y="978" on="0"/>
        <pt x="1061" y="930" on="0"/>
        <pt x="1040" y="910" on="1"/>
        <pt x="1009" y="881" on="0"/>
        <pt x="962" y="828" on="0"/>
        <pt x="962" y="802" on="1"/>
        <pt x="962" y="764" on="0"/>
        <pt x="1025" y="707" on="0"/>
        <pt x="1118" y="654" on="0"/>
        <pt x="1222" y="597" on="0"/>
        <pt x="1263" y="560" on="1"/>
        <pt x="1308" y="519" on="0"/>
        <pt x="1362" y="409" on="0"/>
        <pt x="1362" y="330" on="1"/>
        <pt x="1362" y="244" on="0"/>
        <pt x="1290" y="112" on="0"/>
        <pt x="1172" y="24" on="0"/>
        <pt x="1022" y="-21" on="0"/>
        <pt x="943" y="-21" on="1"/>
        <pt x="884" y="-21" on="0"/>
        <pt x="774" y="2" on="0"/>
        <pt x="680" y="48" on="0"/>
        <pt x="607" y="120" on="0"/>
      </contour>
    </TTGlyph>
    <TTGlyph name="grave" xMin="39" yMin="1118" xMax="507" yMax="1601">
      <contour>
        <pt x="73" y="1404" on="1"/>
        <pt x="55" y="1419" on="0"/>
        <pt x="39" y="1454" on="0"/>
        <pt x="39" y="1474" on="1"/>
        <pt x="39" y="1499" on="0"/>
        <pt x="64" y="1545" on="0"/>
        <pt x="103" y="1580" on="0"/>
        <pt x="153" y="1601" on="0"/>
        <pt x="178" y="1601" on="1"/>
        <pt x="210" y="1601" on="0"/>
        <pt x="267" y="1556" on="0"/>
        <pt x="292" y="1520" on="1"/>
        <pt x="484" y="1240" on="1"/>
        <pt x="492" y="1227" on="0"/>
        <pt x="507" y="1202" on="0"/>
        <pt x="507" y="1189" on="1"/>
        <pt x="507" y="1161" on="0"/>
        <pt x="469" y="1118" on="0"/>
        <pt x="442" y="1118" on="1"/>
        <pt x="426" y="1118" on="0"/>
        <pt x="382" y="1137" on="0"/>
        <pt x="367" y="1152" on="1"/>
      </contour>
    </TTGlyph>
    <TTGlyph name="greater" xMin="121" yMin="37" xMax="1178" yMax="982">
      <contour>
        <pt x="1093" y="621" on="1"/>
        <pt x="1135" y="603" on="0"/>
        <pt x="1178" y="540" on="0"/>
        <pt x="1178" y="506" on="1"/>
        <pt x="1178" y="461" on="0"/>
        <pt x="1123" y="401" on="0"/>
        <pt x="1066" y="378" on="1"/>
        <pt x="867" y="296" on="0"/>
        <pt x="473" y="135" on="0"/>
        <pt x="275" y="53" on="1"/>
        <pt x="259" y="46" on="0"/>
        <pt x="227" y="37" on="0"/>
        <pt x="212" y="37" on="1"/>
        <pt x="192" y="37" on="0"/>
        <pt x="159" y="53" on="0"/>
        <pt x="135" y="80" on="0"/>
        <pt x="122" y="114" on="0"/>
        <pt x="122" y="132" on="1"/>
        <pt x="122" y="158" on="0"/>
        <pt x="148" y="202" on="0"/>
        <pt x="180" y="215" on="1"/>
        <pt x="895" y="506" on="1"/>
        <pt x="715" y="581" on="0"/>
        <pt x="357" y="728" on="0"/>
        <pt x="178" y="806" on="1"/>
        <pt x="148" y="819" on="0"/>
        <pt x="121" y="862" on="0"/>
        <pt x="121" y="887" on="1"/>
        <pt x="121" y="904" on="0"/>
        <pt x="133" y="938" on="0"/>
        <pt x="156" y="965" on="0"/>
        <pt x="190" y="982" on="0"/>
        <pt x="211" y="982" on="1"/>
        <pt x="231" y="982" on="0"/>
        <pt x="278" y="964" on="0"/>
        <pt x="299" y="955" on="1"/>
      </contour>
    </TTGlyph>
    <TTGlyph name="greaterequal" xMin="101" yMin="-10" xMax="1160" yMax="1261">
      <contour>
        <pt x="232" y="322" on="1"/>
        <pt x="221" y="319" on="0"/>
        <pt x="202" y="317" on="0"/>
        <pt x="194" y="317" on="1"/>
        <pt x="174" y="317" on="0"/>
        <pt x="140" y="333" on="0"/>
        <pt x="116" y="359" on="0"/>
        <pt x="102" y="394" on="0"/>
        <pt x="102" y="413" on="1"/>
        <pt x="102" y="450" on="0"/>
        <pt x="165" y="497" on="0"/>
        <pt x="212" y="516" on="1"/>
        <pt x="380" y="584" on="0"/>
        <pt x="708" y="716" on="0"/>
        <pt x="876" y="785" on="1"/>
        <pt x="708" y="854" on="0"/>
        <pt x="376" y="994" on="0"/>
        <pt x="208" y="1064" on="1"/>
        <pt x="187" y="1073" on="0"/>
        <pt x="148" y="1092" on="0"/>
        <pt x="118" y="1116" on="0"/>
        <pt x="101" y="1146" on="0"/>
        <pt x="101" y="1166" on="1"/>
        <pt x="101" y="1183" on="0"/>
        <pt x="114" y="1217" on="0"/>
        <pt x="138" y="1244" on="0"/>
        <pt x="171" y="1261" on="0"/>
        <pt x="192" y="1261" on="1"/>
        <pt x="211" y="1261" on="0"/>
        <pt x="258" y="1243" on="0"/>
        <pt x="280" y="1234" on="1"/>
        <pt x="1049" y="911" on="1"/>
        <pt x="1099" y="890" on="0"/>
        <pt x="1160" y="830" on="0"/>
        <pt x="1160" y="784" on="1"/>
        <pt x="1160" y="741" on="0"/>
        <pt x="1104" y="681" on="0"/>
        <pt x="1048" y="658" on="1"/>
      </contour>
      <contour>
        <pt x="201" y="-10" on="1"/>
        <pt x="180" y="-10" on="0"/>
        <pt x="149" y="6" on="0"/>
        <pt x="129" y="31" on="0"/>
        <pt x="120" y="62" on="0"/>
        <pt x="120" y="77" on="1"/>
        <pt x="120" y="123" on="0"/>
        <pt x="180" y="163" on="0"/>
        <pt x="237" y="163" on="1"/>
        <pt x="1027" y="163" on="1"/>
        <pt x="1048" y="163" on="0"/>
        <pt x="1084" y="154" on="0"/>
        <pt x="1112" y="134" on="0"/>
        <pt x="1128" y="100" on="0"/>
        <pt x="1128" y="76" on="1"/>
        <pt x="1128" y="26" on="0"/>
        <pt x="1062" y="-10" on="0"/>
        <pt x="1009" y="-10" on="1"/>
      </contour>
    </TTGlyph>
    <TTGlyph name="guillemotleft" xMin="105" yMin="5" xMax="1104" yMax="1052">
      <contour>
        <pt x="363" y="972" on="1"/>
        <pt x="390" y="1015" on="0"/>
        <pt x="454" y="1052" on="0"/>
        <pt x="489" y="1052" on="1"/>
        <pt x="512" y="1052" on="0"/>
        <pt x="553" y="1036" on="0"/>
        <pt x="583" y="1007" on="0"/>
        <pt x="601" y="968" on="0"/>
        <pt x="601" y="946" on="1"/>
        <pt x="601" y="931" on="0"/>
        <pt x="586" y="893" on="0"/>
        <pt x="578" y="875" on="1"/>
        <pt x="423" y="529" on="1"/>
        <pt x="465" y="437" on="0"/>
        <pt x="545" y="256" on="0"/>
        <pt x="586" y="165" on="1"/>
        <pt x="591" y="153" on="0"/>
        <pt x="600" y="129" on="0"/>
        <pt x="602" y="117" on="1"/>
        <pt x="602" y="67" on="0"/>
        <pt x="537" y="5" on="0"/>
        <pt x="483" y="5" on="1"/>
        <pt x="442" y="6" on="0"/>
        <pt x="377" y="62" on="0"/>
        <pt x="346" y="115" on="1"/>
        <pt x="105" y="529" on="1"/>
      </contour>
      <contour>
        <pt x="865" y="972" on="1"/>
        <pt x="891" y="1014" on="0"/>
        <pt x="956" y="1052" on="0"/>
        <pt x="990" y="1052" on="1"/>
        <pt x="1013" y="1052" on="0"/>
        <pt x="1054" y="1036" on="0"/>
        <pt x="1085" y="1007" on="0"/>
        <pt x="1103" y="968" on="0"/>
        <pt x="1103" y="946" on="1"/>
        <pt x="1103" y="931" on="0"/>
        <pt x="1088" y="893" on="0"/>
        <pt x="1080" y="875" on="1"/>
        <pt x="925" y="529" on="1"/>
        <pt x="1088" y="165" on="1"/>
        <pt x="1093" y="153" on="0"/>
        <pt x="1102" y="129" on="0"/>
        <pt x="1104" y="117" on="1"/>
        <pt x="1104" y="66" on="0"/>
        <pt x="1038" y="5" on="0"/>
        <pt x="984" y="5" on="1"/>
        <pt x="945" y="5" on="0"/>
        <pt x="877" y="62" on="0"/>
        <pt x="847" y="115" on="1"/>
        <pt x="606" y="529" on="1"/>
      </contour>
    </TTGlyph>
</ttFont>
